<svg xmlns="http://www.w3.org/2000/svg" xmlns:xlink="http://www.w3.org/1999/xlink" width="500" zoomAndPan="magnify" viewBox="0 0 375 374.999991" height="500" preserveAspectRatio="xMidYMid meet" version="1.0"><path fill="#fcb101" d="M 189.785156 168.902344 C 189.398438 168.183594 188.785156 167.578125 187.988281 167.214844 C 186.050781 166.328125 183.753906 167.183594 182.867188 169.121094 C 180.601562 174.082031 182.390625 176.753906 183.886719 177.800781 C 185.34375 178.820312 188.21875 179.121094 191.292969 177.460938 C 194.046875 175.972656 197.164062 173.042969 198.640625 169.867188 C 199.585938 167.832031 199.902344 165.699219 199.445312 163.675781 C 198.980469 161.628906 197.75 159.597656 195.199219 157.933594 C 189.371094 154.136719 183.3125 155.289062 178.125 159.121094 C 171.433594 164.0625 166.464844 173.785156 166.160156 180.25 C 165.605469 191.980469 173.609375 200.265625 183.632812 203.375 C 193.480469 206.433594 205.113281 204.339844 211.886719 196 C 223.847656 181.269531 220.222656 164.179688 209.660156 153.078125 C 199.195312 142.078125 181.90625 137.117188 166.546875 146.238281 C 154.519531 153.378906 146.085938 164.84375 141.503906 177.960938 C 133.101562 202.011719 140.789062 221.878906 155.636719 232.878906 C 170.351562 243.777344 192.382812 246.011719 213.347656 234.484375 C 280.609375 197.488281 245.171875 96.859375 170.355469 114.019531 C 147.175781 119.335938 125.878906 137.472656 113.1875 160.027344 C 100.410156 182.734375 96.410156 209.8125 107.441406 232.582031 C 113.378906 244.832031 125.070312 255.0625 139.097656 262.421875 C 159.78125 273.265625 185.46875 277.84375 204.261719 274.046875 C 217.628906 271.34375 229.410156 262.503906 238.816406 253.039062 C 270.257812 221.410156 276.285156 180.847656 269.460938 137.945312 C 263.78125 102.226562 243.71875 70.90625 204.011719 70.726562 C 144.796875 70.460938 85.691406 124.976562 71.894531 180.660156 C 56.777344 241.652344 93.023438 304.464844 156.566406 315.199219 C 172.851562 317.953125 190.949219 318.324219 207.160156 314.855469 C 225.089844 311.015625 241.429688 302.503906 255.578125 290.96875 C 303.570312 251.828125 303.316406 198.195312 300.910156 140.832031 C 298.46875 82.613281 250.574219 53.421875 198.101562 49.816406 C 160.96875 47.269531 128.578125 58.117188 101.175781 85.644531 C 99.671875 87.15625 99.679688 89.601562 101.191406 91.105469 C 102.699219 92.609375 105.148438 92.605469 106.652344 91.09375 C 132.351562 65.277344 162.746094 55.132812 197.570312 57.523438 C 246.121094 60.859375 290.933594 87.292969 293.195312 141.15625 C 295.492188 196.007812 296.59375 247.550781 250.695312 284.980469 C 237.5 295.746094 222.269531 303.71875 205.539062 307.300781 C 190.265625 310.570312 173.203125 310.179688 157.851562 307.585938 C 98.835938 297.613281 65.355469 239.164062 79.390625 182.515625 C 92.421875 129.925781 148.050781 78.203125 203.972656 78.453125 C 239.46875 78.609375 256.757812 107.230469 261.832031 139.15625 C 268.253906 179.542969 262.933594 217.820312 233.339844 247.59375 C 224.972656 256.011719 214.617188 264.070312 202.734375 266.476562 C 185.40625 269.976562 161.753906 265.578125 142.6875 255.578125 C 130.214844 249.039062 119.671875 240.101562 114.394531 229.210938 C 104.445312 208.679688 108.398438 184.292969 119.921875 163.816406 C 131.53125 143.183594 150.875 126.414062 172.082031 121.550781 C 237.949219 106.441406 268.84375 195.144531 209.621094 227.714844 C 191.6875 237.582031 172.824219 235.996094 160.234375 226.671875 C 147.78125 217.445312 141.75 200.679688 148.796875 180.511719 C 152.777344 169.109375 160.039062 159.085938 170.488281 152.882812 C 182.464844 145.769531 195.90625 149.832031 204.0625 158.402344 C 212.117188 166.871094 215.011719 179.898438 205.890625 191.128906 C 201.121094 196.996094 192.851562 198.152344 185.921875 196 C 179.164062 193.902344 173.503906 188.523438 173.878906 180.617188 C 174.101562 175.917969 177.847656 168.929688 182.714844 165.332031 C 185.238281 163.472656 188.148438 162.5625 190.980469 164.40625 C 191.445312 164.707031 191.796875 164.980469 191.902344 165.351562 C 192.09375 166.023438 191.652344 166.6875 191.226562 167.339844 C 190.886719 167.871094 190.359375 168.40625 189.785156 168.902344 Z M 189.785156 168.902344 " fill-opacity="1" fill-rule="evenodd"/></svg>