<svg xmlns="http://www.w3.org/2000/svg" xmlns:xlink="http://www.w3.org/1999/xlink" width="500" zoomAndPan="magnify" viewBox="0 0 375 374.999991" height="500" preserveAspectRatio="xMidYMid meet" version="1.0"><defs><clipPath id="1e3081b9ef"><path d="M 37.5 42.269531 L 333 42.269531 L 333 337.769531 L 37.5 337.769531 Z M 37.5 42.269531 " clip-rule="nonzero"/></clipPath></defs><g clip-path="url(#1e3081b9ef)"><path fill="#181ddb" d="M 185.5625 42.269531 L 332.730469 42.269531 L 332.730469 189.433594 C 332.730469 191.855469 332.671875 194.277344 332.550781 196.699219 C 332.433594 199.121094 332.253906 201.535156 332.015625 203.945312 C 331.78125 206.359375 331.484375 208.761719 331.128906 211.160156 C 330.773438 213.554688 330.359375 215.945312 329.886719 218.320312 C 329.414062 220.695312 328.882812 223.058594 328.292969 225.410156 C 327.703125 227.761719 327.058594 230.097656 326.355469 232.414062 C 325.652344 234.734375 324.890625 237.035156 324.074219 239.316406 C 323.257812 241.597656 322.386719 243.855469 321.460938 246.097656 C 320.53125 248.335938 319.550781 250.550781 318.515625 252.738281 C 317.480469 254.929688 316.390625 257.09375 315.246094 259.230469 C 314.105469 261.367188 312.910156 263.476562 311.664062 265.554688 C 310.417969 267.632812 309.125 269.679688 307.777344 271.695312 C 306.429688 273.707031 305.035156 275.691406 303.59375 277.636719 C 302.148438 279.582031 300.660156 281.492188 299.121094 283.363281 C 297.585938 285.238281 296 287.074219 294.375 288.867188 C 292.746094 290.664062 291.078125 292.417969 289.363281 294.132812 C 287.648438 295.84375 285.894531 297.515625 284.101562 299.140625 C 282.304688 300.769531 280.46875 302.351562 278.597656 303.890625 C 276.722656 305.425781 274.8125 306.917969 272.867188 308.359375 C 270.921875 309.804688 268.941406 311.199219 266.925781 312.546875 C 264.910156 313.890625 262.863281 315.1875 260.785156 316.433594 C 258.707031 317.679688 256.601562 318.871094 254.464844 320.015625 C 252.324219 321.15625 250.164062 322.246094 247.972656 323.28125 C 245.78125 324.320312 243.566406 325.300781 241.328125 326.226562 C 239.089844 327.15625 236.828125 328.027344 234.546875 328.84375 C 232.265625 329.660156 229.964844 330.417969 227.648438 331.121094 C 225.328125 331.824219 222.992188 332.472656 220.644531 333.0625 C 218.292969 333.648438 215.929688 334.179688 213.550781 334.652344 C 211.175781 335.125 208.789062 335.539062 206.390625 335.894531 C 203.996094 336.25 201.589844 336.546875 199.179688 336.785156 C 196.769531 337.023438 194.351562 337.199219 191.929688 337.320312 C 189.511719 337.4375 187.089844 337.5 184.667969 337.5 L 37.5 337.5 L 37.5 190.332031 C 37.5 187.910156 37.558594 185.488281 37.679688 183.066406 C 37.796875 180.648438 37.976562 178.230469 38.214844 175.820312 C 38.449219 173.40625 38.746094 171.003906 39.101562 168.605469 C 39.457031 166.210938 39.871094 163.824219 40.34375 161.445312 C 40.816406 159.070312 41.347656 156.707031 41.9375 154.355469 C 42.527344 152.003906 43.171875 149.671875 43.875 147.351562 C 44.578125 145.03125 45.339844 142.730469 46.15625 140.449219 C 46.972656 138.167969 47.84375 135.910156 48.769531 133.671875 C 49.699219 131.429688 50.679688 129.21875 51.714844 127.027344 C 52.75 124.835938 53.839844 122.671875 54.984375 120.535156 C 56.125 118.398438 57.320312 116.289062 58.566406 114.210938 C 59.8125 112.132812 61.105469 110.085938 62.453125 108.070312 C 63.800781 106.058594 65.195312 104.078125 66.636719 102.128906 C 68.082031 100.183594 69.570312 98.273438 71.109375 96.402344 C 72.644531 94.527344 74.230469 92.695312 75.855469 90.898438 C 77.484375 89.101562 79.152344 87.347656 80.867188 85.636719 C 82.582031 83.921875 84.335938 82.25 86.128906 80.625 C 87.925781 78.996094 89.761719 77.414062 91.632812 75.875 C 93.507812 74.339844 95.417969 72.847656 97.363281 71.40625 C 99.308594 69.960938 101.289062 68.566406 103.304688 67.222656 C 105.320312 65.875 107.367188 64.578125 109.445312 63.332031 C 111.523438 62.085938 113.628906 60.894531 115.765625 59.75 C 117.902344 58.609375 120.066406 57.519531 122.257812 56.484375 C 124.449219 55.449219 126.664062 54.464844 128.902344 53.539062 C 131.140625 52.609375 133.402344 51.738281 135.683594 50.921875 C 137.964844 50.105469 140.265625 49.347656 142.582031 48.644531 C 144.902344 47.941406 147.238281 47.292969 149.585938 46.707031 C 151.9375 46.117188 154.300781 45.585938 156.679688 45.113281 C 159.054688 44.640625 161.441406 44.226562 163.839844 43.871094 C 166.234375 43.515625 168.640625 43.21875 171.050781 42.980469 C 173.460938 42.742188 175.878906 42.566406 178.300781 42.445312 C 180.71875 42.328125 183.140625 42.269531 185.5625 42.269531 Z M 185.5625 42.269531 " fill-opacity="1" fill-rule="nonzero"/></g></svg>