<svg xmlns="http://www.w3.org/2000/svg" xmlns:xlink="http://www.w3.org/1999/xlink" width="500" zoomAndPan="magnify" viewBox="0 0 375 374.999991" height="500" preserveAspectRatio="xMidYMid meet" version="1.0"><defs><clipPath id="6da604ca7b"><path d="M 22.335938 29.519531 L 352.335938 29.519531 L 352.335938 359.519531 L 22.335938 359.519531 Z M 22.335938 29.519531 " clip-rule="nonzero"/></clipPath></defs><g clip-path="url(#6da604ca7b)"><path fill="#fcb101" d="M 352.664062 194.683594 L 352.664062 359.847656 L 22.335938 359.847656 L 22.335938 194.683594 C 22.335938 191.980469 22.402344 189.28125 22.535156 186.578125 C 22.667969 183.878906 22.867188 181.183594 23.132812 178.496094 C 23.394531 175.804688 23.726562 173.125 24.125 170.449219 C 24.519531 167.777344 24.980469 165.113281 25.507812 162.460938 C 26.035156 159.8125 26.628906 157.175781 27.285156 154.550781 C 27.941406 151.929688 28.664062 149.324219 29.449219 146.738281 C 30.234375 144.152344 31.082031 141.585938 31.992188 139.042969 C 32.902344 136.496094 33.875 133.976562 34.910156 131.480469 C 35.941406 128.980469 37.039062 126.511719 38.195312 124.066406 C 39.347656 121.625 40.5625 119.210938 41.839844 116.828125 C 43.113281 114.441406 44.445312 112.089844 45.835938 109.773438 C 47.222656 107.453125 48.667969 105.171875 50.171875 102.925781 C 51.671875 100.675781 53.230469 98.46875 54.839844 96.296875 C 56.449219 94.125 58.113281 91.996094 59.828125 89.90625 C 61.542969 87.816406 63.304688 85.769531 65.121094 83.765625 C 66.9375 81.765625 68.800781 79.808594 70.710938 77.894531 C 72.621094 75.984375 74.578125 74.121094 76.582031 72.304688 C 78.585938 70.492188 80.632812 68.726562 82.722656 67.011719 C 84.808594 65.296875 86.941406 63.632812 89.113281 62.023438 C 91.28125 60.414062 93.492188 58.855469 95.738281 57.355469 C 97.988281 55.855469 100.269531 54.40625 102.589844 53.019531 C 104.90625 51.628906 107.257812 50.296875 109.640625 49.023438 C 112.027344 47.75 114.441406 46.535156 116.882812 45.378906 C 119.328125 44.222656 121.796875 43.128906 124.292969 42.09375 C 126.792969 41.058594 129.3125 40.085938 131.859375 39.175781 C 134.402344 38.265625 136.96875 37.417969 139.554688 36.632812 C 142.140625 35.847656 144.746094 35.125 147.367188 34.46875 C 149.992188 33.8125 152.625 33.222656 155.277344 32.695312 C 157.929688 32.167969 160.589844 31.703125 163.265625 31.308594 C 165.9375 30.910156 168.621094 30.582031 171.3125 30.316406 C 174 30.050781 176.695312 29.851562 179.394531 29.71875 C 182.09375 29.585938 184.796875 29.519531 187.5 29.519531 C 190.203125 29.519531 192.90625 29.585938 195.605469 29.71875 C 198.304688 29.851562 201 30.050781 203.6875 30.316406 C 206.378906 30.582031 209.0625 30.910156 211.734375 31.308594 C 214.410156 31.703125 217.070312 32.167969 219.722656 32.695312 C 222.375 33.222656 225.007812 33.8125 227.632812 34.46875 C 230.253906 35.125 232.859375 35.847656 235.445312 36.632812 C 238.03125 37.417969 240.597656 38.265625 243.140625 39.175781 C 245.6875 40.085938 248.207031 41.058594 250.707031 42.09375 C 253.203125 43.128906 255.671875 44.222656 258.117188 45.378906 C 260.558594 46.535156 262.972656 47.75 265.359375 49.023438 C 267.742188 50.296875 270.09375 51.628906 272.410156 53.019531 C 274.730469 54.40625 277.011719 55.855469 279.261719 57.355469 C 281.507812 58.855469 283.71875 60.414062 285.886719 62.023438 C 288.058594 63.632812 290.191406 65.296875 292.277344 67.011719 C 294.367188 68.726562 296.414062 70.492188 298.417969 72.304688 C 300.421875 74.121094 302.378906 75.984375 304.289062 77.894531 C 306.199219 79.808594 308.0625 81.765625 309.878906 83.765625 C 311.695312 85.769531 313.457031 87.816406 315.171875 89.90625 C 316.886719 91.996094 318.550781 94.125 320.160156 96.296875 C 321.769531 98.46875 323.328125 100.675781 324.828125 102.925781 C 326.332031 105.171875 327.777344 107.453125 329.164062 109.773438 C 330.554688 112.089844 331.886719 114.441406 333.160156 116.828125 C 334.4375 119.210938 335.652344 121.625 336.804688 124.066406 C 337.960938 126.511719 339.058594 128.980469 340.089844 131.480469 C 341.125 133.976562 342.097656 136.496094 343.007812 139.042969 C 343.917969 141.585938 344.765625 144.152344 345.550781 146.738281 C 346.335938 149.328125 347.058594 151.929688 347.714844 154.550781 C 348.371094 157.175781 348.964844 159.8125 349.492188 162.460938 C 350.019531 165.113281 350.480469 167.777344 350.875 170.449219 C 351.273438 173.125 351.605469 175.804688 351.867188 178.496094 C 352.132812 181.183594 352.332031 183.878906 352.464844 186.578125 C 352.597656 189.28125 352.664062 191.980469 352.664062 194.683594 Z M 352.664062 194.683594 " fill-opacity="1" fill-rule="nonzero"/></g></svg>