<svg xmlns="http://www.w3.org/2000/svg" xmlns:xlink="http://www.w3.org/1999/xlink" width="500" zoomAndPan="magnify" viewBox="0 0 375 374.999991" height="500" preserveAspectRatio="xMidYMid meet" version="1.0"><defs><clipPath id="965fe374fc"><path d="M 41 137.59375 L 337.75 137.59375 L 337.75 237.34375 L 41 237.34375 Z M 41 137.59375 " clip-rule="nonzero"/></clipPath><clipPath id="4dd13da91b"><path d="M 53 149.59375 L 349.75 149.59375 L 349.75 249.34375 L 53 249.34375 Z M 53 149.59375 " clip-rule="nonzero"/></clipPath></defs><g clip-path="url(#965fe374fc)"><path fill="#ff0072" d="M 287.097656 237.402344 L 91.148438 237.402344 C 63.578125 237.402344 41.214844 215.035156 41.214844 187.527344 C 41.214844 159.957031 63.578125 137.59375 91.148438 137.59375 L 287.15625 137.59375 C 314.667969 137.59375 337.03125 159.957031 337.03125 187.527344 C 337.03125 215.035156 314.667969 237.402344 287.097656 237.402344 Z M 91.148438 142.859375 C 66.535156 142.859375 46.480469 162.914062 46.480469 187.527344 C 46.480469 212.136719 66.476562 232.136719 91.089844 232.136719 L 287.097656 232.136719 C 311.707031 232.136719 331.707031 212.136719 331.707031 187.527344 C 331.707031 162.914062 311.707031 142.859375 287.097656 142.859375 Z M 91.148438 142.859375 " fill-opacity="1" fill-rule="nonzero"/></g><g clip-path="url(#4dd13da91b)"><path fill="#8d25fc" d="M 299.097656 249.402344 L 103.148438 249.402344 C 75.578125 249.402344 53.214844 227.035156 53.214844 199.527344 C 53.214844 171.957031 75.578125 149.59375 103.148438 149.59375 L 299.15625 149.59375 C 326.667969 149.59375 349.03125 171.957031 349.03125 199.527344 C 349.03125 227.035156 326.667969 249.402344 299.097656 249.402344 Z M 103.148438 154.859375 C 78.535156 154.859375 58.480469 174.914062 58.480469 199.527344 C 58.480469 224.136719 78.476562 244.136719 103.089844 244.136719 L 299.097656 244.136719 C 323.707031 244.136719 343.707031 224.136719 343.707031 199.527344 C 343.707031 174.914062 323.707031 154.859375 299.097656 154.859375 Z M 103.148438 154.859375 " fill-opacity="1" fill-rule="nonzero"/></g></svg>