<svg xmlns="http://www.w3.org/2000/svg" xmlns:xlink="http://www.w3.org/1999/xlink" width="500" zoomAndPan="magnify" viewBox="0 0 375 374.999991" height="500" preserveAspectRatio="xMidYMid meet" version="1.0"><defs><clipPath id="fc39fdd36d"><path d="M 188 208 L 375 208 L 375 375 L 188 375 Z M 188 208 " clip-rule="nonzero"/></clipPath><clipPath id="3cec0e4d79"><path d="M 509.195312 295.054688 L 211.261719 466.019531 L 125.78125 317.050781 L 423.710938 146.085938 Z M 509.195312 295.054688 " clip-rule="nonzero"/></clipPath><clipPath id="76b34cbc82"><path d="M 509.195312 295.054688 L 211.261719 466.019531 L 125.78125 317.050781 L 423.710938 146.085938 Z M 509.195312 295.054688 " clip-rule="nonzero"/></clipPath><clipPath id="0a5baa4924"><path d="M 249 276 L 375 276 L 375 375 L 249 375 Z M 249 276 " clip-rule="nonzero"/></clipPath><clipPath id="e8d14d8cf6"><path d="M 452.429688 300.570312 L 303.554688 510.363281 L 198.960938 436.144531 L 347.839844 226.351562 Z M 452.429688 300.570312 " clip-rule="nonzero"/></clipPath><clipPath id="2cc8a0a5f9"><path d="M 452.429688 300.570312 L 303.554688 510.363281 L 198.960938 436.144531 L 347.839844 226.351562 Z M 452.429688 300.570312 " clip-rule="nonzero"/></clipPath></defs><g clip-path="url(#fc39fdd36d)"><g clip-path="url(#3cec0e4d79)"><g clip-path="url(#76b34cbc82)"><path fill="#8d25fc" d="M 255.519531 440.621094 C 222.433594 382.960938 242.390625 309.257812 300.050781 276.167969 C 357.707031 243.082031 431.414062 263.039062 464.503906 320.699219 L 509.066406 295.125 C 461.820312 212.792969 356.808594 184.355469 274.476562 231.601562 C 192.140625 278.847656 163.957031 383.714844 211.207031 466.050781 Z M 255.519531 440.621094 " fill-opacity="1" fill-rule="nonzero"/></g></g></g><g clip-path="url(#0a5baa4924)"><g clip-path="url(#e8d14d8cf6)"><g clip-path="url(#2cc8a0a5f9)"><path fill="#fcb101" d="M 325.8125 478.996094 C 285.257812 450.21875 275.691406 393.90625 304.472656 353.351562 C 333.25 312.796875 389.566406 303.230469 430.121094 332.011719 L 452.363281 300.664062 C 394.453125 259.570312 314.222656 273.195312 273.125 331.105469 C 232.03125 389.015625 245.785156 469.070312 303.695312 510.167969 Z M 325.8125 478.996094 " fill-opacity="1" fill-rule="nonzero"/></g></g></g></svg>