<svg xmlns="http://www.w3.org/2000/svg" xmlns:xlink="http://www.w3.org/1999/xlink" width="500" zoomAndPan="magnify" viewBox="0 0 375 374.999991" height="500" preserveAspectRatio="xMidYMid meet" version="1.0"><defs><clipPath id="66896db88d"><path d="M 141 128 L 253 128 L 253 240 L 141 240 Z M 141 128 " clip-rule="nonzero"/></clipPath><clipPath id="aa2848b9c7"><path d="M 187.882812 106.335938 L 274.917969 175.167969 L 206.085938 262.207031 L 119.046875 193.371094 Z M 187.882812 106.335938 " clip-rule="nonzero"/></clipPath><clipPath id="7c1a799cad"><path d="M 231.402344 140.75 C 207.367188 121.742188 172.472656 125.820312 153.464844 149.855469 C 134.457031 173.890625 138.53125 208.78125 162.566406 227.789062 C 186.601562 246.796875 221.496094 242.722656 240.503906 218.6875 C 259.511719 194.652344 255.4375 159.757812 231.402344 140.75 Z M 231.402344 140.75 " clip-rule="nonzero"/></clipPath><clipPath id="62fd51bc11"><path d="M 44 50 L 156 50 L 156 162 L 44 162 Z M 44 50 " clip-rule="nonzero"/></clipPath><clipPath id="d94d6addca"><path d="M 91.074219 28.398438 L 178.113281 97.230469 L 109.28125 184.269531 L 22.242188 115.4375 Z M 91.074219 28.398438 " clip-rule="nonzero"/></clipPath><clipPath id="f9b2c3aff9"><path d="M 134.59375 62.816406 C 110.558594 43.808594 75.667969 47.882812 56.660156 71.917969 C 37.648438 95.953125 41.726562 130.847656 65.761719 149.855469 C 89.796875 168.863281 124.6875 164.785156 143.695312 140.75 C 162.703125 116.714844 158.628906 81.824219 134.59375 62.816406 Z M 134.59375 62.816406 " clip-rule="nonzero"/></clipPath><clipPath id="4758492bb9"><path d="M 241 206 L 353 206 L 353 318 L 241 318 Z M 241 206 " clip-rule="nonzero"/></clipPath><clipPath id="a76e677cf8"><path d="M 287.960938 184.269531 L 375 253.105469 L 306.164062 340.144531 L 219.125 271.308594 Z M 287.960938 184.269531 " clip-rule="nonzero"/></clipPath><clipPath id="f5d2cc4df6"><path d="M 331.480469 218.6875 C 307.445312 199.679688 272.550781 203.753906 253.542969 227.789062 C 234.535156 251.824219 238.609375 286.71875 262.644531 305.726562 C 286.679688 324.734375 321.574219 320.660156 340.582031 296.625 C 359.589844 272.589844 355.515625 237.695312 331.480469 218.6875 Z M 331.480469 218.6875 " clip-rule="nonzero"/></clipPath><clipPath id="e5b199de76"><path d="M 47 53 L 153 53 L 153 159 L 47 159 Z M 47 53 " clip-rule="nonzero"/></clipPath><clipPath id="b0f9aa66f8"><path d="M 91.566406 32.609375 L 173.921875 97.742188 L 108.789062 180.101562 L 26.433594 114.96875 Z M 91.566406 32.609375 " clip-rule="nonzero"/></clipPath><clipPath id="d05038d8a2"><path d="M 91.566406 32.609375 L 173.921875 97.742188 L 108.789062 180.101562 L 26.433594 114.96875 Z M 91.566406 32.609375 " clip-rule="nonzero"/></clipPath><clipPath id="7c1e31f610"><path d="M 144 131 L 250 131 L 250 237 L 144 237 Z M 144 131 " clip-rule="nonzero"/></clipPath><clipPath id="e85e1db3aa"><path d="M 188.371094 110.546875 L 270.730469 175.679688 L 205.597656 258.035156 L 123.238281 192.902344 Z M 188.371094 110.546875 " clip-rule="nonzero"/></clipPath><clipPath id="be1ad77dec"><path d="M 188.371094 110.546875 L 270.730469 175.679688 L 205.597656 258.035156 L 123.238281 192.902344 Z M 188.371094 110.546875 " clip-rule="nonzero"/></clipPath><clipPath id="2fc0da71cd"><path d="M 244 209 L 350 209 L 350 315 L 244 315 Z M 244 209 " clip-rule="nonzero"/></clipPath><clipPath id="273dd6fa3b"><path d="M 288.449219 188.484375 L 370.808594 253.613281 L 305.675781 335.972656 L 223.316406 270.839844 Z M 288.449219 188.484375 " clip-rule="nonzero"/></clipPath><clipPath id="8b966fa165"><path d="M 288.449219 188.484375 L 370.808594 253.613281 L 305.675781 335.972656 L 223.316406 270.839844 Z M 288.449219 188.484375 " clip-rule="nonzero"/></clipPath></defs><g clip-path="url(#66896db88d)"><g clip-path="url(#aa2848b9c7)"><g clip-path="url(#7c1a799cad)"><path fill="#8d25fc" d="M 187.882812 106.335938 L 274.917969 175.167969 L 206.085938 262.207031 L 119.046875 193.371094 Z M 187.882812 106.335938 " fill-opacity="1" fill-rule="nonzero"/></g></g></g><g clip-path="url(#62fd51bc11)"><g clip-path="url(#d94d6addca)"><g clip-path="url(#f9b2c3aff9)"><path fill="#ff0072" d="M 91.074219 28.398438 L 178.113281 97.230469 L 109.28125 184.269531 L 22.242188 115.4375 Z M 91.074219 28.398438 " fill-opacity="1" fill-rule="nonzero"/></g></g></g><g clip-path="url(#4758492bb9)"><g clip-path="url(#a76e677cf8)"><g clip-path="url(#f5d2cc4df6)"><path fill="#fcb101" d="M 287.960938 184.269531 L 375 253.105469 L 306.164062 340.144531 L 219.125 271.308594 Z M 287.960938 184.269531 " fill-opacity="1" fill-rule="nonzero"/></g></g></g><g clip-path="url(#e5b199de76)"><g clip-path="url(#b0f9aa66f8)"><g clip-path="url(#d05038d8a2)"><path fill="#ffffff" d="M 67.621094 147.496094 C 44.929688 129.550781 41.066406 96.464844 59.011719 73.773438 C 76.957031 51.082031 110.039062 47.21875 132.730469 65.164062 C 155.421875 83.109375 159.285156 116.195312 141.339844 138.886719 C 123.394531 161.578125 90.3125 165.441406 67.621094 147.496094 Z M 132.25 65.773438 C 109.882812 48.085938 77.308594 51.890625 59.617188 74.257812 C 41.929688 96.625 45.734375 129.199219 68.101562 146.886719 C 90.46875 164.574219 123.042969 160.773438 140.730469 138.40625 C 158.421875 116.039062 154.617188 83.460938 132.25 65.773438 Z M 132.25 65.773438 " fill-opacity="1" fill-rule="nonzero"/></g></g></g><g clip-path="url(#7c1e31f610)"><g clip-path="url(#e85e1db3aa)"><g clip-path="url(#be1ad77dec)"><path fill="#ffffff" d="M 164.425781 225.433594 C 141.734375 207.484375 137.871094 174.402344 155.816406 151.710938 C 173.761719 129.019531 206.84375 125.15625 229.535156 143.101562 C 252.226562 161.046875 256.09375 194.128906 238.144531 216.820312 C 220.199219 239.511719 187.117188 243.378906 164.425781 225.433594 Z M 229.054688 143.710938 C 206.6875 126.019531 174.113281 129.824219 156.425781 152.191406 C 138.734375 174.558594 142.539062 207.132812 164.90625 224.824219 C 187.273438 242.511719 219.847656 238.707031 237.539062 216.339844 C 255.226562 193.972656 251.421875 161.398438 229.054688 143.710938 Z M 229.054688 143.710938 " fill-opacity="1" fill-rule="nonzero"/></g></g></g><g clip-path="url(#2fc0da71cd)"><g clip-path="url(#273dd6fa3b)"><g clip-path="url(#8b966fa165)"><path fill="#ffffff" d="M 264.503906 303.367188 C 241.8125 285.421875 237.949219 252.339844 255.894531 229.648438 C 273.839844 206.957031 306.925781 203.09375 329.617188 221.039062 C 352.308594 238.984375 356.171875 272.066406 338.226562 294.757812 C 320.28125 317.449219 287.195312 321.3125 264.503906 303.367188 Z M 329.132812 221.644531 C 306.765625 203.957031 274.191406 207.761719 256.503906 230.128906 C 238.816406 252.496094 242.621094 285.070312 264.984375 302.757812 C 287.351562 320.449219 319.929688 316.644531 337.617188 294.277344 C 355.304688 271.910156 351.5 239.335938 329.132812 221.644531 Z M 329.132812 221.644531 " fill-opacity="1" fill-rule="nonzero"/></g></g></g></svg>