<svg xmlns="http://www.w3.org/2000/svg" xmlns:xlink="http://www.w3.org/1999/xlink" width="500" zoomAndPan="magnify" viewBox="0 0 375 374.999991" height="500" preserveAspectRatio="xMidYMid meet" version="1.0"><defs><clipPath id="31fede7274"><path d="M 42 62 L 333.773438 62 L 333.773438 316 L 42 316 Z M 42 62 " clip-rule="nonzero"/></clipPath></defs><g clip-path="url(#31fede7274)"><path fill="#181ddb" d="M 142.390625 223.441406 C 136.417969 225.519531 130.765625 227.730469 124.921875 229.613281 C 106.542969 235.457031 87.96875 239.679688 68.484375 236.238281 C 63.160156 235.390625 57.964844 233.574219 53.289062 230.847656 C 44.261719 225.390625 41.273438 217.792969 43.871094 207.53125 C 45.882812 199.414062 51.46875 194.023438 57.640625 189.152344 C 72.707031 177.203125 90.175781 170.058594 108.296875 164.410156 C 112.515625 163.109375 116.738281 161.941406 121.285156 160.640625 C 118.554688 157.265625 115.957031 154.148438 113.492188 150.964844 C 105.828125 141.222656 99.59375 130.441406 94.917969 118.949219 C 91.863281 111.285156 89.785156 103.363281 89.851562 95.050781 C 89.980469 86.542969 92.449219 78.8125 98.425781 72.511719 C 101.476562 69.265625 105.566406 68.226562 109.855469 67.644531 C 119.207031 66.410156 128.429688 66.667969 137.457031 69.785156 C 145.3125 72.449219 152.328125 76.996094 157.976562 83.035156 C 159.796875 84.917969 160.703125 87.710938 162.132812 90.242188 L 162.914062 89.917969 C 163.238281 92.125 163.5625 94.203125 166.421875 94.53125 C 167.328125 94.660156 168.757812 99.59375 168.5 100.375 L 172.394531 103.75 C 175.316406 99.855469 178.046875 95.828125 181.226562 92.191406 C 190.96875 81.085938 203.308594 73.550781 216.816406 68.164062 C 240.78125 58.679688 264.226562 60.5625 286.890625 72.578125 C 290.527344 74.527344 293.773438 77.253906 296.890625 79.980469 C 300.527344 83.164062 301.503906 87.449219 300.59375 92.125 C 299.425781 98.425781 296.632812 104.335938 292.410156 109.207031 C 283.449219 119.53125 273.578125 128.949219 261.886719 136.289062 C 252.730469 142.003906 243.378906 147.328125 234.089844 152.847656 C 233.703125 153.171875 233.3125 153.5 232.921875 153.824219 C 236.820312 154.539062 240.324219 155.1875 243.898438 155.769531 C 262.277344 158.695312 279.617188 164.734375 296.175781 172.980469 C 302.933594 176.292969 309.75 179.476562 316.246094 183.242188 C 320.140625 185.449219 323.582031 188.503906 326.894531 191.554688 C 330.664062 195.0625 332.546875 199.738281 333.128906 204.738281 C 333.714844 209.21875 331.3125 212.597656 328 215.453125 C 326.699219 216.558594 325.792969 218.050781 324.753906 219.417969 C 324.296875 220.128906 323.84375 220.84375 323.324219 221.558594 C 315.789062 229.222656 305.917969 234.09375 295.269531 235.457031 C 273.640625 238.378906 252.339844 237.339844 231.429688 230.714844 C 227.726562 229.546875 224.15625 227.921875 220.0625 226.300781 C 220.386719 227.46875 220.582031 228.378906 220.84375 229.222656 C 223.503906 238.25 225.714844 247.34375 226.429688 256.824219 C 227.273438 269.03125 224.351562 280.074219 217.726562 290.398438 C 214.21875 295.917969 210.839844 301.441406 205.972656 305.984375 C 200.90625 310.792969 194.605469 313.324219 187.980469 314.6875 C 180.382812 316.3125 173.824219 313.714844 168.691406 307.738281 C 163.109375 301.179688 159.144531 293.648438 155.835938 285.789062 C 148.042969 267.410156 144.078125 248.121094 142.84375 228.25 C 142.84375 226.753906 142.585938 225.195312 142.390625 223.441406 Z M 98.292969 214.804688 L 98.488281 214.15625 C 100.175781 214.089844 101.867188 213.894531 103.488281 213.570312 C 113.101562 211.167969 122.714844 208.765625 132.257812 206.101562 C 136.089844 205.0625 139.664062 203.246094 143.300781 201.6875 C 143.949219 201.363281 144.46875 200.777344 144.664062 200.0625 C 146.027344 194.671875 147.261719 189.28125 148.496094 183.828125 C 148.625 183.371094 148.625 182.464844 148.429688 182.398438 C 146.027344 181.230469 144.210938 178.695312 141.09375 179.347656 C 135.117188 180.644531 129.140625 181.878906 123.234375 183.371094 C 109.140625 186.945312 95.828125 192.074219 85.371094 202.855469 C 82.578125 205.714844 82.707031 210.128906 86.34375 211.621094 C 89.980469 213.117188 94.332031 213.765625 98.292969 214.804688 Z M 288.382812 204.867188 C 287.863281 204.414062 287.34375 203.960938 286.824219 203.503906 C 280.722656 199.542969 274.617188 195.648438 268.511719 191.75 C 254.679688 182.851562 239.871094 176.230469 223.375 174.214844 C 218.765625 173.632812 214.152344 173.175781 209.542969 172.65625 C 209.476562 172.980469 209.414062 173.304688 209.347656 173.632812 C 233.050781 190.0625 257.992188 203.375 288.382812 204.867188 Z M 203.761719 133.625 C 204.414062 133.429688 205.0625 133.171875 205.710938 132.910156 C 210.90625 129.664062 216.101562 126.546875 221.234375 123.167969 C 233.832031 114.855469 245.585938 105.503906 256.042969 94.59375 C 257.796875 92.839844 259.226562 90.828125 260.328125 88.621094 C 261.757812 85.4375 260.328125 83.75 257.015625 84.851562 C 252.277344 86.410156 247.339844 88.035156 243.117188 90.632812 C 228.375 99.53125 217.078125 112 207.917969 126.417969 C 206.554688 128.496094 205.320312 130.832031 203.761719 133.625 Z M 129.792969 114.921875 L 136.417969 124.339844 C 136.675781 123.363281 136.804688 122.648438 137 121.9375 L 137.648438 121.9375 C 137.648438 123.167969 137.78125 124.339844 137.976562 125.574219 C 138.363281 126.804688 138.882812 127.976562 139.597656 129.078125 C 140.832031 131.222656 142.457031 132.847656 145.25 132.78125 C 145.832031 132.78125 146.417969 134.015625 147 134.664062 C 147.457031 135.183594 147.976562 135.703125 148.429688 136.222656 C 144.730469 120.570312 138.300781 106.414062 127.257812 94.398438 L 127.257812 104.726562 L 126.285156 105.636719 C 126.414062 109.402344 130.246094 111.609375 129.792969 114.921875 Z M 155.183594 241.171875 L 154.015625 241.238281 C 153.949219 241.886719 153.949219 242.535156 154.015625 243.1875 C 154.277344 244.484375 154.664062 245.71875 154.859375 247.015625 C 155.378906 250.265625 155.640625 253.578125 156.355469 256.757812 C 157.066406 259.8125 158.433594 262.734375 159.277344 265.785156 C 162.003906 275.851562 165.511719 285.660156 170.707031 294.816406 C 171.617188 296.4375 173.367188 297.542969 174.734375 298.84375 C 170.707031 289.296875 166.03125 280.203125 162.328125 270.785156 C 158.5625 261.238281 156.222656 251.304688 155.183594 241.171875 Z M 192.917969 266.953125 C 193.695312 261.5 187.722656 235.652344 185.125 232.925781 C 186.746094 244.679688 188.4375 256.175781 192.917969 266.953125 Z M 200.191406 256.433594 C 200.839844 249.679688 192.789062 221.949219 189.019531 217.402344 Z M 221.816406 245.394531 C 221.882812 239.355469 217.660156 225.585938 215.191406 223.960938 C 217.464844 231.300781 219.609375 238.316406 221.816406 245.394531 Z M 102.773438 84.65625 C 98.554688 87.125 97.253906 91.800781 99.527344 95.242188 C 100.632812 91.738281 101.671875 88.425781 102.773438 84.65625 Z M 199.605469 214.933594 L 198.695312 215.195312 L 204.671875 235.066406 L 205.453125 234.808594 Z M 214.347656 235.71875 C 213.765625 230.652344 212.855469 225.652344 210.839844 221.039062 L 209.996094 221.300781 C 211.425781 226.105469 212.917969 230.910156 214.347656 235.71875 Z M 120.117188 87.839844 C 118.621094 89.984375 118.621094 93.75 120.117188 96.023438 Z M 192.65625 276.308594 L 193.566406 275.851562 C 192.527344 273.710938 191.421875 271.566406 190.382812 269.421875 L 189.863281 269.683594 C 190.773438 271.890625 191.75 274.097656 192.65625 276.308594 Z M 192.65625 276.308594 " fill-opacity="1" fill-rule="nonzero"/></g></svg>