<svg xmlns="http://www.w3.org/2000/svg" xmlns:xlink="http://www.w3.org/1999/xlink" width="500" zoomAndPan="magnify" viewBox="0 0 375 374.999991" height="500" preserveAspectRatio="xMidYMid meet" version="1.0"><defs><clipPath id="7807a68b11"><path d="M 75 40 L 292 40 L 292 325 L 75 325 Z M 75 40 " clip-rule="nonzero"/></clipPath><clipPath id="21c6df353d"><path d="M 155.886719 -4.1875 L 311.105469 63.910156 L 185.457031 350.308594 L 30.238281 282.210938 Z M 155.886719 -4.1875 " clip-rule="nonzero"/></clipPath><clipPath id="158d1bf537"><path d="M 155.886719 -4.1875 L 311.105469 63.910156 L 185.457031 350.308594 L 30.238281 282.210938 Z M 155.886719 -4.1875 " clip-rule="nonzero"/></clipPath></defs><g clip-path="url(#7807a68b11)"><g clip-path="url(#21c6df353d)"><g clip-path="url(#158d1bf537)"><path fill="#f46647" d="M 122.214844 319.0625 C 120.472656 314.8125 122.917969 309.976562 126.730469 307.8125 C 128.300781 306.921875 130.039062 306.34375 131.660156 305.550781 C 136.972656 303.050781 142.125 300.109375 146.519531 296.175781 C 156.574219 287.078125 163.046875 274.203125 164.210938 260.679688 C 164.925781 251.972656 162.886719 243.363281 160.402344 235.074219 C 143.433594 237.089844 125.851562 235.890625 109.832031 229.667969 C 93.820312 223.4375 77.632812 210.558594 75.21875 192.589844 C 74.15625 183.433594 77.96875 173.402344 85.832031 168.269531 C 91.121094 164.847656 97.492188 163.648438 103.707031 163.585938 C 119.832031 163.550781 134.382812 172.394531 146.375 182.460938 C 157.089844 191.269531 165.8125 202.378906 171.804688 214.886719 C 198.816406 208.0625 222.699219 193.296875 227.703125 163.929688 C 209.992188 168.242188 184.019531 161.554688 170.222656 149.898438 C 154.824219 137.527344 152.066406 116.703125 164.328125 101.078125 C 178.214844 82.703125 206.082031 85.351562 223.007812 97.933594 C 235.234375 107.488281 242.335938 122.386719 245.558594 137.308594 C 254.761719 131.089844 263.644531 122.789062 268.910156 112.992188 C 272.222656 105.816406 274.6875 97.761719 272.546875 89.890625 C 270.390625 82.421875 266.46875 75.453125 261.847656 69.242188 C 258.507812 65.363281 254.746094 61.742188 250.273438 59.191406 C 248.449219 58.304688 246.414062 58.027344 244.542969 57.257812 C 236.867188 54.28125 237.132812 43.40625 245.207031 41.21875 C 255.332031 39.578125 264.347656 46.675781 271.25 53.257812 C 277.578125 59.394531 282.179688 67.066406 285.921875 74.984375 C 287.660156 78.742188 289.226562 82.578125 290.089844 86.648438 C 293.191406 99.875 289.308594 113.777344 282.519531 125.238281 C 273.671875 138.804688 261.03125 149.988281 246.597656 157.320312 C 243.601562 198.28125 216.125 221.730469 178.121094 231.699219 C 180.960938 241.75 183.046875 252.199219 181.992188 262.683594 C 180.304688 281.613281 170.652344 299.664062 155.917969 311.644531 C 151.152344 315.546875 145.78125 318.636719 140.226562 321.273438 C 137.933594 322.308594 135.6875 323.515625 133.265625 324.203125 C 128.972656 325.316406 123.847656 323.394531 122.214844 319.0625 Z M 117.863281 213.566406 C 129.105469 217.554688 141.238281 218.667969 153.089844 217.765625 C 144.523438 201.539062 116.136719 175.410156 96.453125 182.789062 C 93.695312 184.066406 92.902344 187.460938 92.996094 190.25 C 93.230469 194.011719 95.359375 197.277344 97.671875 200.121094 C 102.9375 206.480469 110.160156 210.808594 117.863281 213.566406 Z M 187.3125 140.03125 C 192.898438 143.070312 197.808594 144.5625 203.707031 145.929688 C 212.699219 147.90625 219.800781 147.921875 228.683594 145.308594 C 227.003906 132.132812 220.511719 116.433594 208.371094 109.777344 C 201.027344 106.285156 192.015625 104.074219 184.234375 107.40625 C 177.722656 110.582031 173.550781 118.265625 174.734375 125.460938 C 176.046875 132.109375 181.75 136.761719 187.3125 140.03125 Z M 187.3125 140.03125 " fill-opacity="1" fill-rule="nonzero"/></g></g></g></svg>