<svg xmlns="http://www.w3.org/2000/svg" xmlns:xlink="http://www.w3.org/1999/xlink" width="500" zoomAndPan="magnify" viewBox="0 0 375 374.999991" height="500" preserveAspectRatio="xMidYMid meet" version="1.0"><defs><clipPath id="af3273e5e9"><path d="M 49.222656 66.28125 L 349 66.28125 L 349 301.78125 L 49.222656 301.78125 Z M 49.222656 66.28125 " clip-rule="nonzero"/></clipPath></defs><g clip-path="url(#af3273e5e9)"><path fill="#8d25fc" d="M 192.273438 156.863281 C 192.273438 156.472656 192.273438 156.078125 192.335938 155.6875 C 192.992188 153.199219 193.777344 150.648438 194.363281 148.164062 C 194.824219 146.332031 195.019531 144.503906 195.410156 142.671875 C 195.804688 140.839844 196.128906 139.074219 196.457031 137.242188 C 196.71875 135.867188 196.914062 134.5625 197.113281 133.1875 C 197.4375 130.570312 197.765625 128.019531 198.027344 125.40625 C 198.09375 124.75 198.09375 124.097656 198.15625 123.441406 C 198.15625 122.855469 198.222656 122.332031 198.355469 121.808594 C 198.8125 120.238281 198.355469 118.601562 198.550781 116.96875 C 198.746094 114.613281 198.746094 112.257812 198.617188 109.902344 C 198.550781 107.289062 198.550781 104.671875 198.355469 102.054688 C 198.15625 99.175781 197.832031 96.300781 197.4375 93.421875 C 197.175781 91.984375 196.851562 90.542969 196.390625 89.171875 C 195.933594 87.601562 195.476562 86.03125 195.019531 84.460938 C 194.300781 81.78125 193.054688 79.292969 191.355469 77.136719 C 189.722656 74.976562 187.300781 73.671875 184.621094 73.472656 C 183.636719 73.410156 182.65625 73.148438 181.609375 73.082031 C 179.582031 73.015625 177.554688 73.210938 175.59375 73.671875 C 173.957031 74.0625 172.324219 74.652344 170.820312 75.371094 C 168.988281 76.089844 167.15625 77.003906 165.523438 78.117188 C 164.539062 78.707031 163.429688 79.097656 162.644531 80.078125 C 162.578125 80.144531 162.449219 80.210938 162.382812 80.277344 C 161.597656 80.800781 160.8125 81.257812 160.027344 81.78125 C 159.046875 82.5 158.132812 83.285156 157.214844 84.003906 C 156.757812 84.332031 156.300781 84.65625 155.84375 84.984375 C 154.011719 86.226562 152.769531 88.058594 151.066406 89.433594 C 150.542969 89.890625 150.085938 90.414062 149.695312 91.003906 C 149.300781 91.394531 148.84375 91.722656 148.386719 92.113281 C 148.253906 92.246094 147.992188 92.308594 147.929688 92.507812 C 147.535156 93.75 146.488281 94.46875 145.640625 95.449219 C 144.789062 96.429688 144.132812 97.347656 143.351562 98.328125 C 142.566406 99.308594 141.78125 100.484375 140.929688 101.53125 C 140.40625 102.1875 139.816406 102.710938 139.359375 103.429688 C 138.445312 104.738281 137.660156 106.175781 136.742188 107.484375 C 136.089844 108.398438 135.371094 109.378906 134.78125 110.363281 C 133.867188 111.929688 132.753906 113.304688 131.707031 114.808594 C 131.445312 115.203125 131.25 115.660156 131.054688 116.117188 C 130.074219 117.816406 129.222656 119.519531 128.242188 121.21875 C 127.261719 122.917969 126.28125 124.75 125.429688 126.582031 C 125.035156 127.433594 124.449219 128.152344 123.992188 129 C 123.207031 130.507812 122.484375 132.074219 121.703125 133.644531 C 121.242188 134.625 120.785156 135.605469 120.328125 136.589844 C 119.933594 137.375 119.609375 138.222656 119.28125 139.074219 C 119.085938 139.53125 118.824219 139.988281 118.628906 140.445312 C 118.167969 141.363281 117.777344 142.34375 117.253906 143.257812 C 116.992188 143.71875 116.730469 144.175781 116.402344 144.699219 L 116.601562 144.894531 C 116.011719 146.203125 115.421875 147.445312 114.898438 148.753906 C 114.179688 150.714844 113.394531 152.613281 112.542969 154.574219 C 112.085938 155.6875 111.695312 156.863281 111.433594 158.039062 C 111.367188 158.238281 111.433594 158.433594 111.5 158.628906 C 111.824219 159.21875 111.890625 159.871094 111.695312 160.527344 C 111.628906 160.65625 111.628906 160.789062 111.695312 160.917969 C 112.542969 162.160156 112.21875 163.664062 112.480469 165.039062 C 112.675781 166.414062 112.804688 167.851562 112.804688 169.289062 C 113.003906 171.644531 113.199219 174.066406 113.394531 176.417969 C 113.527344 177.921875 113.527344 179.429688 113.589844 180.933594 C 113.65625 182.761719 113.851562 184.59375 113.851562 186.425781 C 113.851562 188.78125 113.851562 191.136719 113.789062 193.488281 C 113.65625 196.367188 113.460938 199.179688 113.328125 202.058594 C 113.199219 204.609375 113.066406 207.160156 112.804688 209.710938 C 112.609375 211.933594 112.414062 214.089844 112.152344 216.25 C 111.957031 218.015625 111.695312 219.78125 111.433594 221.546875 C 110.910156 225.015625 110.386719 228.480469 109.796875 231.945312 C 109.40625 234.300781 108.949219 236.65625 108.488281 239.011719 C 107.835938 242.214844 107.117188 245.355469 106.398438 248.558594 C 106.332031 248.953125 106.199219 249.277344 106.003906 249.605469 C 105.675781 250 105.480469 250.523438 105.613281 251.042969 C 105.613281 251.632812 105.480469 252.289062 105.285156 252.8125 C 104.5 255.425781 103.714844 258.042969 102.929688 260.660156 C 102.929688 260.722656 102.929688 260.722656 102.863281 260.789062 C 101.6875 262.753906 101.425781 265.042969 100.445312 267.070312 C 99.660156 268.769531 99.070312 270.535156 98.351562 272.234375 C 97.632812 273.9375 96.78125 275.765625 95.996094 277.46875 C 94.820312 280.085938 93.382812 282.503906 91.679688 284.792969 C 91.484375 285.054688 91.355469 285.316406 91.15625 285.644531 C 89.589844 288.0625 87.757812 290.222656 85.140625 291.59375 C 83.441406 292.511719 81.347656 292.183594 79.910156 290.875 C 79.386719 290.351562 78.925781 289.765625 78.664062 289.042969 C 78.140625 287.410156 77.945312 285.644531 78.078125 283.941406 C 78.140625 283.679688 78.207031 283.417969 78.207031 283.15625 C 78.273438 282.960938 78.273438 282.832031 78.207031 282.632812 C 77.75 281.914062 77.621094 281 77.878906 280.148438 C 78.078125 279.5625 77.878906 278.839844 77.878906 278.121094 C 77.945312 276.878906 78.140625 275.570312 78.078125 274.328125 C 78.011719 272.824219 78.140625 271.253906 78.207031 269.75 C 78.273438 268.574219 78.535156 267.460938 78.664062 266.285156 C 78.863281 264.78125 78.925781 263.210938 79.125 261.707031 C 79.253906 260.464844 79.582031 259.21875 79.386719 257.976562 C 79.972656 257.191406 79.648438 256.210938 79.84375 255.363281 C 80.039062 254.511719 80.039062 253.59375 80.234375 252.746094 C 80.757812 250.71875 80.691406 248.625 81.085938 246.597656 C 81.347656 245.484375 81.542969 244.308594 81.675781 243.132812 C 81.738281 241.757812 82.199219 240.449219 82.132812 239.074219 C 82.066406 238.421875 82.199219 237.769531 82.460938 237.179688 C 82.851562 236.328125 82.328125 235.347656 83.046875 234.628906 C 82.785156 233.320312 83.570312 232.144531 83.503906 230.902344 C 83.570312 230.179688 83.703125 229.527344 83.964844 228.808594 C 84.355469 227.566406 84.160156 226.191406 84.8125 224.949219 C 85.207031 224.292969 85.074219 223.3125 85.140625 222.464844 C 85.140625 222.332031 85.140625 222.070312 85.207031 222.003906 C 85.730469 221.417969 85.597656 220.632812 85.664062 220.042969 C 85.792969 218.605469 86.253906 217.230469 86.382812 215.859375 C 86.578125 214.679688 86.777344 213.503906 87.101562 212.324219 C 87.558594 210.429688 87.757812 208.402344 88.214844 206.503906 C 88.605469 204.671875 89.261719 202.90625 89.652344 201.140625 C 89.785156 200.421875 90.308594 199.769531 90.109375 198.917969 C 90.046875 198.589844 90.371094 198.199219 90.503906 197.804688 C 90.765625 197.28125 90.960938 196.695312 91.027344 196.105469 C 90.960938 195.386719 91.484375 194.929688 91.484375 194.40625 C 91.484375 193.359375 92.007812 192.507812 92.269531 191.59375 C 92.597656 190.351562 92.988281 189.109375 93.382812 187.863281 C 93.707031 187.078125 93.96875 186.230469 94.101562 185.378906 C 94.101562 184.988281 94.492188 184.660156 94.625 184.269531 C 94.949219 183.285156 95.277344 182.304688 95.472656 181.257812 C 95.800781 180.210938 96.195312 179.167969 96.585938 178.121094 C 96.847656 177.269531 97.109375 176.417969 97.371094 175.570312 C 97.632812 174.652344 97.960938 173.738281 98.351562 172.820312 C 99.070312 171.054688 99.660156 169.289062 100.117188 167.457031 C 100.378906 166.871094 100.707031 166.28125 101.035156 165.691406 C 101.164062 165.429688 101.164062 165.167969 101.230469 164.910156 C 101.230469 164.710938 101.164062 164.386719 101.230469 164.320312 C 102.015625 163.863281 101.753906 162.945312 102.082031 162.292969 C 102.40625 161.636719 102.40625 160.722656 102.863281 160.199219 C 103.519531 159.414062 103.453125 158.5 103.847656 157.648438 C 104.632812 155.882812 104.566406 155.816406 104.238281 153.984375 C 103.585938 150.585938 102.472656 147.25 100.96875 144.109375 C 100.707031 143.652344 100.378906 143.257812 100.050781 142.867188 C 99.855469 142.605469 99.660156 142.34375 99.398438 142.148438 C 99.203125 141.886719 98.941406 141.625 98.613281 141.429688 C 97.175781 140.707031 95.472656 140.578125 93.90625 141.035156 C 92.140625 141.558594 90.503906 142.34375 89 143.457031 C 87.234375 144.566406 85.597656 145.941406 84.226562 147.578125 C 83.503906 148.425781 82.589844 149.210938 81.804688 149.996094 C 80.496094 151.433594 79.320312 153.003906 78.339844 154.640625 C 77.554688 155.882812 76.636719 157.058594 75.917969 158.367188 C 74.871094 160.199219 73.890625 162.160156 72.84375 163.992188 C 71.996094 165.367188 71.273438 166.871094 70.75 168.375 C 70.425781 169.09375 70.097656 169.8125 69.640625 170.53125 C 68.921875 172.039062 68.265625 173.605469 67.546875 175.175781 C 66.828125 176.746094 66.171875 178.25 65.519531 179.753906 C 65.390625 180.148438 65.191406 180.472656 65.0625 180.867188 C 64.539062 182.238281 64.082031 183.613281 63.558594 184.988281 C 63.097656 186.035156 62.707031 187.144531 62.378906 188.257812 C 62.183594 189.171875 61.726562 189.957031 61.59375 190.9375 C 61.398438 192.3125 60.679688 193.621094 60.222656 194.929688 C 60.027344 195.515625 59.894531 196.171875 59.765625 196.824219 C 59.566406 197.871094 59.371094 198.917969 59.175781 200.03125 C 59.042969 200.816406 58.980469 201.664062 58.78125 202.449219 C 58.324219 204.019531 58.0625 205.589844 57.933594 207.222656 C 57.933594 207.421875 57.867188 207.617188 57.738281 207.8125 C 57.476562 208.335938 57.34375 208.925781 57.34375 209.578125 C 57.214844 211.34375 56.953125 213.046875 56.753906 214.8125 C 56.558594 216.578125 56.429688 218.34375 56.296875 220.109375 C 56.230469 221.679688 56.363281 223.3125 56.296875 224.882812 C 56.230469 226.910156 56.296875 228.9375 56.558594 230.902344 C 56.820312 233.191406 57.34375 235.542969 57.671875 237.832031 C 58 239.859375 58.257812 241.886719 58.457031 243.914062 C 58.585938 245.355469 56.886719 247.121094 55.578125 247.1875 C 54.597656 247.121094 53.679688 246.664062 53.027344 245.878906 C 52.308594 245.027344 51.851562 243.980469 51.785156 242.871094 C 51.652344 241.757812 51.261719 240.644531 51.066406 239.535156 C 50.738281 238.226562 50.542969 236.917969 50.542969 235.609375 C 50.542969 234.628906 50.410156 233.648438 50.148438 232.730469 C 49.5625 230.507812 49.625 228.21875 49.691406 225.996094 C 49.691406 225.277344 49.5625 224.554688 49.5625 223.902344 C 49.5625 222.265625 49.5625 220.632812 49.496094 218.929688 C 50.148438 218.148438 49.234375 217.101562 49.953125 216.316406 C 49.691406 215.464844 50.019531 214.613281 50.085938 213.765625 C 50.019531 212.980469 50.148438 212.261719 50.410156 211.542969 C 50.542969 211.148438 50.609375 210.691406 50.609375 210.234375 C 50.671875 209.839844 50.671875 209.449219 50.738281 209.054688 C 50.867188 208.269531 51.128906 207.421875 51.261719 206.636719 C 51.261719 206.503906 51.066406 206.308594 51.066406 206.375 C 51.261719 205.328125 51.457031 204.476562 51.589844 203.628906 C 51.652344 203.039062 51.523438 202.449219 52.046875 201.992188 C 52.175781 201.859375 52.175781 201.664062 52.175781 201.535156 C 51.980469 199.832031 52.765625 198.199219 52.832031 196.5 C 52.832031 196.300781 52.898438 196.105469 53.027344 195.910156 C 53.679688 195.125 53.617188 194.078125 53.746094 193.164062 C 53.8125 192.574219 54.007812 192.050781 54.203125 191.527344 C 54.792969 190.21875 54.925781 188.714844 55.382812 187.339844 C 55.449219 187.082031 55.96875 186.882812 55.96875 186.6875 C 55.96875 186.492188 55.707031 186.097656 56.101562 185.835938 C 56.167969 185.773438 56.230469 185.707031 56.230469 185.640625 C 56.035156 184.269531 57.082031 183.222656 57.34375 181.980469 C 57.410156 181.71875 57.476562 181.519531 57.605469 181.324219 C 58.195312 180.34375 58.585938 179.296875 58.847656 178.25 C 59.371094 176.417969 60.484375 174.851562 60.941406 172.953125 C 61.203125 171.777344 61.988281 170.730469 62.578125 169.683594 C 63.035156 168.765625 63.753906 167.917969 64.015625 167 C 64.210938 166.152344 64.539062 165.367188 64.996094 164.582031 C 65.648438 163.535156 66.171875 162.488281 66.695312 161.375 C 67.21875 160.265625 67.875 159.347656 68.332031 158.238281 C 69.050781 156.796875 69.835938 155.488281 70.6875 154.117188 C 71.273438 153.070312 71.863281 152.089844 72.582031 151.109375 C 73.433594 149.867188 74.285156 148.621094 75.199219 147.445312 C 76.375 145.941406 77.621094 144.566406 78.863281 143.128906 C 79.582031 142.34375 80.367188 141.625 81.152344 140.96875 C 81.9375 140.316406 82.71875 139.726562 83.503906 139.140625 C 86.121094 137.175781 88.804688 135.28125 92.074219 134.429688 C 93.578125 133.972656 95.148438 133.90625 96.652344 134.101562 C 97.5 134.234375 98.417969 134.167969 99.269531 134.234375 C 99.789062 134.300781 100.25 134.496094 100.707031 134.757812 C 101.6875 135.347656 102.601562 135.933594 103.519531 136.589844 C 104.433594 137.308594 105.21875 138.222656 105.675781 139.269531 C 105.9375 139.726562 106.265625 140.1875 106.59375 140.644531 C 107.574219 141.886719 107.902344 143.390625 108.488281 144.828125 C 108.554688 145.027344 108.6875 145.222656 108.882812 145.546875 C 109.273438 144.4375 109.730469 143.324219 110.253906 142.277344 C 110.976562 141.101562 110.84375 139.53125 111.890625 138.484375 C 112.347656 138.027344 112.414062 137.175781 112.675781 136.523438 C 112.871094 136 113.132812 135.476562 113.460938 135.019531 C 113.722656 134.5625 113.460938 133.839844 114.246094 133.644531 C 114.636719 132.664062 114.964844 131.617188 115.421875 130.636719 C 115.878906 129.589844 116.339844 128.609375 116.925781 127.628906 C 117.449219 126.84375 117.582031 125.863281 118.429688 125.40625 C 118.496094 125.40625 118.496094 125.339844 118.496094 125.273438 C 118.5625 123.574219 119.804688 122.394531 120.394531 120.890625 C 120.980469 119.648438 121.636719 118.40625 122.355469 117.164062 C 123.007812 115.855469 123.792969 114.546875 124.710938 113.371094 C 125.167969 112.847656 125.496094 112.191406 125.757812 111.539062 C 126.671875 109.578125 127.847656 107.679688 129.15625 105.980469 C 129.746094 105.128906 130.335938 104.214844 130.988281 103.429688 C 131.902344 102.316406 132.363281 100.945312 133.539062 99.960938 C 134.128906 99.308594 134.585938 98.65625 134.976562 97.871094 C 135.828125 96.496094 136.875 95.253906 137.855469 94.011719 C 138.835938 92.769531 140.078125 91.460938 141.191406 90.21875 C 142.628906 88.515625 143.9375 86.554688 145.769531 85.179688 C 146.097656 84.984375 146.421875 84.789062 146.816406 84.59375 C 146.882812 83.808594 147.667969 83.21875 148.320312 82.628906 C 149.234375 81.84375 149.957031 80.996094 150.9375 80.277344 C 151.65625 79.753906 152.179688 78.96875 153.09375 78.640625 C 153.683594 78.378906 154.140625 77.988281 154.46875 77.527344 C 155.320312 76.417969 156.625 75.828125 157.738281 75.042969 C 159.308594 73.933594 161.007812 72.886719 162.644531 71.902344 C 165.261719 70.335938 168.007812 69.027344 170.949219 68.109375 C 173.566406 67.324219 176.246094 66.738281 178.929688 66.34375 C 179.058594 66.28125 179.191406 66.28125 179.320312 66.28125 C 182.59375 66.476562 185.925781 66.476562 189.066406 67.71875 C 191.160156 68.4375 193.054688 69.613281 194.625 71.183594 C 196.066406 72.6875 197.242188 74.324219 198.15625 76.15625 C 198.289062 76.546875 198.617188 76.808594 198.746094 77.203125 C 199.007812 77.660156 199.464844 78.050781 199.402344 78.707031 C 199.335938 78.96875 199.597656 79.230469 199.726562 79.492188 C 200.578125 81.386719 201.296875 83.285156 201.820312 85.3125 C 202.738281 88.515625 203.390625 91.785156 203.78125 95.121094 C 204.371094 99.046875 204.699219 102.972656 204.765625 106.960938 C 204.828125 108.855469 204.960938 110.6875 205.027344 112.585938 C 205.027344 113.695312 204.894531 114.742188 204.894531 115.855469 C 204.828125 117.292969 204.828125 118.734375 204.828125 120.238281 C 204.765625 123.117188 204.503906 125.992188 204.042969 128.871094 C 203.71875 131.289062 203.324219 133.710938 203.0625 136.128906 C 202.738281 139.203125 202.082031 142.214844 201.429688 145.289062 C 200.90625 147.773438 200.382812 150.324219 199.792969 152.808594 C 199.335938 154.640625 198.746094 156.40625 198.222656 158.238281 C 197.765625 159.808594 197.308594 161.375 196.851562 163.078125 C 197.375 163.011719 197.894531 162.816406 198.355469 162.421875 C 199.074219 161.835938 199.792969 161.375 200.578125 160.917969 C 202.082031 159.9375 203.519531 158.957031 205.027344 158.039062 C 207.25 156.667969 209.605469 155.359375 211.695312 153.855469 C 213.527344 152.546875 215.621094 151.761719 217.515625 150.519531 C 218.433594 150.0625 219.347656 149.605469 220.265625 149.277344 C 222.421875 148.230469 224.582031 147.054688 226.738281 146.070312 C 228.703125 145.15625 230.664062 144.304688 232.625 143.519531 C 235.371094 142.476562 238.121094 141.429688 240.867188 140.511719 C 242.4375 139.988281 244.070312 139.597656 245.640625 139.140625 C 246.492188 138.878906 247.339844 138.550781 248.191406 138.289062 C 250.351562 137.699219 252.507812 137.175781 254.667969 136.652344 C 257.742188 135.933594 260.816406 135.28125 263.824219 134.5625 C 267.8125 133.578125 271.867188 133.1875 275.921875 132.597656 C 277.625 132.273438 279.324219 132.207031 281.023438 132.402344 C 282.398438 132.597656 283.769531 132.402344 285.144531 132.46875 C 286.648438 132.46875 288.089844 132.730469 289.460938 133.316406 C 290.246094 133.578125 291.03125 133.972656 291.75 134.363281 C 292.273438 134.691406 292.535156 135.347656 293.058594 135.738281 C 294.628906 137.046875 295.28125 139.007812 296.199219 140.707031 C 296.523438 141.429688 296.722656 142.214844 296.785156 143.0625 C 297.308594 145.679688 297.441406 148.296875 297.246094 150.976562 C 296.917969 153.789062 296.589844 156.667969 296.066406 159.480469 C 295.871094 161.050781 295.414062 162.488281 294.695312 163.863281 C 294.300781 164.710938 293.972656 165.628906 293.710938 166.542969 C 293.449219 167.261719 293.125 167.980469 292.730469 168.636719 C 291.488281 171.054688 290.3125 173.542969 289.003906 175.894531 C 288.21875 177.335938 287.695312 178.839844 286.648438 180.148438 C 285.800781 181.195312 285.277344 182.566406 284.554688 183.746094 C 283.707031 185.117188 282.789062 186.492188 281.875 187.800781 C 280.828125 189.433594 279.78125 191.070312 278.667969 192.769531 C 277.886719 194.011719 277.035156 195.253906 276.183594 196.5 C 274.679688 198.789062 272.980469 200.878906 271.28125 203.039062 C 269.839844 204.804688 268.664062 206.765625 267.355469 208.664062 C 266.699219 209.578125 265.917969 210.496094 265.195312 211.410156 C 263.691406 213.371094 262.253906 215.398438 260.683594 217.296875 C 259.308594 219.128906 257.804688 220.828125 256.367188 222.59375 C 255.910156 223.183594 255.320312 223.707031 254.796875 224.230469 L 254.929688 224.492188 C 255.910156 224.230469 256.890625 224.097656 257.871094 223.773438 C 258.851562 223.445312 259.570312 223.050781 260.488281 222.726562 C 261.925781 222.265625 263.429688 221.808594 264.933594 221.480469 C 266.242188 221.023438 267.550781 220.632812 268.859375 220.371094 C 269.644531 220.175781 270.496094 219.847656 271.214844 219.519531 C 273.371094 218.867188 275.464844 218.210938 277.625 217.558594 C 278.410156 217.296875 279.191406 217.035156 280.042969 216.773438 C 280.5 216.640625 280.960938 216.445312 281.417969 216.316406 C 282.789062 215.921875 284.230469 215.464844 285.601562 215.074219 C 287.566406 214.550781 289.59375 214.027344 291.621094 213.503906 C 292.40625 213.308594 293.253906 213.109375 294.105469 212.980469 C 296.984375 212.457031 299.796875 211.605469 302.738281 211.410156 C 303.652344 211.28125 304.570312 211.082031 305.421875 210.757812 C 306.335938 210.558594 307.25 210.363281 308.167969 210.234375 C 310.261719 209.972656 312.289062 209.511719 314.378906 209.1875 C 315.492188 208.992188 316.605469 208.859375 317.714844 208.664062 C 318.371094 208.53125 319.023438 208.335938 319.742188 208.207031 C 321.050781 208.007812 322.359375 207.945312 323.601562 207.746094 C 324.257812 207.683594 324.84375 207.484375 325.5 207.355469 C 326.023438 207.289062 326.546875 207.289062 327.070312 207.222656 C 328.574219 207.027344 330.011719 206.832031 331.515625 206.699219 C 333.871094 206.570312 336.226562 206.375 338.515625 206.441406 C 340.410156 206.441406 342.308594 206.179688 344.269531 206.570312 C 345.96875 206.832031 347.410156 207.945312 348.0625 209.449219 C 348.980469 211.476562 347.539062 213.046875 345.511719 213.503906 C 344.074219 213.765625 342.570312 213.832031 341.128906 213.570312 C 340.019531 213.4375 338.972656 213.4375 337.859375 213.503906 C 336.09375 213.570312 334.328125 213.765625 332.5625 213.894531 C 331.777344 213.960938 330.925781 214.15625 330.144531 214.222656 C 329.816406 214.222656 329.488281 214.15625 329.160156 214.222656 C 326.871094 214.484375 324.582031 214.679688 322.230469 214.941406 C 320.136719 215.136719 318.109375 215.464844 316.015625 215.921875 C 314.054688 216.445312 312.027344 216.445312 310.128906 216.96875 C 308.167969 217.492188 306.140625 217.886719 304.175781 218.148438 C 300.839844 218.605469 297.570312 219.519531 294.234375 219.976562 C 292.929688 220.238281 291.621094 220.632812 290.378906 221.089844 C 288.675781 221.546875 287.042969 222.003906 285.339844 222.464844 C 284.03125 222.855469 282.726562 223.117188 281.417969 223.574219 C 279.128906 224.359375 276.773438 225.210938 274.417969 225.863281 C 273.175781 226.191406 272.0625 226.714844 270.820312 227.042969 C 269.710938 227.238281 268.597656 227.566406 267.550781 228.023438 C 267.222656 228.21875 266.699219 228.089844 266.242188 228.285156 C 265.457031 228.546875 264.671875 228.9375 263.886719 229.199219 C 262.382812 229.65625 260.878906 230.117188 259.308594 230.574219 C 258.527344 230.703125 257.804688 231.03125 257.21875 231.554688 C 256.824219 232.011719 256.171875 231.75 255.648438 232.011719 C 254.796875 232.40625 253.816406 232.730469 252.902344 233.125 C 251.527344 233.714844 250.152344 234.234375 248.714844 234.695312 C 248.191406 234.824219 247.667969 234.890625 247.144531 234.890625 C 246.558594 235.28125 246.097656 235.804688 245.574219 235.871094 C 244.921875 236.003906 244.332031 236.394531 243.875 236.917969 C 241.78125 239.207031 239.753906 241.496094 237.660156 243.851562 C 237.007812 244.570312 236.355469 245.222656 235.699219 245.945312 C 234 247.710938 232.363281 249.539062 230.53125 251.109375 C 229.289062 252.222656 228.242188 253.398438 227.132812 254.578125 C 226.019531 255.753906 224.84375 256.867188 223.664062 258.042969 C 222.226562 259.417969 220.851562 260.789062 219.414062 262.164062 C 217.976562 263.535156 216.535156 264.910156 214.964844 266.152344 C 213.070312 267.789062 211.109375 269.292969 209.210938 270.863281 C 208.164062 271.710938 207.183594 272.695312 206.203125 273.609375 C 206.007812 273.804688 205.941406 274.261719 205.484375 273.9375 C 205.417969 273.9375 205.285156 274 205.222656 274.066406 C 204.175781 275.179688 203.0625 276.226562 201.820312 277.074219 C 199.664062 278.90625 197.242188 280.28125 194.953125 281.914062 C 192.273438 283.8125 189.589844 285.644531 186.777344 287.410156 C 184.75 288.71875 182.59375 289.894531 180.433594 290.941406 C 179.320312 291.398438 178.40625 292.117188 177.292969 292.640625 C 175.265625 293.6875 173.238281 294.667969 171.144531 295.648438 C 169.054688 296.632812 167.027344 297.613281 165 298.460938 C 163.625 299.050781 162.121094 299.445312 160.683594 299.902344 C 159.4375 300.292969 158.132812 300.6875 156.824219 300.949219 C 156.429688 301.011719 156.101562 301.144531 155.710938 301.273438 L 155.058594 300.75 C 154.925781 300.75 154.796875 300.75 154.796875 300.816406 C 154.535156 301.273438 154.074219 301.472656 153.617188 301.472656 C 152.507812 301.472656 151.394531 301.734375 150.21875 301.734375 C 148.582031 301.667969 146.882812 301.535156 145.246094 301.273438 C 142.5 300.816406 140.472656 298.460938 140.40625 295.714844 C 140.40625 294.34375 140.539062 293.035156 140.929688 291.726562 C 141.320312 290.285156 142.238281 289.242188 142.828125 287.996094 C 143.414062 286.753906 144.59375 285.773438 145.441406 284.726562 C 146.621094 283.355469 147.929688 282.113281 149.300781 280.933594 C 151.003906 279.429688 152.769531 277.992188 154.535156 276.617188 C 155.90625 275.570312 157.347656 274.589844 158.71875 273.609375 C 160.222656 272.496094 161.726562 271.253906 163.234375 270.207031 C 164.277344 269.488281 165.457031 268.898438 166.566406 268.246094 C 167.027344 267.984375 167.550781 267.332031 168.007812 267.394531 C 168.855469 267.460938 168.988281 266.675781 169.578125 266.480469 C 170.164062 266.347656 170.753906 266.023438 171.277344 265.628906 C 172.976562 263.863281 175.070312 262.816406 177.097656 261.640625 C 179.453125 260.203125 181.808594 258.761719 184.160156 257.324219 C 184.683594 256.996094 185.207031 256.800781 185.664062 256.539062 C 187.628906 255.492188 189.589844 254.511719 191.550781 253.464844 C 192.011719 253.203125 192.402344 252.613281 192.859375 252.550781 C 193.777344 252.484375 194.101562 251.632812 194.886719 251.371094 C 195.671875 251.109375 196.390625 250.785156 197.113281 250.390625 C 198.222656 249.800781 199.269531 249.148438 200.382812 248.558594 C 201.753906 247.839844 203.128906 246.988281 204.566406 246.335938 C 206.070312 245.683594 207.574219 244.960938 208.949219 244.046875 C 209.996094 243.457031 211.109375 242.933594 212.285156 242.476562 C 213.398438 241.953125 214.574219 241.496094 215.6875 240.90625 C 217.515625 240.058594 219.285156 239.011719 221.179688 238.355469 C 222.945312 237.769531 224.386719 236.589844 226.085938 235.9375 C 226.738281 235.675781 227.394531 235.414062 227.980469 235.152344 C 228.898438 234.757812 229.8125 234.300781 230.730469 233.910156 C 232.167969 233.320312 233.671875 232.730469 235.109375 232.144531 C 236.679688 231.488281 238.316406 230.902344 239.886719 230.246094 C 240.539062 229.855469 241.128906 229.394531 241.71875 228.9375 C 242.238281 228.675781 242.566406 228.21875 242.632812 227.628906 C 242.699219 227.367188 242.828125 227.105469 243.089844 226.976562 C 244.527344 226.324219 245.25 224.949219 246.230469 223.835938 C 246.753906 223.25 247.078125 222.464844 247.601562 221.808594 C 247.863281 221.484375 248.191406 221.222656 248.519531 221.023438 C 249.238281 220.699219 249.828125 220.109375 250.089844 219.324219 C 250.152344 219.0625 250.21875 218.734375 250.675781 218.800781 C 250.808594 218.800781 250.875 218.734375 250.9375 218.605469 C 251.265625 217.230469 252.640625 216.640625 253.164062 215.398438 C 253.425781 214.746094 254.207031 214.351562 254.863281 213.832031 C 255.320312 213.371094 255.714844 212.847656 255.976562 212.324219 C 256.757812 211.28125 257.609375 210.296875 258.394531 209.316406 C 258.851562 208.792969 259.246094 208.207031 259.636719 207.683594 C 261.925781 204.609375 264.214844 201.601562 266.4375 198.527344 C 267.617188 196.890625 268.597656 195.125 269.773438 193.488281 C 270.953125 191.855469 272.261719 190.285156 273.4375 188.648438 C 273.960938 187.929688 274.417969 187.144531 274.875 186.359375 C 275.335938 185.574219 275.660156 184.921875 276.121094 184.269531 C 276.578125 183.679688 276.902344 182.960938 277.101562 182.175781 C 277.101562 181.980469 277.230469 181.78125 277.363281 181.652344 C 278.277344 181.257812 278.472656 180.410156 278.996094 179.691406 C 279.324219 179.167969 279.714844 178.578125 280.109375 178.054688 C 281.023438 176.617188 281.808594 175.109375 282.398438 173.542969 C 282.464844 173.28125 282.660156 173.019531 282.855469 172.820312 C 284.164062 171.382812 284.816406 169.550781 285.667969 167.851562 C 286.519531 166.152344 287.304688 164.515625 288.023438 162.75 C 288.351562 162.03125 288.546875 161.3125 288.742188 160.589844 C 289.003906 159.675781 289.394531 158.824219 289.59375 157.84375 C 289.984375 155.949219 290.3125 153.984375 290.441406 152.089844 C 290.640625 150.585938 290.703125 149.144531 290.703125 147.640625 C 290.703125 145.679688 290.246094 143.71875 289.332031 142.015625 C 288.871094 140.839844 287.761719 140.054688 286.519531 139.925781 C 284.882812 139.792969 283.3125 139.402344 281.679688 139.203125 C 280.960938 139.203125 280.238281 139.203125 279.519531 139.335938 C 277.164062 139.597656 274.8125 140.054688 272.457031 140.121094 C 270.691406 140.1875 269.121094 140.839844 267.421875 141.035156 C 266.113281 141.167969 264.804688 141.429688 263.496094 141.691406 C 261.730469 142.082031 259.964844 142.539062 258.199219 142.933594 C 257.414062 143.128906 256.628906 143.195312 255.910156 143.390625 C 254.992188 143.652344 254.011719 143.914062 253.097656 144.175781 C 252.441406 144.371094 251.855469 144.566406 251.199219 144.699219 C 249.171875 145.15625 247.210938 145.746094 245.3125 146.464844 C 244.269531 146.855469 243.089844 146.988281 242.042969 147.445312 C 240.996094 147.902344 239.949219 147.839844 238.96875 148.492188 C 238.121094 148.949219 237.269531 149.277344 236.355469 149.539062 C 235.503906 149.867188 234.652344 150.128906 233.804688 150.453125 C 232.820312 150.847656 231.839844 151.238281 230.859375 151.632812 C 230.335938 151.828125 229.878906 152.089844 229.355469 152.351562 C 228.113281 152.9375 226.871094 153.59375 225.628906 154.183594 C 223.339844 155.292969 221.113281 156.472656 218.824219 157.582031 C 217.714844 158.238281 216.535156 158.890625 215.292969 159.414062 C 213.984375 160.003906 212.742188 160.722656 211.632812 161.636719 C 210.78125 162.226562 209.867188 162.816406 208.949219 163.339844 C 208.492188 163.601562 208.097656 163.925781 207.640625 164.1875 C 206.988281 164.777344 206.269531 165.300781 205.484375 165.691406 C 204.828125 165.953125 204.632812 166.609375 203.980469 166.804688 C 203.390625 167.132812 202.800781 167.523438 202.277344 167.980469 C 201.429688 168.570312 200.511719 169.160156 199.664062 169.75 C 199.074219 170.140625 198.484375 170.597656 197.894531 171.054688 C 196.851562 171.777344 195.933594 172.496094 194.953125 173.28125 C 193.578125 174.589844 191.945312 175.632812 191.226562 177.464844 C 190.832031 178.382812 190.503906 179.296875 190.179688 180.148438 C 188.804688 183.417969 187.433594 186.621094 186.058594 189.890625 C 185.207031 191.921875 184.359375 193.949219 183.375 195.910156 C 182.789062 197.152344 182.070312 198.265625 181.546875 199.441406 C 181.152344 200.226562 180.957031 201.140625 180.628906 201.992188 C 180.304688 202.84375 179.84375 203.757812 179.386719 204.671875 C 178.339844 206.832031 177.230469 208.992188 176.183594 211.148438 C 175.722656 212.0625 175.398438 212.914062 174.941406 213.832031 C 173.175781 217.363281 171.40625 220.894531 169.578125 224.425781 C 167.875 227.628906 166.042969 230.703125 164.34375 233.84375 C 164.015625 234.5625 163.558594 235.28125 162.90625 235.804688 C 162.773438 235.871094 162.773438 236.132812 162.644531 236.261719 C 162.25 236.984375 161.859375 237.769531 161.464844 238.488281 C 161.203125 238.945312 160.8125 239.402344 160.550781 239.859375 C 159.765625 241.234375 158.785156 242.609375 157.738281 243.785156 C 157.609375 243.914062 157.542969 244.046875 157.476562 244.175781 C 155.972656 246.335938 154.535156 248.558594 152.898438 250.652344 C 151.523438 252.484375 149.957031 254.183594 148.453125 255.882812 C 147.273438 257.257812 146.03125 258.632812 144.722656 259.875 C 143.414062 261.183594 141.84375 262.164062 140.078125 262.816406 C 138.773438 263.273438 137.332031 263.078125 136.222656 262.230469 C 135.960938 262.03125 135.761719 261.769531 135.632812 261.445312 C 134.78125 259.875 134.257812 258.175781 134.128906 256.40625 C 134.0625 254.511719 133.867188 252.613281 134.257812 250.71875 C 134.257812 250.324219 134.257812 249.933594 134.257812 249.539062 C 134.390625 248.296875 134.519531 246.988281 134.714844 245.746094 C 134.714844 245.683594 134.714844 245.683594 134.714844 245.617188 C 135.699219 244.375 135.175781 242.804688 135.566406 241.429688 C 136.15625 239.402344 136.613281 237.375 137.527344 235.480469 C 137.660156 235.21875 137.59375 234.824219 137.726562 234.496094 C 138.183594 233.710938 138.574219 232.863281 138.96875 232.011719 C 139.230469 231.164062 139.6875 230.441406 140.015625 229.59375 C 140.472656 228.480469 140.929688 227.367188 141.582031 226.324219 C 142.5 224.753906 143.21875 223.117188 144.070312 221.480469 C 144.460938 220.761719 144.917969 220.042969 145.378906 219.390625 C 146.03125 218.539062 146.554688 217.625 147.011719 216.640625 C 147.535156 215.660156 148.125 214.679688 148.84375 213.765625 C 150.019531 212.0625 151.199219 210.296875 152.375 208.597656 C 153.03125 207.683594 153.75 206.832031 154.402344 205.917969 C 154.859375 205.195312 155.382812 204.542969 155.90625 203.890625 C 157.148438 202.382812 158.394531 200.816406 159.636719 199.3125 C 160.746094 198.003906 162.054688 196.824219 162.972656 195.386719 C 163.886719 193.949219 165.195312 192.902344 166.175781 191.527344 C 166.894531 190.675781 167.679688 189.890625 168.53125 189.109375 C 168.988281 188.648438 169.378906 188.0625 169.839844 187.539062 C 171.015625 186.164062 172.257812 184.855469 173.632812 183.613281 C 174.285156 183.089844 174.808594 182.242188 175.527344 181.585938 C 176.769531 180.472656 177.882812 179.296875 179.125 178.121094 C 180.5 176.8125 181.9375 175.4375 183.3125 174.128906 C 184.160156 173.410156 185.011719 172.691406 185.863281 171.972656 C 186.1875 171.710938 186.449219 171.382812 186.582031 171.054688 C 188.019531 167.132812 189.722656 163.273438 190.765625 159.21875 C 190.898438 158.695312 191.027344 158.171875 191.289062 157.714844 C 191.878906 157.125 192.140625 156.996094 192.273438 156.863281 Z M 106.460938 171.449219 C 106.003906 172.296875 105.613281 173.214844 105.351562 174.195312 C 105.089844 175.308594 104.761719 176.417969 104.371094 177.53125 C 104.304688 177.726562 104.171875 177.859375 104.042969 178.054688 C 103.976562 178.25 103.78125 178.445312 103.847656 178.578125 C 104.042969 178.96875 103.847656 179.167969 103.648438 179.429688 C 103.386719 179.753906 103.257812 180.148438 103.191406 180.539062 C 103.0625 181.914062 102.40625 183.15625 101.882812 184.398438 C 101.558594 185.183594 101.296875 185.96875 101.097656 186.753906 C 100.835938 187.800781 100.640625 188.847656 100.3125 189.890625 C 100.117188 190.546875 99.726562 191.136719 99.59375 191.789062 C 99.464844 192.441406 98.679688 193.03125 99.136719 193.816406 C 98.613281 195.648438 98.089844 197.414062 97.566406 199.246094 C 97.109375 200.878906 96.390625 202.449219 96.390625 204.214844 C 96.390625 204.28125 96.390625 204.347656 96.390625 204.476562 C 95.472656 206.046875 95.605469 207.945312 95.015625 209.644531 C 94.558594 211.28125 94.230469 212.847656 93.96875 214.484375 C 93.707031 215.660156 93.445312 216.773438 93.183594 217.886719 C 92.859375 219.519531 92.660156 221.222656 92.398438 222.855469 C 92.140625 224.03125 91.941406 225.210938 91.8125 226.453125 C 91.746094 227.628906 91.027344 228.742188 91.222656 229.917969 C 91.222656 229.917969 91.222656 229.984375 91.15625 230.050781 C 90.699219 230.769531 90.894531 231.621094 90.632812 232.339844 C 90.371094 233.453125 90.242188 234.628906 90.109375 235.742188 C 90.109375 236.199219 90.046875 236.65625 89.914062 237.046875 C 89.457031 237.832031 89.589844 238.617188 89.523438 239.402344 C 89.457031 240.515625 89.195312 241.625 89 242.738281 C 88.867188 243.71875 88.671875 244.636719 88.476562 245.550781 C 88.28125 246.464844 88.214844 247.578125 88.019531 248.625 C 87.757812 250.523438 87.363281 252.417969 87.167969 254.378906 C 86.972656 256.34375 86.777344 258.238281 86.382812 260.136719 C 86.1875 261.183594 86.121094 262.292969 85.992188 263.339844 C 85.859375 265.042969 85.792969 266.808594 85.53125 268.507812 C 85.335938 269.816406 85.664062 271.125 85.074219 272.367188 C 85.269531 274.328125 84.878906 276.289062 84.878906 278.253906 C 84.878906 279.429688 84.945312 280.605469 85.007812 282.113281 C 85.402344 281.851562 85.730469 281.589844 86.054688 281.261719 C 86.839844 280.148438 87.558594 278.972656 88.34375 277.792969 C 89.195312 276.421875 89.523438 274.785156 90.4375 273.476562 C 91.289062 272.105469 91.941406 270.730469 92.53125 269.226562 C 93.578125 266.808594 94.492188 264.320312 95.539062 261.902344 C 95.800781 261.183594 96.128906 260.464844 96.390625 259.742188 C 96.980469 257.847656 97.5 255.949219 98.023438 254.054688 C 98.351562 253.007812 98.679688 251.960938 99.007812 250.914062 C 99.789062 247.90625 100.574219 244.960938 101.359375 241.953125 C 101.492188 241.363281 101.753906 240.777344 101.882812 240.1875 C 102.210938 238.550781 102.339844 236.917969 102.734375 235.28125 C 103.191406 233.125 103.324219 230.964844 103.847656 228.808594 C 104.304688 226.78125 104.5 224.6875 104.761719 222.660156 C 105.351562 218.605469 105.875 214.484375 106.398438 210.363281 C 106.527344 209.121094 106.460938 207.8125 106.59375 206.570312 C 106.789062 204.410156 107.117188 202.1875 107.246094 200.03125 C 107.378906 197.871094 107.3125 195.515625 107.378906 193.226562 C 107.507812 188.714844 107.441406 184.269531 107.3125 179.753906 C 107.246094 178.644531 107.050781 177.597656 107.050781 176.484375 C 107.117188 174.980469 106.921875 173.214844 106.460938 171.449219 Z M 229.8125 241.824219 C 229.09375 241.953125 228.441406 242.148438 227.785156 242.410156 C 226.804688 242.871094 225.824219 243.390625 224.90625 243.851562 C 224.1875 244.308594 223.46875 244.699219 222.683594 245.027344 C 220.460938 245.746094 218.628906 247.054688 216.535156 247.972656 C 215.882812 248.296875 215.226562 248.625 214.574219 248.886719 C 212.546875 249.605469 210.519531 250.523438 208.621094 251.632812 C 207.707031 252.15625 206.792969 252.613281 205.875 253.074219 C 204.828125 253.59375 203.78125 254.054688 202.734375 254.640625 C 201.691406 255.230469 200.644531 255.882812 199.597656 256.40625 C 198.550781 256.929688 197.699219 257.585938 196.652344 258.042969 C 195.148438 258.695312 193.839844 259.875 192.335938 260.527344 C 190.375 261.378906 188.542969 262.492188 186.648438 263.535156 C 185.144531 264.386719 183.769531 265.367188 182.265625 266.21875 C 181.21875 266.871094 180.171875 267.394531 179.125 267.984375 C 177.621094 268.835938 176.246094 269.945312 174.742188 270.925781 C 172.652344 272.300781 170.492188 273.675781 168.335938 274.984375 C 167.222656 275.703125 166.042969 276.355469 164.933594 277.140625 C 163.167969 278.382812 161.464844 279.757812 159.699219 281.066406 C 158.652344 281.851562 157.738281 282.832031 156.5625 283.550781 C 155.777344 284.074219 155.320312 284.925781 154.597656 285.316406 C 153.160156 286.167969 152.113281 287.410156 150.9375 288.585938 C 149.628906 289.828125 148.582031 291.269531 147.863281 292.96875 C 147.46875 293.949219 147.730469 294.34375 148.777344 294.34375 C 149.367188 294.34375 149.957031 294.34375 150.609375 294.40625 C 152.308594 294.667969 153.945312 294.015625 155.582031 293.753906 C 157.085938 293.492188 158.523438 293.097656 159.832031 292.378906 C 160.027344 292.316406 160.222656 292.117188 160.355469 292.183594 C 161.074219 292.378906 161.597656 291.921875 162.1875 291.660156 C 162.710938 291.332031 163.234375 291.070312 163.820312 290.875 C 165.71875 290.546875 167.289062 289.632812 168.921875 288.78125 C 170.820312 287.800781 172.714844 286.886719 174.679688 285.90625 C 175.398438 285.578125 176.050781 285.25 176.707031 284.859375 C 177.554688 284.402344 178.210938 283.550781 179.320312 283.679688 C 179.453125 283.679688 179.582031 283.617188 179.648438 283.484375 C 179.84375 282.832031 180.5 282.832031 180.957031 282.636719 C 181.480469 282.4375 181.9375 282.175781 182.332031 281.851562 C 183.246094 281.128906 184.292969 280.542969 185.273438 279.953125 C 187.039062 278.839844 188.804688 277.859375 190.441406 276.617188 C 191.8125 275.570312 193.316406 274.722656 194.757812 273.804688 L 194.757812 273.28125 C 195.214844 273.152344 195.671875 272.953125 196.066406 272.757812 C 197.175781 272.039062 198.222656 271.253906 199.203125 270.40625 C 200.511719 269.160156 201.953125 268.179688 203.324219 267.070312 C 204.371094 266.152344 205.679688 265.367188 206.53125 264.320312 C 207.25 263.40625 208.097656 262.554688 209.082031 261.96875 C 210.976562 260.855469 212.480469 259.285156 214.117188 257.847656 C 216.078125 256.144531 218.039062 254.316406 219.808594 252.351562 C 220.527344 251.4375 221.375 250.585938 222.359375 249.867188 C 223.011719 249.34375 223.664062 248.820312 224.253906 248.167969 C 225.429688 247.25 226.414062 246.074219 227.132812 244.765625 C 227.261719 244.503906 227.523438 244.308594 227.785156 244.175781 C 228.636719 243.523438 229.355469 242.738281 229.8125 241.824219 Z M 141.453125 253.398438 C 141.910156 253.136719 142.304688 252.8125 142.695312 252.417969 C 143.480469 251.566406 144.199219 250.71875 144.917969 249.800781 C 146.421875 248.035156 147.929688 246.269531 149.433594 244.503906 C 150.804688 242.871094 151.589844 240.84375 153.160156 239.335938 C 153.226562 239.335938 153.226562 239.273438 153.226562 239.207031 C 154.597656 236.917969 156.363281 234.890625 157.28125 232.40625 C 157.347656 232.273438 157.410156 232.144531 157.476562 232.144531 C 158 232.144531 158 231.75 158.195312 231.421875 C 158.652344 230.640625 159.175781 229.855469 159.699219 229.070312 C 160.355469 227.957031 160.945312 226.84375 161.597656 225.667969 C 161.988281 225.015625 162.25 224.292969 162.644531 223.640625 C 163.429688 222.265625 164.214844 221.023438 164.933594 219.652344 C 165.847656 217.949219 166.632812 216.121094 167.484375 214.417969 C 168.332031 212.71875 169.316406 210.820312 170.230469 208.992188 C 170.363281 208.730469 170.425781 208.402344 170.558594 208.140625 C 170.6875 207.8125 170.820312 207.484375 171.015625 207.160156 C 171.277344 206.699219 171.667969 206.308594 171.867188 205.851562 C 172.976562 203.5625 174.023438 201.207031 175.070312 198.917969 C 175.332031 198.394531 175.59375 197.804688 175.855469 197.28125 C 176.445312 196.105469 177.03125 194.992188 177.492188 193.75 C 177.816406 192.703125 178.273438 191.722656 178.929688 190.875 C 179.058594 190.742188 179.191406 190.613281 179.257812 190.414062 C 179.519531 189.566406 179.84375 188.714844 180.042969 187.863281 C 180.042969 187.601562 180.042969 187.339844 179.976562 187.078125 C 179.714844 187.210938 179.519531 187.339844 179.257812 187.539062 C 178.210938 188.714844 177.097656 189.957031 176.050781 191.136719 C 175.332031 191.984375 174.480469 192.703125 173.761719 193.554688 C 172.191406 195.515625 170.492188 197.28125 168.855469 199.179688 C 166.828125 201.535156 164.800781 203.953125 162.839844 206.375 C 161.53125 208.007812 160.222656 209.644531 158.914062 211.34375 C 158.195312 212.324219 157.476562 213.308594 156.824219 214.289062 C 156.039062 215.53125 155.320312 216.773438 154.535156 217.949219 C 153.8125 218.996094 153.03125 219.976562 152.375 220.960938 C 151.65625 222.136719 151.003906 223.445312 150.28125 224.621094 C 149.171875 226.320312 148.253906 228.152344 147.40625 229.984375 C 146.882812 231.226562 146.164062 232.46875 145.574219 233.710938 C 145.179688 234.628906 144.855469 235.609375 144.460938 236.523438 C 144.003906 237.703125 143.546875 238.878906 143.023438 240.121094 C 142.433594 241.496094 142.5 243.066406 141.78125 244.4375 C 141.582031 244.898438 141.453125 245.421875 141.519531 246.007812 C 141.519531 247.316406 141.453125 248.691406 141.257812 250 C 141.324219 251.042969 141.453125 252.15625 141.453125 253.398438 Z M 141.453125 253.398438 " fill-opacity="1" fill-rule="nonzero"/></g></svg>