<svg xmlns="http://www.w3.org/2000/svg" xmlns:xlink="http://www.w3.org/1999/xlink" width="500" zoomAndPan="magnify" viewBox="0 0 375 374.999991" height="500" preserveAspectRatio="xMidYMid meet" version="1.0"><defs><clipPath id="f3a154f210"><path d="M 23 143.523438 L 352 143.523438 L 352 224.523438 L 23 224.523438 Z M 23 143.523438 " clip-rule="nonzero"/></clipPath></defs><g clip-path="url(#f3a154f210)"><path fill="#fcb101" d="M 302.328125 208.300781 C 297.4375 199.148438 288.285156 176.4375 281.226562 161.902344 C 277.800781 154.84375 274.589844 149.605469 272.703125 148.066406 C 271.023438 146.738281 269.488281 146.738281 268.367188 147.160156 C 267.25 147.578125 265.921875 148.488281 264.59375 150.023438 C 262.570312 152.46875 260.195312 156.800781 257.816406 162.113281 C 251.808594 175.527344 245.167969 195.792969 241.257812 206.34375 C 239.578125 202.292969 237.273438 196.769531 235.039062 191.808594 C 229.167969 178.882812 223.296875 166.09375 217.636719 153.097656 C 217.359375 152.398438 216.03125 149.605469 214.703125 148.207031 C 213.167969 146.601562 211.351562 146.25 209.742188 146.808594 C 208.414062 147.296875 206.949219 148.347656 205.550781 150.023438 C 203.3125 152.820312 201.078125 157.710938 198.839844 163.71875 C 194.089844 176.785156 189.617188 195.164062 186.332031 206.066406 C 186.195312 206.554688 186.054688 207.042969 185.84375 207.53125 C 183.050781 200.054688 178.996094 192.996094 176.339844 185.382812 C 172.289062 173.710938 170.890625 160.085938 164.953125 149.183594 C 164.390625 148.136719 163.554688 146.390625 162.507812 145.34375 C 161.597656 144.433594 160.480469 143.804688 159.292969 143.664062 C 158.171875 143.523438 156.914062 143.804688 155.726562 144.714844 C 154.539062 145.621094 153.140625 147.578125 151.816406 150.375 C 145.945312 163.089844 138.679688 196.769531 137.28125 205.503906 C 137.28125 205.644531 137.210938 205.925781 137.210938 206.34375 C 136.09375 204.597656 134.90625 202.359375 133.578125 199.984375 C 126.800781 187.476562 117.925781 168.472656 112.40625 159.109375 C 110.796875 156.453125 109.398438 154.496094 108.421875 153.515625 C 107.375 152.46875 106.324219 152.050781 105.554688 151.980469 C 105.207031 151.910156 104.648438 152.050781 104.230469 152.191406 C 102.832031 152.328125 101.714844 153.027344 100.945312 154.285156 C 100.386719 155.195312 100.175781 156.800781 99.828125 157.78125 C 96.054688 168.402344 91.789062 179.230469 88.925781 190.273438 C 87.597656 195.304688 87.109375 202.570312 84.664062 207.671875 C 82.847656 204.457031 80.332031 199.566406 77.464844 194.253906 C 72.015625 183.984375 65.238281 172.035156 59.296875 166.09375 C 55.875 162.671875 52.449219 161.132812 49.65625 161.554688 C 47.699219 161.832031 45.742188 163.019531 44.066406 165.257812 C 42.316406 167.5625 40.640625 171.195312 39.105469 175.527344 C 35.332031 186.21875 32.117188 201.871094 28.484375 211.445312 C 28.132812 212.285156 27.855469 213.121094 27.503906 213.890625 C 26.804688 214.03125 26.105469 214.449219 25.617188 215.007812 C 25.339844 215.289062 24.710938 216.476562 24.21875 217.664062 C 23.730469 218.851562 23.3125 220.109375 23.3125 220.460938 C 23.171875 221.996094 23.941406 222.90625 24.289062 223.253906 C 24.847656 223.8125 25.546875 224.164062 26.316406 224.234375 C 26.875 224.300781 27.574219 224.234375 28.34375 223.742188 C 30.300781 222.625 32.324219 219.761719 34.074219 215.636719 C 37.285156 207.953125 40.152344 195.304688 43.296875 184.613281 C 44.972656 178.882812 46.71875 173.78125 48.675781 170.496094 C 49.097656 169.796875 49.515625 169.167969 49.933594 168.75 C 50.214844 168.472656 50.355469 168.191406 50.632812 168.121094 C 51.261719 168.050781 51.890625 168.472656 52.589844 169.03125 C 53.988281 170.007812 55.386719 171.476562 56.851562 173.292969 C 61.8125 179.371094 67.125 188.945312 71.527344 197.261719 C 75.648438 205.015625 79.144531 211.863281 80.890625 214.242188 C 82.289062 216.195312 83.894531 216.546875 84.664062 216.476562 C 85.292969 216.476562 86.128906 216.265625 86.96875 215.707031 C 87.808594 215.078125 88.925781 213.613281 89.207031 213.191406 C 92.980469 207.601562 93.816406 198.238281 95.425781 191.878906 C 98.148438 181.539062 102.132812 171.265625 105.625 161.132812 C 106.8125 163.019531 108.421875 165.605469 109.75 168.050781 C 115.480469 178.742188 122.957031 194.675781 128.6875 205.015625 C 131.339844 209.839844 133.714844 213.472656 135.394531 215.078125 C 136.09375 215.777344 137.140625 216.195312 138.1875 216.195312 C 139.585938 216.195312 140.914062 215.566406 141.890625 214.101562 C 142.382812 213.402344 142.871094 212.285156 143.148438 211.164062 C 143.640625 209.277344 143.847656 207.042969 143.917969 206.414062 C 145.035156 199.007812 150.558594 173.011719 155.796875 158.410156 C 156.777344 155.683594 157.753906 153.308594 158.664062 151.632812 C 158.800781 151.910156 158.941406 152.121094 159.011719 152.261719 C 164.8125 162.882812 166 176.15625 169.984375 187.476562 C 172.777344 195.511719 177.109375 202.78125 179.90625 210.746094 C 179.976562 211.097656 180.605469 213.613281 181.164062 215.21875 C 181.652344 216.476562 182.28125 217.523438 182.839844 218.152344 C 183.609375 218.921875 184.515625 219.269531 185.355469 219.339844 C 186.332031 219.410156 187.453125 219.203125 188.429688 218.152344 C 188.847656 217.734375 189.410156 216.964844 189.96875 215.777344 C 190.734375 214.101562 191.644531 211.375 192.691406 207.882812 C 195.976562 197.050781 200.378906 178.8125 205.0625 165.957031 C 206.667969 161.484375 208.34375 157.640625 210.023438 155.125 C 210.230469 154.84375 210.371094 154.566406 210.582031 154.355469 C 210.929688 154.984375 211.28125 155.613281 211.351562 155.753906 C 217.007812 168.820312 222.878906 181.609375 228.75 194.535156 C 233.082031 204.179688 236.714844 213.960938 237.832031 215.847656 C 238.949219 217.59375 240.417969 217.734375 241.046875 217.734375 C 242.027344 217.734375 242.722656 217.453125 243.214844 217.105469 C 243.914062 216.6875 244.402344 215.988281 244.890625 214.9375 C 247.894531 208.71875 256.351562 181.539062 263.828125 164.835938 C 265.644531 160.785156 267.390625 157.429688 268.929688 155.195312 C 268.996094 155.054688 269.136719 154.914062 269.277344 154.773438 C 270.605469 156.871094 273.050781 160.855469 275.007812 164.835938 C 282.484375 179.929688 292.058594 203.6875 296.949219 212.5625 C 298.277344 214.9375 299.464844 216.476562 300.234375 217.035156 C 301.140625 217.664062 301.980469 217.875 302.609375 217.804688 C 303.445312 217.804688 304.425781 217.523438 305.402344 216.6875 C 306.3125 215.847656 307.710938 213.472656 309.105469 209.976562 C 313.160156 200.125 319.449219 179.722656 326.574219 167.074219 C 327.972656 164.558594 329.441406 162.390625 330.976562 160.714844 C 331.886719 159.667969 332.796875 158.828125 333.703125 158.339844 C 334.332031 159.175781 335.800781 161.203125 336.707031 163.089844 C 340.96875 172.246094 344.8125 188.035156 344.953125 192.367188 L 344.953125 192.4375 C 344.605469 193.976562 345.304688 195.582031 346.769531 196.28125 C 348.449219 197.121094 350.472656 196.421875 351.3125 194.746094 C 351.59375 194.1875 351.871094 192.4375 351.523438 189.851562 C 350.683594 183.496094 346.910156 168.960938 342.855469 160.226562 C 341.039062 156.242188 338.945312 153.449219 337.058594 152.261719 C 335.449219 151.28125 333.84375 151.070312 332.304688 151.632812 C 328.882812 152.820312 325.316406 156.453125 322.035156 161.691406 C 315.464844 172.246094 309.527344 189.644531 305.265625 201.3125 C 304.285156 203.757812 303.167969 206.34375 302.328125 208.300781 Z M 302.328125 208.300781 " fill-opacity="1" fill-rule="nonzero"/></g></svg>