<svg xmlns="http://www.w3.org/2000/svg" xmlns:xlink="http://www.w3.org/1999/xlink" width="500" zoomAndPan="magnify" viewBox="0 0 375 374.999991" height="500" preserveAspectRatio="xMidYMid meet" version="1.0"><defs><clipPath id="b5cb884789"><path d="M 25 46.121094 L 350 46.121094 L 350 337.871094 L 25 337.871094 Z M 25 46.121094 " clip-rule="nonzero"/></clipPath></defs><g clip-path="url(#b5cb884789)"><path fill="#ff0072" d="M 205.441406 232.917969 C 204.964844 236.898438 204.566406 240.558594 204.089844 244.140625 C 201.859375 262.605469 202.496094 281.070312 203.292969 299.535156 C 203.53125 305.105469 202.816406 310.753906 202.339844 316.328125 C 202.101562 318 201.703125 319.589844 201.144531 321.183594 C 200.667969 321.421875 200.109375 321.421875 199.710938 321.183594 C 198.597656 319.988281 198.28125 320.066406 197.644531 321.5 C 196.765625 323.648438 195.890625 325.796875 194.777344 327.789062 C 194.460938 328.425781 193.425781 328.664062 192.308594 329.378906 C 192.390625 331.210938 192.152344 333.519531 189.523438 334.871094 C 186.898438 336.222656 185.066406 335.828125 183.875 333.28125 C 183.554688 333.519531 183.398438 333.519531 183.398438 333.597656 C 182.839844 334.871094 183.953125 337.179688 181.566406 337.257812 C 179.019531 337.417969 176.472656 337.496094 174.640625 334.871094 C 171.695312 330.652344 170.742188 325.71875 169.46875 320.941406 C 166.363281 308.84375 164.375 296.429688 163.578125 283.933594 C 162.625 267.777344 162.542969 251.542969 162.066406 235.304688 C 162.144531 234.113281 161.90625 232.917969 161.589844 231.804688 C 159.839844 233.714844 158.007812 235.542969 156.335938 237.535156 C 147.660156 247.5625 139.066406 257.589844 130.46875 267.617188 C 128.558594 269.847656 126.648438 272.15625 124.582031 274.304688 C 124.023438 274.859375 122.828125 274.859375 121.953125 275.101562 C 121.476562 275.257812 120.917969 275.257812 120.519531 275.496094 C 118.453125 277.25 116.621094 279.316406 113.597656 279.398438 C 113.121094 279.398438 112.5625 280.035156 112.085938 280.433594 C 109.21875 282.5 106.59375 282.183594 104.921875 280.113281 C 103.011719 280.195312 101.421875 280.75 100.148438 280.273438 C 97.996094 279.558594 95.847656 278.042969 96.246094 275.339844 C 96.804688 271.835938 97.121094 268.015625 98.792969 264.992188 C 104.363281 255.125 110.253906 245.414062 116.460938 235.941406 C 122.429688 226.789062 129.039062 218.035156 135.40625 209.042969 C 135.722656 208.5625 136.042969 208.007812 136.597656 206.972656 C 132.699219 208.007812 129.355469 208.960938 125.933594 209.757812 C 119.40625 211.191406 112.800781 212.464844 106.195312 213.816406 C 94.8125 216.125 83.433594 218.75 72.050781 220.660156 C 62.898438 222.253906 53.585938 223.050781 44.355469 224.164062 C 38.703125 224.800781 33.53125 222.96875 28.753906 220.261719 C 25.253906 218.273438 24.378906 215.089844 25.890625 211.429688 C 27.5625 207.371094 30.984375 205.140625 34.722656 203.390625 C 41.648438 200.207031 48.730469 197.101562 55.816406 194.15625 C 58.601562 193.042969 61.707031 192.644531 64.570312 191.691406 C 67.59375 190.578125 70.460938 188.90625 73.484375 187.949219 C 85.660156 184.050781 97.839844 180.230469 110.015625 176.488281 C 117.65625 174.179688 125.375 172.191406 133.097656 170.042969 C 133.496094 169.964844 133.972656 169.722656 134.769531 169.484375 L 127.128906 162.640625 C 110.96875 148.074219 94.8125 133.511719 80.167969 117.355469 C 77.464844 114.332031 74.757812 111.304688 73.484375 107.246094 C 72.6875 104.621094 72.847656 102.390625 74.835938 100.164062 L 76.984375 101.835938 L 77.226562 101.675781 L 75.632812 99.128906 L 75.953125 98.730469 L 86.855469 107.804688 L 87.570312 107.246094 C 87.015625 105.972656 86.296875 104.78125 85.503906 103.585938 C 83.75 101.355469 81.761719 99.367188 80.011719 97.140625 C 78.257812 94.992188 78.417969 94.992188 81.046875 92.203125 C 82.558594 90.535156 83.433594 91.566406 84.46875 92.523438 C 84.707031 92.683594 85.023438 92.839844 85.261719 93 L 84.785156 91.089844 L 86.933594 92.761719 C 87.492188 93.238281 88.207031 93.636719 89.003906 93.796875 C 88.050781 92.601562 87.171875 91.328125 86.140625 90.214844 C 85.105469 89.101562 85.34375 88.304688 86.535156 87.507812 C 88.207031 86.472656 89.800781 85.359375 91.550781 84.484375 C 92.265625 84.324219 92.984375 84.484375 93.621094 84.882812 C 94.894531 85.917969 96.246094 86.871094 97.601562 87.828125 C 96.566406 86.394531 95.449219 84.960938 94.335938 83.449219 C 95.847656 81.777344 97.042969 81.859375 98.554688 83.289062 C 100.148438 84.882812 101.976562 86.15625 103.96875 87.191406 C 102.773438 85.121094 101.5 83.132812 100.304688 81.0625 L 100.863281 80.503906 C 102.058594 81.140625 103.171875 81.859375 104.285156 82.652344 C 114.632812 91.886719 124.976562 101.117188 135.246094 110.429688 C 145.035156 119.34375 154.746094 128.339844 164.453125 137.332031 C 165.011719 137.808594 165.648438 138.285156 166.523438 139.003906 C 166.683594 138.046875 166.84375 137.332031 166.84375 136.695312 C 167.875 120.777344 168.910156 104.78125 169.867188 88.863281 C 170.265625 82.257812 170.183594 75.570312 170.664062 68.964844 C 171.058594 64.347656 171.855469 59.730469 172.96875 55.195312 C 173.527344 53.125 174.5625 51.136719 175.996094 49.464844 C 177.425781 47.636719 179.417969 46.203125 181.566406 48.03125 L 183.714844 53.046875 C 184.988281 50.738281 184.828125 48.351562 187.613281 47.476562 C 190.878906 46.441406 190.878906 46.121094 193.503906 49.148438 C 196.449219 46.601562 198.996094 48.589844 201.859375 49.863281 C 204.25 50.898438 206.636719 51.613281 208.148438 53.84375 C 208.785156 54.796875 209.261719 55.753906 209.660156 56.789062 C 210.058594 57.742188 210.378906 58.699219 210.695312 59.652344 L 211.253906 59.414062 L 210.21875 54.796875 L 210.617188 54.480469 C 211.015625 54.957031 211.652344 55.433594 211.808594 55.992188 C 212.84375 60.210938 214.199219 64.429688 214.675781 68.726562 C 215.867188 80.824219 216.746094 93.082031 217.699219 105.175781 C 217.777344 105.65625 217.9375 106.210938 218.097656 106.691406 C 221.441406 102.871094 224.625 99.289062 227.726562 95.785156 C 230.113281 93.082031 232.183594 89.898438 235.050781 87.90625 C 240.222656 84.40625 243.882812 79.550781 248.421875 75.492188 C 250.488281 73.582031 252.320312 71.433594 253.832031 69.042969 C 256.9375 64.429688 260.597656 60.367188 265.214844 57.34375 C 266.011719 56.789062 266.804688 56.308594 267.679688 55.992188 C 269.433594 55.277344 270.707031 55.671875 271.023438 57.902344 C 271.980469 57.265625 272.933594 56.628906 273.808594 56.070312 C 275.402344 55.035156 277.46875 55.277344 278.742188 56.707031 C 279.222656 57.105469 279.9375 57.1875 280.574219 56.945312 C 282.644531 55.753906 286.625 57.1875 287.417969 59.414062 C 288.136719 59.253906 288.929688 59.253906 289.648438 59.253906 C 290.046875 60.527344 290.285156 61.882812 290.203125 63.234375 C 289.886719 64.746094 289.488281 66.179688 288.929688 67.613281 L 289.488281 67.851562 L 292.355469 62.121094 L 292.910156 62.199219 C 292.910156 62.996094 292.910156 63.710938 292.75 64.507812 C 291.476562 70.316406 288.535156 75.171875 285.03125 79.867188 C 269.035156 101.199219 253.117188 122.609375 237.199219 144.097656 C 236.960938 144.496094 236.722656 144.890625 236.242188 145.609375 C 237.277344 145.371094 237.914062 145.289062 238.550781 145.132812 C 263.304688 137.730469 288.054688 130.328125 312.808594 122.925781 C 315.910156 121.972656 318.855469 120.777344 321.960938 119.980469 C 323.871094 119.503906 325.859375 119.664062 327.851562 119.425781 C 329.28125 119.265625 330.875 118.46875 332.226562 118.789062 C 336.207031 119.742188 340.585938 119.027344 344.324219 121.730469 C 346.714844 123.402344 347.191406 123.246094 347.429688 124.199219 C 350.613281 124.359375 350.054688 124.277344 349.578125 127.542969 C 349.019531 131.679688 346.078125 132.554688 343.210938 133.75 C 326.816406 140.4375 310.421875 147.199219 293.945312 153.566406 C 277.230469 160.09375 260.4375 166.222656 243.566406 172.429688 C 234.890625 175.613281 226.136719 178.480469 217.382812 181.503906 C 217.0625 181.664062 216.746094 181.820312 216.503906 182.058594 C 219.132812 184.289062 221.679688 186.515625 224.226562 188.667969 C 234.253906 197.183594 244.363281 205.460938 254.230469 214.136719 C 262.347656 221.296875 270.226562 228.777344 278.105469 236.179688 C 280.097656 238.089844 281.847656 240.238281 283.835938 242.070312 C 286.625 244.695312 287.578125 248.039062 288.054688 251.542969 C 288.136719 252.257812 287.5 253.054688 287.261719 253.769531 L 307.15625 272.394531 L 306.839844 272.949219 L 304.292969 271.917969 C 304.609375 274.066406 308.03125 274.304688 307.15625 277.167969 L 302.542969 275.578125 L 307.238281 285.289062 L 306.601562 285.84375 L 300.710938 283.136719 C 300.632812 283.296875 300.472656 283.535156 300.390625 283.695312 L 306.28125 288.074219 L 306.042969 288.390625 L 302.621094 286.640625 L 302.382812 286.957031 C 303.179688 287.4375 303.894531 287.992188 304.691406 288.550781 C 306.121094 289.503906 306.519531 290.777344 305.644531 292.371094 C 304.769531 293.960938 303.496094 294.679688 301.824219 293.644531 C 297.289062 290.859375 292.832031 287.992188 288.292969 285.128906 C 285.429688 283.21875 282.644531 281.226562 279.699219 279.398438 C 278.902344 279 278.109375 278.679688 277.3125 278.523438 L 276.914062 279.238281 C 278.585938 280.511719 280.175781 281.945312 281.925781 283.136719 C 286.304688 286.164062 290.761719 289.027344 295.058594 292.132812 C 297.050781 293.566406 298.878906 295.234375 300.949219 296.90625 C 300.390625 298.417969 297.765625 299.851562 295.378906 299.136719 C 293.148438 298.5 290.921875 297.625 288.851562 296.507812 C 276.992188 289.824219 265.851562 281.945312 255.105469 273.667969 C 250.488281 270.085938 245.554688 266.824219 241.019531 263.160156 C 231.945312 255.679688 223.113281 248.039062 214.199219 240.398438 C 211.808594 238.328125 209.582031 236.179688 207.273438 234.113281 C 206.636719 233.714844 206.078125 233.316406 205.441406 232.917969 Z M 261.074219 223.765625 L 261.472656 223.367188 C 259.882812 221.855469 258.371094 220.261719 256.699219 218.910156 C 242.691406 207.132812 228.601562 195.429688 214.515625 183.730469 C 213.957031 183.414062 213.320312 183.253906 212.683594 183.175781 L 212.445312 183.8125 Z M 171.300781 245.574219 L 170.980469 245.730469 L 170.980469 270.164062 L 172.015625 270.164062 C 172.015625 262.445312 172.015625 254.804688 172.015625 247.085938 C 172.015625 246.527344 171.539062 246.050781 171.300781 245.574219 Z M 175.597656 127.859375 L 175.4375 127.621094 L 175.4375 146.324219 L 175.597656 146.324219 Z M 175.597656 127.859375 " fill-opacity="1" fill-rule="nonzero"/></g></svg>