<svg xmlns="http://www.w3.org/2000/svg" xmlns:xlink="http://www.w3.org/1999/xlink" width="500" zoomAndPan="magnify" viewBox="0 0 375 374.999991" height="500" preserveAspectRatio="xMidYMid meet" version="1.0"><defs><clipPath id="a89c77ffc4"><path d="M 33 108.738281 L 350 108.738281 L 350 287.988281 L 33 287.988281 Z M 33 108.738281 " clip-rule="nonzero"/></clipPath></defs><g clip-path="url(#a89c77ffc4)"><path fill="#8d25fc" d="M 33.09375 136.890625 C 33.886719 136.890625 34.460938 136.890625 35.039062 136.960938 C 37.703125 137.320312 40.292969 138.1875 42.742188 139.410156 C 45.839844 140.992188 48.71875 142.792969 51.453125 144.882812 C 52.75 145.816406 54.117188 146.683594 55.414062 147.546875 C 57.214844 148.769531 59.015625 149.996094 60.886719 151.21875 C 63.261719 152.800781 65.710938 154.242188 67.941406 155.828125 C 70.96875 157.84375 74.0625 159.714844 77.304688 161.371094 C 77.953125 161.730469 78.601562 162.234375 79.246094 162.59375 C 79.894531 162.953125 80.472656 163.171875 81.046875 163.457031 C 81.625 163.746094 82.34375 164.105469 82.992188 164.394531 C 84 164.828125 85.007812 165.1875 86.015625 165.546875 C 87.671875 166.195312 89.257812 166.769531 90.914062 167.417969 C 92.566406 168.066406 94.222656 168.714844 95.953125 169.289062 C 96.746094 169.578125 97.679688 169.578125 98.472656 169.792969 C 103.007812 170.945312 107.617188 171.667969 112.296875 171.953125 C 114.386719 172.027344 116.472656 172.316406 118.5625 172.242188 C 120.9375 172.171875 123.3125 171.8125 125.691406 171.59375 C 128.210938 171.378906 130.65625 171.234375 133.179688 171.164062 C 136.488281 170.945312 139.800781 170.585938 143.042969 169.9375 C 145.921875 169.433594 148.800781 169.003906 151.683594 168.570312 C 152.402344 168.425781 153.050781 168.210938 153.769531 167.996094 C 152.402344 165.691406 151.035156 163.601562 149.953125 161.371094 C 148.945312 159.355469 148.15625 157.265625 147.507812 155.105469 C 146.640625 152.371094 146.066406 149.5625 145.707031 146.683594 C 145.417969 145.097656 145.203125 143.441406 145.128906 141.859375 C 145.128906 140.632812 144.84375 139.335938 145.273438 138.113281 C 145.417969 137.320312 145.492188 136.53125 145.492188 135.808594 C 145.5625 134.007812 145.851562 132.28125 146.28125 130.554688 C 146.5 129.832031 146.714844 129.183594 147.003906 128.539062 C 147.722656 126.664062 148.371094 124.792969 149.234375 123.066406 C 150.457031 120.761719 152.042969 118.601562 153.84375 116.800781 C 155.066406 115.648438 156.433594 114.640625 157.875 113.777344 C 158.738281 113.128906 159.601562 112.625 160.46875 111.976562 C 162.050781 110.753906 163.996094 109.960938 165.9375 109.816406 C 166.515625 109.746094 167.019531 109.601562 167.523438 109.382812 C 169.609375 108.738281 171.769531 108.953125 173.929688 109.023438 C 175.15625 109.167969 176.308594 109.457031 177.460938 109.886719 C 177.675781 109.960938 177.820312 110.03125 178.035156 110.105469 C 179.1875 110.175781 180.265625 110.535156 181.203125 111.183594 C 183.867188 112.625 186.605469 113.992188 188.476562 116.441406 C 190.5625 119.320312 193.011719 122.128906 193.875 125.65625 C 194.667969 128.464844 194.8125 131.417969 194.308594 134.296875 C 193.875 136.601562 193.085938 138.761719 192.4375 140.992188 C 191.789062 143.515625 190.996094 145.960938 190.058594 148.410156 C 189.125 150.640625 188.476562 153.019531 186.820312 154.960938 C 186.460938 155.539062 186.101562 156.1875 185.8125 156.761719 C 185.164062 157.84375 184.445312 158.921875 183.722656 159.929688 C 183.21875 160.652344 182.644531 161.296875 182.066406 161.875 C 179.621094 164.179688 177.316406 166.625 174.363281 168.355469 C 172.203125 169.578125 170.113281 170.945312 167.8125 172.386719 C 169.25 173.683594 170.113281 175.410156 171.769531 176.5625 C 173.066406 177.644531 174.363281 178.796875 175.515625 180.089844 C 177.097656 181.53125 178.683594 182.972656 180.265625 184.339844 C 180.410156 184.410156 180.554688 184.484375 180.628906 184.628906 C 182.570312 186.644531 185.019531 188.011719 187.179688 189.667969 C 188.621094 190.820312 189.988281 191.972656 191.570312 192.980469 C 192.722656 193.773438 193.875 194.636719 195.027344 195.429688 C 197.476562 197.011719 199.925781 198.667969 202.371094 200.179688 C 204.386719 201.402344 206.40625 202.628906 208.492188 203.707031 C 211.15625 205.078125 213.820312 206.300781 216.484375 207.597656 C 217.203125 207.957031 217.925781 208.460938 218.644531 208.75 C 221.164062 209.757812 223.683594 210.691406 226.277344 211.699219 C 227.355469 212.132812 228.507812 212.421875 229.660156 212.636719 C 229.300781 211.917969 228.941406 211.195312 228.507812 210.476562 C 227.574219 208.820312 227.214844 206.949219 226.421875 205.292969 C 226.347656 205.078125 226.277344 204.789062 226.277344 204.570312 C 226.132812 203.203125 225.703125 201.90625 225.125 200.683594 C 224.550781 199.605469 224.550781 198.164062 224.261719 196.941406 C 224.046875 195.859375 223.757812 194.78125 223.46875 193.773438 C 223.398438 193.628906 223.398438 193.484375 223.324219 193.339844 C 223.253906 191.613281 222.460938 189.882812 222.460938 188.226562 C 222.460938 185.921875 221.453125 183.90625 221.667969 181.601562 C 221.8125 180.234375 221.382812 178.796875 221.308594 177.355469 C 221.238281 176.417969 221.597656 175.339844 221.308594 174.476562 C 220.804688 173.035156 222.027344 171.738281 221.453125 170.300781 C 222.171875 169.652344 221.742188 168.859375 221.742188 168.140625 C 221.8125 167.273438 222.027344 166.410156 222.246094 165.617188 C 222.390625 164.828125 222.53125 164.035156 222.75 163.242188 C 223.46875 161.226562 224.261719 159.210938 225.054688 157.265625 C 225.484375 156.332031 225.84375 155.394531 226.132812 154.386719 C 226.492188 152.585938 227.644531 151.289062 228.726562 149.921875 C 230.164062 148.050781 231.675781 146.25 233.191406 144.449219 C 233.550781 144.019531 233.980469 143.65625 234.414062 143.371094 C 234.703125 143.082031 235.207031 142.9375 235.351562 142.578125 C 235.925781 141.28125 237.222656 140.851562 238.15625 140.058594 C 239.382812 139.121094 240.679688 138.328125 241.972656 137.539062 C 244.925781 135.808594 247.878906 133.9375 251.191406 132.859375 C 252.847656 132.351562 254.429688 131.847656 256.160156 131.417969 C 256.734375 131.34375 257.308594 131.273438 257.886719 131.273438 C 258.246094 131.273438 258.605469 131.273438 258.964844 131.128906 C 261.917969 129.976562 265.085938 130.265625 268.183594 130.265625 C 270.34375 130.265625 272.429688 130.265625 274.589844 130.410156 C 275.671875 130.480469 276.679688 130.699219 277.757812 130.839844 C 279.414062 131.058594 281.144531 131.128906 282.726562 131.5625 C 284.597656 131.992188 286.398438 132.714844 288.273438 133.289062 C 288.488281 133.363281 288.777344 133.503906 288.992188 133.578125 C 293.023438 134.511719 296.910156 136.027344 300.367188 138.257812 C 302.960938 139.839844 305.410156 141.496094 307.785156 143.296875 C 310.878906 145.746094 313.761719 148.410156 316.425781 151.433594 C 319.015625 154.097656 321.25 157.050781 323.050781 160.289062 C 324.847656 163.675781 326.289062 167.273438 327.371094 170.945312 C 327.875 172.386719 328.234375 173.898438 328.449219 175.410156 C 328.738281 177.285156 328.953125 179.15625 329.097656 181.027344 C 329.3125 183.117188 329.3125 185.203125 329.167969 187.292969 C 328.882812 190.027344 328.664062 192.765625 327.65625 195.355469 C 327.441406 196.003906 327.296875 196.652344 327.152344 197.300781 C 326.648438 199.171875 326 201.042969 325.136719 202.773438 C 324.703125 203.707031 324.273438 204.570312 323.769531 205.4375 C 323.480469 205.867188 323.121094 206.226562 322.761719 206.589844 C 322.183594 207.164062 321.679688 207.742188 321.320312 208.460938 C 321.105469 209.035156 320.890625 209.902344 319.882812 209.828125 C 319.664062 209.828125 319.304688 210.1875 319.234375 210.40625 C 318.800781 212.0625 317.289062 212.851562 316.136719 213.933594 C 313.402344 216.378906 310.449219 218.539062 307.207031 220.414062 C 305.121094 221.78125 302.886719 222.933594 300.585938 223.867188 C 297.054688 225.164062 293.527344 226.605469 289.710938 226.964844 C 288.558594 227.109375 287.480469 227.398438 286.328125 227.757812 C 284.3125 228.261719 282.296875 228.765625 280.207031 228.550781 C 279.34375 228.476562 278.40625 228.835938 277.542969 228.910156 C 274.589844 229.054688 271.710938 229.558594 268.757812 229.125 C 267.535156 228.910156 266.238281 229.195312 264.941406 229.195312 C 262.640625 229.195312 260.40625 229.054688 258.175781 228.765625 C 256.445312 228.476562 254.71875 228.476562 253.0625 228.261719 C 252.269531 228.1875 251.550781 227.828125 250.757812 227.613281 C 250.109375 227.46875 249.460938 227.398438 248.8125 227.398438 C 249.101562 227.828125 249.390625 228.332031 249.679688 228.765625 C 250.972656 230.207031 251.980469 231.789062 253.277344 233.230469 C 254.359375 234.527344 255.65625 235.675781 256.664062 236.972656 C 257.742188 238.414062 259.253906 239.421875 260.261719 240.863281 C 260.910156 241.941406 261.773438 242.878906 262.710938 243.667969 C 264.4375 245.039062 266.09375 246.476562 267.75 247.917969 C 267.894531 248.0625 268.109375 248.207031 268.253906 248.351562 C 269.480469 249.933594 271.277344 250.726562 272.863281 251.878906 C 274.015625 252.742188 275.09375 253.679688 276.175781 254.542969 C 277.253906 255.40625 278.550781 256.34375 279.773438 257.132812 C 282.222656 258.644531 284.671875 260.300781 287.261719 261.597656 C 288.703125 262.320312 289.855469 263.613281 291.582031 263.832031 C 291.65625 263.832031 291.800781 263.902344 291.871094 263.972656 C 294.535156 265.847656 297.632812 266.78125 300.511719 268.152344 C 302.960938 269.304688 305.480469 270.238281 308 271.175781 C 311.382812 272.472656 314.984375 273.261719 318.367188 274.488281 C 322.039062 275.710938 325.855469 276.648438 329.671875 277.367188 C 333.707031 278.304688 337.808594 278.734375 341.914062 278.734375 C 343.425781 278.734375 344.867188 278.734375 346.378906 278.734375 C 347.097656 278.664062 347.816406 279.09375 348.105469 279.742188 C 348.320312 280.101562 348.539062 280.464844 348.824219 280.75 C 350.554688 282.839844 349.546875 286.152344 346.523438 287.160156 C 344.363281 287.808594 342.058594 287.953125 339.824219 287.664062 C 338.167969 287.449219 336.585938 287.304688 334.929688 287.230469 C 332.410156 287.085938 329.960938 286.800781 327.511719 286.222656 C 326.359375 285.933594 325.136719 285.792969 323.984375 285.503906 C 322.832031 285.214844 321.464844 284.710938 320.242188 284.351562 C 317.792969 283.703125 315.34375 283.054688 312.898438 282.40625 C 312.535156 282.335938 312.175781 282.046875 311.816406 281.976562 C 310.015625 281.398438 308.214844 280.894531 306.417969 280.320312 C 304.976562 279.816406 303.609375 279.167969 302.167969 278.664062 C 300.296875 277.941406 298.28125 277.296875 296.480469 276.429688 C 294.03125 275.351562 291.65625 274.054688 289.28125 272.832031 C 286.902344 271.605469 284.457031 270.453125 282.078125 269.085938 C 279.917969 267.863281 277.832031 266.496094 275.742188 265.125 C 273.367188 263.542969 270.992188 261.957031 268.613281 260.300781 C 267.320312 259.367188 266.238281 258.285156 265.015625 257.277344 C 264.65625 256.992188 264.292969 256.703125 263.933594 256.414062 C 261.558594 254.832031 259.328125 252.957031 257.382812 250.796875 C 256.519531 249.863281 255.4375 249.140625 254.574219 248.207031 C 253.636719 247.414062 252.847656 246.550781 252.125 245.542969 C 251.765625 245.039062 251.261719 244.535156 250.757812 244.101562 C 250.253906 243.667969 249.75 243.238281 249.390625 242.660156 C 248.308594 240.5 246.367188 239.132812 244.855469 237.332031 C 243.125 235.246094 241.46875 233.085938 239.957031 230.851562 C 238.734375 229.054688 237.796875 227.179688 236.5 225.453125 C 235.996094 224.804688 235.277344 224.371094 234.558594 224.085938 C 233.046875 223.507812 231.460938 223.148438 229.878906 222.71875 C 229.011719 222.429688 228.148438 222.140625 227.285156 221.851562 C 225.84375 221.421875 224.476562 220.988281 223.039062 220.484375 C 221.164062 219.835938 219.363281 219.042969 217.492188 218.324219 C 215.046875 217.316406 212.523438 216.238281 210.148438 215.085938 C 208.277344 214.21875 206.476562 213.140625 204.605469 212.132812 C 202.589844 210.980469 200.5 209.902344 198.484375 208.675781 C 196.324219 207.378906 194.164062 205.941406 192.074219 204.570312 C 189.84375 203.058594 187.539062 201.546875 185.378906 199.964844 C 183.507812 198.597656 181.851562 197.011719 179.90625 195.859375 C 177.746094 194.5625 176.019531 192.691406 173.929688 191.324219 C 173.140625 190.746094 172.417969 190.101562 171.769531 189.378906 C 170.113281 187.867188 168.460938 186.355469 166.875 184.84375 C 164.785156 182.828125 162.769531 180.738281 160.828125 178.652344 C 160.25 177.929688 159.746094 177.210938 159.316406 176.347656 C 158.378906 176.5625 157.515625 176.707031 156.652344 176.921875 C 154.996094 177.355469 153.339844 177.789062 151.683594 178.21875 C 150.316406 178.507812 148.945312 178.652344 147.578125 178.867188 C 146.066406 179.226562 144.554688 179.441406 143.042969 179.585938 C 141.457031 179.585938 140.019531 180.378906 138.363281 179.949219 C 138.144531 179.875 137.859375 180.089844 137.640625 180.164062 C 136.203125 180.667969 134.617188 180.667969 133.105469 180.738281 C 131.160156 180.957031 129.144531 180.957031 127.203125 180.8125 C 126.839844 180.8125 126.335938 181.316406 126.050781 181.242188 C 124.96875 180.667969 123.960938 181.53125 122.808594 181.316406 C 121.730469 181.242188 120.578125 181.242188 119.496094 181.460938 C 118.488281 181.53125 117.554688 181.460938 116.546875 181.601562 C 114.746094 181.675781 112.871094 181.601562 111.074219 181.460938 C 106.464844 181.242188 101.929688 180.308594 97.390625 179.441406 C 95.953125 179.082031 94.511719 178.722656 93.070312 178.21875 C 91.777344 177.859375 90.40625 177.5 89.113281 176.996094 C 85.800781 175.769531 82.34375 174.835938 79.246094 173.035156 C 76.945312 171.667969 74.421875 170.730469 71.976562 169.433594 C 69.886719 168.425781 67.871094 167.203125 66 165.761719 C 64.847656 165.042969 63.695312 164.324219 62.472656 163.746094 C 61.96875 163.457031 61.390625 163.097656 60.886719 162.738281 C 58.078125 160.722656 55.269531 158.632812 52.460938 156.691406 C 49.65625 154.746094 46.917969 153.019531 44.253906 151.074219 C 40.652344 148.410156 37.199219 145.601562 34.894531 141.714844 C 34.03125 139.984375 33.382812 138.472656 33.09375 136.890625 Z M 277.902344 219.546875 C 279.414062 219.261719 281.289062 218.902344 283.085938 218.757812 C 286.398438 218.46875 289.496094 217.390625 292.664062 216.667969 C 294.03125 216.238281 295.398438 215.734375 296.695312 215.15625 C 297.703125 214.726562 298.710938 214.21875 299.792969 213.859375 C 300.296875 213.714844 300.800781 213.429688 301.230469 213.140625 C 302.671875 212.132812 304.257812 211.339844 305.769531 210.40625 C 306.847656 209.757812 307.929688 209.035156 308.9375 208.316406 C 310.234375 207.238281 311.382812 206.085938 312.535156 204.859375 C 313.6875 203.636719 314.695312 202.339844 315.703125 200.972656 C 316.136719 200.324219 316.570312 199.605469 316.855469 198.8125 C 317.722656 196.941406 318.871094 195.140625 319.375 193.125 C 320.386719 189.234375 320.816406 185.277344 320.746094 181.316406 C 320.601562 178.867188 320.242188 176.417969 319.449219 174.113281 C 318.511719 170.730469 317.289062 167.492188 315.777344 164.394531 C 314.695312 162.304688 313.402344 160.363281 311.816406 158.5625 C 309.730469 156.1875 307.425781 153.953125 305.121094 151.792969 C 302.527344 149.273438 299.648438 147.113281 296.480469 145.386719 C 294.246094 144.160156 291.945312 143.082031 289.566406 142.144531 C 287.40625 141.355469 285.105469 140.992188 282.945312 140.203125 C 281.71875 139.769531 280.421875 139.410156 279.054688 139.195312 C 278.046875 139.050781 277.039062 139.050781 276.03125 138.976562 C 274.589844 138.832031 273.078125 138.691406 271.640625 138.546875 C 270.917969 138.472656 270.199219 138.472656 269.480469 138.546875 C 268.832031 138.546875 268.039062 138.832031 267.464844 138.546875 C 266.742188 138.257812 266.167969 138.691406 265.519531 138.691406 C 264.871094 138.761719 264.222656 138.832031 263.574219 139.050781 C 262.207031 139.195312 260.839844 139.335938 259.46875 139.480469 C 256.519531 139.914062 253.710938 140.851562 251.046875 142.144531 C 250.183594 142.578125 249.390625 143.082031 248.597656 143.65625 C 245.070312 145.890625 241.398438 147.976562 238.589844 151.21875 C 237.222656 152.660156 235.996094 154.242188 235.0625 155.96875 C 234.558594 156.976562 234.054688 157.988281 233.40625 158.921875 C 232.828125 159.714844 232.46875 160.578125 232.253906 161.515625 C 231.964844 162.953125 231.390625 164.324219 231.03125 165.761719 C 230.597656 167.058594 230.308594 168.425781 230.09375 169.792969 C 229.878906 171.953125 229.734375 174.113281 229.660156 176.347656 C 229.660156 177.5 229.734375 178.722656 229.878906 179.875 C 230.019531 181.890625 230.238281 183.90625 230.453125 185.921875 C 230.527344 186.355469 231.03125 186.789062 230.957031 187.148438 C 230.742188 189.378906 231.75 191.46875 232.109375 193.628906 C 232.46875 195.285156 232.902344 196.941406 233.476562 198.523438 C 233.980469 200.253906 234.484375 202.050781 234.917969 203.851562 C 236.5 204.859375 235.566406 207.164062 237.078125 208.171875 C 237.222656 208.246094 237.222656 208.53125 237.292969 208.75 C 237.507812 209.253906 237.726562 209.757812 237.941406 210.261719 C 238.519531 211.339844 239.238281 212.421875 239.742188 213.574219 C 240.460938 215.230469 241.398438 216.523438 243.34375 216.8125 C 245.285156 217.101562 247.445312 217.53125 249.460938 217.964844 C 250.46875 218.179688 251.476562 218.46875 252.414062 218.613281 C 254.863281 218.902344 257.308594 219.117188 259.757812 219.40625 C 261.628906 219.546875 263.503906 219.765625 265.375 219.835938 C 267.246094 219.910156 269.046875 219.691406 270.847656 219.691406 C 273.222656 219.476562 275.457031 219.546875 277.902344 219.546875 Z M 162.265625 164.898438 C 164.570312 163.601562 166.730469 162.523438 168.746094 161.371094 C 169.972656 160.578125 171.195312 159.714844 172.347656 158.851562 C 173.789062 157.84375 175.082031 156.617188 176.089844 155.179688 C 177.316406 153.234375 179.402344 151.9375 179.980469 149.5625 C 181.347656 148.265625 181.636719 146.394531 182.355469 144.738281 C 182.5 144.449219 182.285156 144.019531 182.425781 143.875 C 183.292969 143.011719 183.363281 141.929688 183.722656 140.851562 C 184.300781 139.410156 184.804688 137.898438 185.234375 136.386719 C 185.738281 134.441406 186.027344 132.425781 186.171875 130.480469 C 186.242188 127.671875 185.234375 125.007812 183.292969 122.992188 C 181.78125 121.335938 180.269531 119.753906 178.035156 118.890625 C 176.234375 118.097656 174.21875 117.738281 172.273438 117.738281 C 169.972656 117.882812 167.738281 118.457031 165.578125 119.320312 C 163.347656 120.257812 161.402344 121.769531 159.820312 123.570312 C 158.953125 124.433594 158.164062 125.371094 157.585938 126.449219 C 156.578125 128.609375 155.136719 130.699219 154.777344 133.144531 C 154.492188 134.875 153.914062 136.53125 153.769531 138.257812 C 153.625 140.347656 153.625 142.433594 153.84375 144.449219 C 153.988281 147.113281 154.5625 149.707031 155.425781 152.152344 C 156.003906 153.738281 156.652344 155.25 157.371094 156.761719 C 158.019531 157.988281 158.8125 159.066406 159.53125 160.21875 C 159.820312 160.722656 160.035156 161.226562 160.324219 161.730469 C 160.898438 162.8125 161.546875 163.820312 162.265625 164.898438 Z M 162.265625 164.898438 " fill-opacity="1" fill-rule="nonzero"/></g></svg>