<svg xmlns="http://www.w3.org/2000/svg" xmlns:xlink="http://www.w3.org/1999/xlink" width="500" zoomAndPan="magnify" viewBox="0 0 375 374.999991" height="500" preserveAspectRatio="xMidYMid meet" version="1.0"><defs><clipPath id="fbc11a62b7"><path d="M 30.441406 41.667969 L 340 41.667969 L 340 333.417969 L 30.441406 333.417969 Z M 30.441406 41.667969 " clip-rule="nonzero"/></clipPath></defs><g clip-path="url(#fbc11a62b7)"><path fill="#ff0072" d="M 202.738281 231.851562 C 202.410156 232.4375 202.085938 233.089844 201.824219 233.804688 C 199.546875 238.949219 196.941406 243.964844 194.140625 248.851562 C 186.78125 261.875 178.445312 274.316406 169.261719 286.105469 C 159.296875 298.804688 149.851562 311.960938 140.667969 325.25 C 140.082031 326.03125 139.5625 326.878906 138.910156 327.59375 C 138.582031 327.984375 138.191406 328.246094 137.800781 328.503906 C 137.085938 329.027344 136.042969 328.832031 135.523438 328.050781 C 135.261719 327.660156 135 327.203125 134.871094 326.746094 C 134.546875 325.445312 134.480469 324.078125 134.546875 322.773438 C 135 313.980469 136.433594 305.253906 138.910156 296.785156 C 140.796875 290.207031 142.816406 283.628906 144.640625 277.050781 C 148.613281 262.65625 153.5625 248.589844 158.710938 234.585938 C 161.964844 225.597656 165.15625 216.609375 168.414062 207.621094 C 168.675781 206.839844 169 205.992188 169.195312 205.210938 C 169.457031 204.5625 169.066406 203.84375 168.414062 203.585938 C 168.347656 203.585938 168.285156 203.519531 168.21875 203.519531 C 167.371094 203.390625 166.523438 203.324219 165.679688 203.324219 C 153.695312 203.324219 141.644531 203.390625 129.660156 203.453125 C 128.945312 203.453125 128.164062 203.453125 127.445312 203.519531 C 114.8125 204.300781 102.242188 204.429688 89.605469 204.429688 C 71.953125 204.429688 54.304688 204.429688 36.652344 204.429688 C 35.285156 204.429688 33.984375 204.367188 32.617188 204.234375 C 32.226562 204.171875 31.898438 204.105469 31.574219 203.976562 C 30.988281 203.714844 30.597656 203.195312 30.53125 202.542969 C 30.464844 202.019531 30.660156 201.5 31.117188 201.238281 C 32.03125 200.652344 33.007812 200.199219 34.046875 199.742188 C 37.5 198.4375 40.953125 197.203125 44.40625 195.898438 C 56.324219 191.46875 68.503906 187.757812 80.746094 184.175781 C 89.410156 181.636719 98.136719 179.09375 106.800781 176.554688 C 112.597656 174.863281 118.457031 173.625 124.320312 172.386719 C 132.851562 170.628906 141.382812 169 149.917969 167.371094 C 154.605469 166.460938 159.296875 165.679688 163.984375 164.832031 C 165.027344 164.636719 166.199219 164.570312 167.175781 163.855469 C 166.980469 163.136719 166.851562 162.421875 166.65625 161.703125 C 165.351562 157.210938 163.855469 152.847656 162.226562 148.484375 C 158.058594 137.347656 154.019531 126.207031 149.527344 115.203125 C 148.15625 111.683594 146.984375 108.039062 146.140625 104.324219 C 145.945312 103.476562 145.878906 102.632812 145.878906 101.785156 C 145.878906 100.871094 146.660156 100.222656 147.507812 100.222656 C 147.765625 100.222656 148.09375 100.285156 148.289062 100.480469 C 148.808594 100.808594 149.332031 101.132812 149.722656 101.589844 C 151.285156 103.152344 152.847656 104.78125 154.214844 106.410156 C 157.40625 110.25 160.597656 114.160156 163.722656 118.066406 C 168.285156 123.863281 172.515625 129.855469 176.425781 136.042969 C 179.746094 141.320312 183.199219 146.53125 186.585938 151.804688 C 187.171875 152.71875 187.824219 153.628906 188.539062 154.476562 C 188.667969 154.671875 188.929688 154.734375 189.125 154.734375 C 189.320312 154.671875 189.515625 154.476562 189.582031 154.214844 C 189.710938 153.367188 189.777344 152.523438 189.839844 151.675781 C 190.167969 144.574219 190.363281 137.476562 190.753906 130.378906 C 191.015625 125.753906 191.46875 121.128906 191.925781 116.503906 C 192.445312 111.292969 193.097656 106.019531 193.683594 100.808594 C 194.53125 93.902344 195.574219 87 196.941406 80.160156 C 199.089844 69.152344 201.371094 58.148438 203.648438 47.074219 C 203.84375 46.226562 203.910156 45.382812 204.105469 44.535156 C 204.234375 43.949219 204.429688 43.363281 204.625 42.777344 C 204.886719 42.191406 205.40625 41.800781 205.996094 41.667969 C 206.710938 41.667969 207.425781 42.125 207.6875 42.839844 C 207.816406 43.167969 207.949219 43.492188 208.011719 43.882812 C 208.46875 46.164062 208.792969 48.441406 208.988281 50.785156 C 209.316406 57.300781 209.773438 63.75 210.164062 70.195312 C 210.226562 71.757812 210.359375 73.386719 210.359375 74.949219 C 210.421875 83.289062 210.8125 91.558594 211.269531 99.894531 C 211.53125 104.648438 211.984375 109.40625 212.441406 114.160156 C 212.703125 116.960938 213.027344 119.761719 213.355469 122.5625 C 214.003906 127.640625 214.65625 132.785156 215.308594 137.867188 C 215.699219 140.929688 216.089844 143.925781 216.480469 146.984375 C 216.480469 147.960938 216.742188 148.9375 217.261719 149.785156 C 217.523438 149.65625 217.78125 149.65625 217.914062 149.460938 C 218.238281 148.9375 218.5625 148.417969 218.824219 147.898438 C 221.167969 143.859375 223.382812 139.820312 225.859375 135.847656 C 235.890625 119.566406 246.765625 103.867188 258.425781 88.757812 C 263.570312 82.050781 268.78125 75.40625 273.859375 68.632812 C 277.769531 63.421875 281.480469 58.148438 285.257812 52.871094 C 285.78125 52.15625 286.300781 51.503906 286.886719 50.917969 C 287.210938 50.527344 287.734375 50.394531 288.253906 50.589844 C 288.839844 50.851562 289.230469 51.375 289.230469 52.023438 C 289.230469 52.414062 289.167969 52.742188 289.035156 53.066406 C 288.839844 53.523438 288.644531 53.976562 288.449219 54.371094 C 278.484375 74.558594 269.105469 95.074219 259.464844 115.460938 C 250.738281 133.828125 242.078125 152.195312 233.804688 170.757812 C 233.347656 171.800781 232.242188 172.710938 232.894531 174.078125 C 234 174.273438 234.976562 173.6875 235.953125 173.296875 C 243.445312 170.628906 250.933594 167.890625 258.425781 165.351562 C 265.523438 163.007812 272.6875 160.921875 279.851562 158.773438 C 291.316406 155.257812 302.648438 151.21875 313.785156 146.921875 C 319.710938 144.640625 325.640625 142.359375 331.632812 140.148438 C 333 139.625 334.367188 139.167969 335.800781 138.714844 C 336.515625 138.519531 337.234375 138.453125 337.949219 138.453125 C 339.253906 138.386719 340.097656 139.953125 339.707031 141.058594 C 339.1875 142.425781 338.273438 143.664062 337.167969 144.574219 C 334.300781 147.117188 331.566406 149.722656 328.570312 152 C 320.300781 158.316406 311.898438 164.441406 303.496094 170.628906 C 298.546875 174.210938 293.335938 177.464844 287.929688 180.332031 C 280.699219 184.242188 273.46875 188.082031 266.242188 191.925781 C 260.507812 194.921875 254.84375 198.113281 249.371094 201.628906 C 248.65625 202.085938 247.9375 202.542969 247.222656 203.0625 C 246.699219 203.453125 246.503906 204.105469 246.765625 204.691406 C 246.960938 205.148438 247.222656 205.539062 247.484375 205.929688 C 248.328125 206.972656 249.175781 208.011719 250.085938 208.988281 C 267.152344 226.574219 284.214844 244.160156 302.191406 260.835938 C 304.992188 263.441406 307.730469 266.042969 310.464844 268.648438 C 311.246094 269.429688 312.027344 270.214844 312.808594 270.996094 C 313.070312 271.253906 313.265625 271.582031 313.394531 271.90625 C 313.65625 272.492188 313.589844 273.144531 313.328125 273.664062 C 313.003906 274.25 312.417969 274.511719 311.765625 274.445312 C 310.789062 274.316406 309.878906 274.121094 308.902344 273.796875 C 307.859375 273.40625 306.882812 272.949219 305.839844 272.492188 C 298.15625 268.910156 290.402344 265.652344 282.523438 262.527344 C 274.773438 259.464844 267.28125 255.820312 260.117188 251.652344 C 250.347656 246.050781 240.578125 240.449219 230.742188 234.914062 C 229.703125 234.324219 228.59375 233.738281 227.488281 233.152344 C 227.292969 233.089844 227.03125 233.152344 226.835938 233.285156 C 226.707031 233.480469 226.640625 233.675781 226.640625 233.933594 C 226.902344 234.78125 227.160156 235.5625 227.488281 236.34375 C 228.335938 238.496094 229.179688 240.644531 230.027344 242.859375 C 233.738281 252.433594 236.734375 262.265625 238.949219 272.296875 C 241.164062 282.199219 243.3125 292.097656 245.398438 302.0625 C 247.351562 311.507812 249.371094 320.949219 251.78125 330.328125 C 251.910156 330.785156 251.976562 331.304688 252.042969 331.761719 C 252.105469 332.28125 251.847656 332.738281 251.390625 333 C 250.871094 333.324219 250.152344 333.324219 249.695312 332.933594 C 249.242188 332.542969 248.851562 332.085938 248.523438 331.566406 C 247.027344 329.027344 245.527344 326.550781 244.160156 323.945312 C 238.949219 314.242188 234.324219 304.210938 230.289062 293.984375 C 223.320312 276.207031 215.632812 258.75 207.6875 241.359375 C 206.320312 238.363281 204.953125 235.367188 203.585938 232.308594 C 203.714844 232.242188 203.257812 231.851562 202.738281 231.851562 Z M 202.738281 231.851562 " fill-opacity="1" fill-rule="nonzero"/></g></svg>