<svg xmlns="http://www.w3.org/2000/svg" xmlns:xlink="http://www.w3.org/1999/xlink" width="500" zoomAndPan="magnify" viewBox="0 0 375 374.999991" height="500" preserveAspectRatio="xMidYMid meet" version="1.0"><defs><clipPath id="f992c1b8fb"><path d="M 45.09375 31.339844 L 330 31.339844 L 330 333.589844 L 45.09375 333.589844 Z M 45.09375 31.339844 " clip-rule="nonzero"/></clipPath></defs><g clip-path="url(#f992c1b8fb)"><path fill="#8d25fc" d="M 174.949219 281.289062 C 175.109375 281.128906 175.34375 280.972656 175.503906 280.8125 C 185.957031 270.042969 196.960938 259.910156 208.441406 250.328125 C 219.449219 241.144531 230.613281 232.039062 242.09375 223.328125 C 253.972656 214.222656 266.324219 205.828125 279.230469 198.226562 C 284.695312 195.0625 290.234375 191.972656 295.9375 189.28125 C 298.472656 188.011719 301.242188 187.140625 304.011719 186.589844 C 307.339844 185.953125 310.742188 186.191406 313.910156 187.222656 L 314.308594 187.378906 C 317.554688 188.648438 318.898438 190.863281 318.34375 194.347656 C 318.109375 195.773438 317.789062 197.199219 317.394531 198.625 C 316.050781 202.820312 314.308594 206.9375 312.328125 210.898438 C 306.941406 222.140625 300.847656 232.910156 294.433594 243.519531 C 286.671875 256.347656 278.515625 268.855469 270.441406 281.527344 C 263.710938 292.058594 256.902344 302.585938 250.011719 313.117188 C 246.449219 318.582031 242.648438 323.964844 238.53125 329.113281 C 238.054688 329.746094 237.5 330.300781 236.949219 330.855469 C 235.839844 332.042969 234.414062 332.835938 232.75 333.152344 C 231.167969 333.46875 229.425781 333.46875 227.84375 333.070312 C 227.445312 332.992188 227.050781 332.835938 226.652344 332.675781 C 225.308594 332.042969 224.914062 331.25 225.464844 329.90625 C 226.335938 328.003906 227.207031 326.105469 228.238281 324.285156 C 232.433594 316.601562 237.027344 309.160156 241.699219 301.796875 C 250.960938 287.226562 260.304688 272.738281 269.570312 258.167969 C 276.695312 246.921875 283.742188 235.523438 290.078125 223.804688 C 293.957031 216.914062 297.441406 209.789062 300.53125 202.503906 C 301.242188 200.761719 301.796875 198.859375 302.429688 197.039062 C 302.507812 196.722656 302.589844 196.40625 302.589844 196.167969 C 302.113281 196.40625 301.796875 196.566406 301.480469 196.722656 C 290.949219 202.265625 280.8125 208.441406 271.074219 215.25 C 258.960938 223.644531 247.242188 232.671875 235.839844 241.933594 C 227.605469 248.585938 219.449219 255.316406 211.53125 262.363281 C 201 271.707031 190.945312 281.527344 181.519531 291.898438 C 178.910156 294.828125 176.136719 297.597656 173.445312 300.449219 C 172.652344 301.242188 171.859375 301.953125 170.992188 302.667969 C 169.089844 304.25 166.792969 305.199219 164.339844 305.359375 C 162.121094 305.675781 159.824219 305.4375 157.6875 304.804688 C 156.976562 304.566406 156.261719 304.25 155.628906 303.855469 C 154.679688 303.300781 154.046875 302.191406 154.125 301.082031 C 154.125 299.816406 154.363281 298.550781 154.679688 297.363281 C 158.402344 281.84375 164.101562 266.878906 171.703125 252.863281 C 177.402344 242.253906 183.578125 231.878906 190.390625 221.902344 C 190.628906 221.664062 190.785156 221.269531 190.863281 220.953125 C 190.546875 221.109375 190.308594 221.269531 189.992188 221.507812 C 177.800781 229.425781 165.605469 237.421875 153.414062 245.339844 C 147.078125 249.378906 140.585938 253.101562 133.855469 256.425781 C 129.421875 258.640625 124.75 260.382812 119.917969 261.492188 C 115.40625 262.523438 110.734375 262.761719 106.140625 262.125 C 104.003906 261.808594 101.945312 261.253906 99.964844 260.304688 C 95.214844 258.089844 92.523438 254.289062 91.570312 249.21875 C 90.9375 245.339844 91.097656 241.460938 92.046875 237.660156 C 93.3125 232.273438 95.214844 227.128906 97.75 222.296875 C 98.460938 220.875 99.253906 219.449219 99.964844 218.023438 L 100.359375 217.152344 C 99.808594 217.390625 99.488281 217.46875 99.171875 217.625 C 93.234375 220.238281 87.058594 222.457031 80.804688 224.277344 C 75.5 225.863281 70.035156 226.574219 64.492188 226.496094 C 60.929688 226.414062 57.367188 225.703125 54.039062 224.4375 C 51.109375 223.328125 48.578125 221.191406 46.992188 218.417969 C 45.648438 215.804688 45.09375 212.796875 45.410156 209.867188 C 45.804688 205.117188 47.390625 200.761719 49.449219 196.484375 C 52.457031 190.546875 56.019531 184.925781 60.214844 179.777344 C 65.757812 172.890625 71.699219 166.398438 78.03125 160.300781 C 92.601562 145.890625 108.277344 132.746094 125.066406 120.949219 C 136.230469 113.03125 147.710938 105.664062 159.351562 98.382812 C 178.273438 86.503906 197.59375 75.339844 217.3125 64.730469 C 228.238281 58.871094 239.242188 53.167969 250.328125 47.625 C 259.355469 43.191406 268.539062 39.074219 277.644531 34.878906 C 280.574219 33.453125 283.742188 32.503906 286.988281 32.027344 C 290.554688 31.394531 294.117188 31.394531 297.679688 31.949219 C 298.472656 32.105469 299.261719 32.421875 299.976562 32.742188 C 300.449219 32.976562 300.925781 33.292969 301.320312 33.769531 C 301.953125 34.324219 302.035156 35.351562 301.480469 35.988281 C 301.402344 36.066406 301.402344 36.066406 301.320312 36.144531 C 300.847656 36.621094 300.292969 36.9375 299.738281 37.253906 C 298.390625 37.808594 296.886719 38.203125 295.382812 38.203125 C 295.304688 38.203125 295.222656 38.203125 295.066406 38.203125 C 292.53125 37.964844 290.15625 38.757812 287.941406 39.789062 C 282.554688 42.242188 277.25 44.777344 271.867188 47.230469 C 260.148438 52.535156 248.746094 58.554688 237.34375 64.570312 C 209.550781 79.140625 182.472656 94.976562 156.105469 112.078125 C 142.644531 120.710938 129.578125 130.132812 117.148438 140.1875 C 104.320312 150.5625 92.363281 161.882812 81.277344 174.078125 C 75.734375 180.015625 70.90625 186.507812 66.710938 193.476562 C 64.414062 197.277344 62.59375 201.394531 61.40625 205.75 C 60.691406 208.285156 60.453125 210.898438 60.769531 213.429688 C 60.929688 214.933594 61.484375 216.359375 62.273438 217.625 C 63.304688 219.289062 65.285156 220.160156 67.265625 219.84375 C 70.273438 219.367188 73.203125 218.65625 76.132812 217.625 C 83.417969 215.171875 90.621094 212.164062 97.511719 208.757812 C 101.3125 206.9375 105.03125 205.117188 108.753906 203.296875 C 109.308594 203.058594 109.785156 202.660156 110.179688 202.109375 C 119.285156 189.835938 129.421875 178.273438 140.425781 167.664062 C 159.589844 149.054688 180.332031 132.03125 202.347656 116.910156 C 224.914062 101.230469 248.902344 87.769531 273.925781 76.527344 C 283.980469 72.015625 294.355469 68.214844 304.882812 65.125 C 308.367188 64.097656 311.933594 63.460938 315.496094 63.226562 C 318.265625 63.066406 321.039062 63.382812 323.648438 64.097656 C 324.917969 64.414062 326.105469 65.046875 327.132812 65.757812 C 329.035156 67.027344 329.90625 69.402344 329.351562 71.617188 C 329.035156 73.121094 328.402344 74.546875 327.609375 75.894531 C 325.945312 78.746094 323.96875 81.4375 321.75 83.96875 C 317.316406 89.039062 312.484375 93.710938 307.261719 97.984375 C 298.707031 105.113281 289.761719 111.523438 280.65625 117.9375 C 268.777344 126.253906 256.347656 133.855469 243.835938 141.296875 C 226.574219 151.589844 208.917969 161.328125 191.261719 170.910156 C 177.167969 178.589844 162.835938 185.875 148.503906 193.238281 C 140.347656 197.515625 132.113281 201.632812 123.878906 205.828125 C 123.480469 205.988281 123.085938 206.304688 122.769531 206.699219 C 117.78125 213.589844 113.585938 221.03125 110.179688 228.871094 C 108.4375 232.910156 107.171875 237.183594 106.539062 241.539062 C 106.140625 244.3125 106.21875 247.082031 106.855469 249.851562 C 107.171875 251.277344 107.804688 252.625 108.597656 253.8125 C 109.070312 254.367188 109.546875 254.921875 110.101562 255.394531 C 110.574219 255.871094 111.289062 256.03125 111.921875 255.871094 C 114.535156 255.316406 117.066406 254.523438 119.523438 253.417969 C 124.828125 251.042969 129.976562 248.269531 134.964844 245.261719 C 143.117188 240.511719 151.035156 235.285156 158.953125 230.058594 C 176.214844 218.65625 193.476562 207.175781 210.660156 195.695312 C 211.054688 195.457031 211.371094 195.140625 211.6875 194.742188 C 225.070312 179.699219 239.242188 165.289062 254.210938 151.75 C 260.9375 145.492188 268.304688 139.871094 276.0625 134.882812 C 280.339844 132.113281 285.011719 129.972656 289.917969 128.628906 C 292.769531 127.835938 295.699219 127.519531 298.628906 127.597656 C 300.53125 127.679688 302.429688 127.996094 304.171875 128.707031 C 304.882812 128.945312 305.519531 129.339844 306.074219 129.738281 C 307.578125 130.6875 308.289062 132.507812 307.65625 134.25 C 307.339844 135.199219 306.941406 136.148438 306.46875 137.019531 C 305.121094 139.316406 303.460938 141.457031 301.636719 143.355469 C 296.964844 148.582031 291.742188 153.332031 286.117188 157.527344 C 278.675781 163.152344 270.996094 168.375 263.15625 173.445312 C 250.644531 181.601562 238.136719 189.753906 225.625 197.910156 C 225.070312 198.226562 224.59375 198.703125 224.199219 199.179688 C 207.097656 218.894531 192.765625 240.828125 181.601562 264.34375 C 179.066406 269.648438 176.851562 275.03125 174.949219 280.574219 C 174.871094 280.890625 174.710938 281.207031 174.632812 281.527344 Z M 137.179688 188.25 L 137.339844 188.410156 C 137.574219 188.25 137.894531 188.171875 138.128906 188.011719 L 150.484375 181.679688 C 179.859375 166.476562 208.917969 150.71875 237.34375 133.695312 C 254.683594 123.402344 271.3125 112.160156 287.304688 99.886719 C 292.769531 95.769531 297.917969 91.335938 302.746094 86.582031 C 306.070312 83.335938 309.082031 79.773438 311.773438 75.894531 C 312.722656 74.546875 313.4375 73.121094 313.992188 71.617188 C 314.148438 71.222656 314.226562 70.746094 314.308594 70.113281 C 313.671875 70.273438 313.277344 70.351562 312.882812 70.507812 C 303.695312 73.203125 294.671875 76.527344 285.882812 80.40625 C 264.820312 89.75 244.46875 100.835938 225.230469 113.503906 C 203.136719 127.914062 182.3125 144.066406 162.914062 161.964844 C 154.125 170.039062 145.730469 178.511719 137.894531 187.539062 Z M 256.269531 165.527344 L 256.347656 165.605469 C 256.503906 165.527344 256.742188 165.445312 256.902344 165.289062 C 257.691406 164.734375 258.484375 164.257812 259.277344 163.707031 C 266.085938 159.191406 272.578125 154.363281 278.835938 149.214844 C 282.714844 145.96875 286.277344 142.40625 289.445312 138.527344 C 289.601562 138.289062 289.839844 138.050781 290 137.734375 C 289.601562 137.8125 289.285156 137.890625 288.96875 138.128906 C 283.902344 141.296875 279.070312 144.859375 274.480469 148.660156 C 268.222656 153.808594 262.363281 159.429688 256.503906 165.050781 C 256.425781 165.210938 256.347656 165.367188 256.269531 165.527344 Z M 256.269531 165.527344 " fill-opacity="1" fill-rule="nonzero"/></g></svg>