<svg xmlns="http://www.w3.org/2000/svg" xmlns:xlink="http://www.w3.org/1999/xlink" width="500" zoomAndPan="magnify" viewBox="0 0 375 374.999991" height="500" preserveAspectRatio="xMidYMid meet" version="1.0"><defs><clipPath id="a48d53a2ee"><path d="M 37.5 44.367188 L 363 44.367188 L 363 300.117188 L 37.5 300.117188 Z M 37.5 44.367188 " clip-rule="nonzero"/></clipPath></defs><g clip-path="url(#a48d53a2ee)"><path fill="#181ddb" d="M 192.902344 142.773438 C 192.902344 142.347656 192.902344 141.921875 192.972656 141.496094 C 193.683594 138.792969 194.535156 136.023438 195.175781 133.324219 C 195.671875 131.335938 195.886719 129.34375 196.3125 127.355469 C 196.738281 125.367188 197.09375 123.449219 197.449219 121.457031 C 197.734375 119.964844 197.945312 118.542969 198.160156 117.050781 C 198.515625 114.210938 198.871094 111.441406 199.152344 108.597656 C 199.226562 107.886719 199.226562 107.175781 199.296875 106.464844 C 199.296875 105.828125 199.367188 105.257812 199.507812 104.691406 C 200.007812 102.984375 199.507812 101.207031 199.722656 99.433594 C 199.933594 96.875 199.933594 94.316406 199.792969 91.757812 C 199.722656 88.917969 199.722656 86.074219 199.507812 83.230469 C 199.296875 80.105469 198.941406 76.980469 198.515625 73.851562 C 198.230469 72.289062 197.875 70.726562 197.378906 69.234375 C 196.878906 67.53125 196.382812 65.824219 195.886719 64.121094 C 195.105469 61.207031 193.753906 58.507812 191.90625 56.160156 C 190.128906 53.816406 187.5 52.394531 184.589844 52.183594 C 183.523438 52.113281 182.457031 51.828125 181.320312 51.757812 C 179.117188 51.683594 176.914062 51.898438 174.78125 52.394531 C 173.007812 52.820312 171.230469 53.460938 169.597656 54.242188 C 167.605469 55.023438 165.617188 56.019531 163.839844 57.226562 C 162.777344 57.867188 161.566406 58.292969 160.714844 59.359375 C 160.644531 59.429688 160.5 59.5 160.429688 59.570312 C 159.578125 60.140625 158.726562 60.636719 157.871094 61.207031 C 156.808594 61.988281 155.8125 62.839844 154.816406 63.621094 C 154.320312 63.976562 153.824219 64.332031 153.324219 64.6875 C 151.335938 66.039062 149.984375 68.027344 148.140625 69.519531 C 147.570312 70.015625 147.074219 70.585938 146.648438 71.222656 C 146.21875 71.652344 145.722656 72.007812 145.226562 72.433594 C 145.082031 72.574219 144.800781 72.644531 144.726562 72.859375 C 144.300781 74.207031 143.164062 74.992188 142.242188 76.054688 C 141.316406 77.121094 140.609375 78.117188 139.753906 79.183594 C 138.902344 80.25 138.050781 81.527344 137.125 82.664062 C 136.558594 83.375 135.917969 83.941406 135.421875 84.722656 C 134.425781 86.144531 133.574219 87.707031 132.578125 89.128906 C 131.867188 90.125 131.085938 91.191406 130.445312 92.253906 C 129.453125 93.960938 128.246094 95.453125 127.109375 97.085938 C 126.824219 97.511719 126.609375 98.011719 126.398438 98.507812 C 125.332031 100.355469 124.40625 102.203125 123.34375 104.050781 C 122.277344 105.898438 121.210938 107.886719 120.285156 109.875 C 119.859375 110.800781 119.222656 111.582031 118.722656 112.503906 C 117.871094 114.140625 117.089844 115.84375 116.238281 117.550781 C 115.738281 118.617188 115.242188 119.679688 114.746094 120.746094 C 114.320312 121.601562 113.964844 122.523438 113.609375 123.449219 C 113.394531 123.945312 113.109375 124.441406 112.898438 124.9375 C 112.398438 125.933594 111.972656 127 111.40625 127.996094 C 111.121094 128.492188 110.835938 128.988281 110.480469 129.558594 L 110.695312 129.769531 C 110.054688 131.191406 109.414062 132.542969 108.847656 133.964844 C 108.066406 136.09375 107.214844 138.15625 106.289062 140.285156 C 105.792969 141.496094 105.367188 142.773438 105.082031 144.050781 C 105.011719 144.265625 105.082031 144.480469 105.152344 144.691406 C 105.507812 145.332031 105.578125 146.042969 105.367188 146.753906 C 105.292969 146.894531 105.292969 147.035156 105.367188 147.179688 C 106.289062 148.527344 105.933594 150.164062 106.21875 151.65625 C 106.433594 153.148438 106.574219 154.710938 106.574219 156.273438 C 106.785156 158.832031 107 161.460938 107.214844 164.019531 C 107.355469 165.652344 107.355469 167.285156 107.425781 168.921875 C 107.496094 170.910156 107.710938 172.898438 107.710938 174.886719 C 107.710938 177.445312 107.710938 180.003906 107.640625 182.5625 C 107.496094 185.6875 107.285156 188.742188 107.140625 191.871094 C 107 194.640625 106.859375 197.410156 106.574219 200.183594 C 106.359375 202.597656 106.148438 204.941406 105.863281 207.289062 C 105.648438 209.207031 105.367188 211.125 105.082031 213.042969 C 104.511719 216.808594 103.945312 220.574219 103.304688 224.339844 C 102.878906 226.898438 102.382812 229.457031 101.882812 232.015625 C 101.175781 235.496094 100.390625 238.90625 99.609375 242.386719 C 99.539062 242.8125 99.398438 243.167969 99.183594 243.523438 C 98.828125 243.949219 98.617188 244.519531 98.757812 245.085938 C 98.757812 245.726562 98.617188 246.4375 98.402344 247.003906 C 97.550781 249.847656 96.699219 252.691406 95.84375 255.53125 C 95.84375 255.601562 95.84375 255.601562 95.773438 255.675781 C 94.496094 257.804688 94.210938 260.292969 93.144531 262.496094 C 92.292969 264.34375 91.652344 266.261719 90.871094 268.109375 C 90.089844 269.957031 89.167969 271.945312 88.3125 273.792969 C 87.035156 276.632812 85.472656 279.261719 83.625 281.75 C 83.410156 282.035156 83.269531 282.316406 83.054688 282.671875 C 81.351562 285.300781 79.359375 287.648438 76.519531 289.140625 C 74.671875 290.132812 72.398438 289.777344 70.835938 288.359375 C 70.265625 287.789062 69.769531 287.148438 69.484375 286.367188 C 68.917969 284.59375 68.703125 282.671875 68.84375 280.828125 C 68.917969 280.542969 68.988281 280.257812 68.988281 279.972656 C 69.058594 279.761719 69.058594 279.617188 68.988281 279.40625 C 68.492188 278.625 68.347656 277.628906 68.632812 276.707031 C 68.84375 276.066406 68.632812 275.285156 68.632812 274.503906 C 68.703125 273.152344 68.917969 271.730469 68.84375 270.382812 C 68.773438 268.746094 68.917969 267.042969 68.988281 265.40625 C 69.058594 264.128906 69.34375 262.921875 69.484375 261.640625 C 69.699219 260.007812 69.769531 258.304688 69.980469 256.667969 C 70.125 255.320312 70.480469 253.96875 70.265625 252.617188 C 70.90625 251.765625 70.550781 250.699219 70.765625 249.777344 C 70.976562 248.851562 70.976562 247.859375 71.191406 246.933594 C 71.757812 244.730469 71.6875 242.457031 72.113281 240.257812 C 72.398438 239.046875 72.609375 237.769531 72.753906 236.488281 C 72.824219 235 73.320312 233.578125 73.25 232.085938 C 73.179688 231.375 73.320312 230.664062 73.605469 230.023438 C 74.03125 229.101562 73.464844 228.035156 74.246094 227.253906 C 73.960938 225.832031 74.8125 224.554688 74.742188 223.203125 C 74.8125 222.421875 74.957031 221.710938 75.238281 220.929688 C 75.667969 219.578125 75.453125 218.085938 76.164062 216.738281 C 76.589844 216.027344 76.449219 214.960938 76.519531 214.039062 C 76.519531 213.894531 76.519531 213.613281 76.589844 213.539062 C 77.160156 212.902344 77.015625 212.046875 77.085938 211.410156 C 77.230469 209.847656 77.726562 208.355469 77.867188 206.863281 C 78.082031 205.582031 78.296875 204.304688 78.652344 203.023438 C 79.148438 200.964844 79.359375 198.761719 79.859375 196.703125 C 80.285156 194.710938 80.996094 192.792969 81.421875 190.875 C 81.5625 190.09375 82.132812 189.382812 81.917969 188.460938 C 81.847656 188.105469 82.203125 187.679688 82.34375 187.25 C 82.628906 186.683594 82.84375 186.042969 82.914062 185.402344 C 82.84375 184.621094 83.410156 184.125 83.410156 183.558594 C 83.410156 182.421875 83.980469 181.496094 84.265625 180.5 C 84.617188 179.152344 85.046875 177.800781 85.472656 176.453125 C 85.828125 175.597656 86.109375 174.675781 86.253906 173.75 C 86.253906 173.324219 86.679688 172.96875 86.820312 172.542969 C 87.175781 171.476562 87.53125 170.414062 87.746094 169.277344 C 88.101562 168.140625 88.527344 167 88.953125 165.863281 C 89.238281 164.941406 89.523438 164.019531 89.804688 163.09375 C 90.089844 162.097656 90.445312 161.105469 90.871094 160.109375 C 91.652344 158.191406 92.292969 156.273438 92.789062 154.285156 C 93.074219 153.644531 93.429688 153.003906 93.785156 152.367188 C 93.925781 152.082031 93.925781 151.796875 93.996094 151.511719 C 93.996094 151.300781 93.925781 150.945312 93.996094 150.875 C 94.851562 150.375 94.566406 149.382812 94.921875 148.671875 C 95.277344 147.960938 95.277344 146.964844 95.773438 146.398438 C 96.484375 145.542969 96.414062 144.550781 96.839844 143.625 C 97.691406 141.707031 97.621094 141.636719 97.265625 139.648438 C 96.554688 135.953125 95.347656 132.328125 93.714844 128.917969 C 93.429688 128.421875 93.074219 127.996094 92.71875 127.570312 C 92.503906 127.285156 92.292969 127 92.007812 126.785156 C 91.796875 126.503906 91.511719 126.21875 91.15625 126.003906 C 89.59375 125.222656 87.746094 125.082031 86.039062 125.578125 C 84.121094 126.148438 82.34375 127 80.710938 128.207031 C 78.792969 129.414062 77.015625 130.90625 75.523438 132.683594 C 74.742188 133.609375 73.75 134.460938 72.894531 135.3125 C 71.472656 136.875 70.195312 138.582031 69.128906 140.359375 C 68.277344 141.707031 67.28125 142.988281 66.5 144.40625 C 65.363281 146.398438 64.296875 148.527344 63.160156 150.519531 C 62.238281 152.011719 61.457031 153.644531 60.886719 155.277344 C 60.53125 156.058594 60.175781 156.839844 59.679688 157.625 C 58.898438 159.257812 58.1875 160.960938 57.40625 162.667969 C 56.625 164.375 55.914062 166.007812 55.203125 167.640625 C 55.0625 168.066406 54.847656 168.421875 54.707031 168.847656 C 54.136719 170.339844 53.640625 171.832031 53.070312 173.324219 C 52.574219 174.460938 52.148438 175.671875 51.792969 176.878906 C 51.578125 177.871094 51.082031 178.726562 50.941406 179.792969 C 50.726562 181.285156 49.945312 182.703125 49.449219 184.125 C 49.234375 184.765625 49.09375 185.476562 48.949219 186.1875 C 48.738281 187.324219 48.523438 188.460938 48.3125 189.667969 C 48.167969 190.519531 48.097656 191.445312 47.886719 192.296875 C 47.386719 194 47.105469 195.707031 46.960938 197.484375 C 46.960938 197.695312 46.890625 197.910156 46.75 198.121094 C 46.464844 198.691406 46.320312 199.332031 46.320312 200.039062 C 46.179688 201.960938 45.894531 203.804688 45.683594 205.726562 C 45.46875 207.644531 45.328125 209.5625 45.183594 211.480469 C 45.113281 213.183594 45.257812 214.960938 45.183594 216.667969 C 45.113281 218.871094 45.183594 221.070312 45.46875 223.203125 C 45.753906 225.691406 46.320312 228.25 46.675781 230.734375 C 47.03125 232.9375 47.316406 235.140625 47.53125 237.34375 C 47.671875 238.90625 45.824219 240.824219 44.402344 240.894531 C 43.339844 240.824219 42.34375 240.328125 41.632812 239.472656 C 40.851562 238.550781 40.355469 237.414062 40.28125 236.207031 C 40.140625 235 39.714844 233.789062 39.5 232.582031 C 39.144531 231.160156 38.933594 229.742188 38.933594 228.320312 C 38.933594 227.253906 38.789062 226.1875 38.507812 225.191406 C 37.867188 222.777344 37.9375 220.289062 38.007812 217.875 C 38.007812 217.09375 37.867188 216.3125 37.867188 215.601562 C 37.867188 213.824219 37.867188 212.046875 37.796875 210.203125 C 38.507812 209.347656 37.511719 208.210938 38.292969 207.359375 C 38.007812 206.433594 38.363281 205.511719 38.433594 204.589844 C 38.363281 203.734375 38.507812 202.953125 38.789062 202.171875 C 38.933594 201.746094 39.003906 201.25 39.003906 200.75 C 39.074219 200.324219 39.074219 199.898438 39.144531 199.472656 C 39.289062 198.621094 39.574219 197.695312 39.714844 196.84375 C 39.714844 196.703125 39.5 196.488281 39.5 196.558594 C 39.714844 195.421875 39.925781 194.5 40.070312 193.574219 C 40.140625 192.9375 40 192.296875 40.566406 191.800781 C 40.710938 191.65625 40.710938 191.445312 40.710938 191.300781 C 40.496094 189.453125 41.347656 187.679688 41.417969 185.832031 C 41.417969 185.617188 41.492188 185.402344 41.632812 185.191406 C 42.34375 184.339844 42.273438 183.203125 42.414062 182.207031 C 42.484375 181.566406 42.699219 181 42.910156 180.429688 C 43.550781 179.007812 43.691406 177.375 44.191406 175.882812 C 44.261719 175.597656 44.832031 175.386719 44.832031 175.171875 C 44.832031 174.960938 44.546875 174.535156 44.972656 174.25 C 45.042969 174.179688 45.113281 174.105469 45.113281 174.035156 C 44.902344 172.542969 46.039062 171.40625 46.320312 170.058594 C 46.394531 169.773438 46.464844 169.558594 46.605469 169.347656 C 47.246094 168.28125 47.671875 167.144531 47.957031 166.007812 C 48.523438 164.019531 49.734375 162.3125 50.230469 160.253906 C 50.515625 158.972656 51.367188 157.835938 52.007812 156.699219 C 52.503906 155.703125 53.285156 154.78125 53.570312 153.785156 C 53.78125 152.863281 54.136719 152.011719 54.636719 151.15625 C 55.347656 150.019531 55.914062 148.882812 56.484375 147.675781 C 57.050781 146.46875 57.761719 145.472656 58.257812 144.265625 C 59.039062 142.703125 59.894531 141.28125 60.816406 139.789062 C 61.457031 138.652344 62.09375 137.585938 62.878906 136.519531 C 63.800781 135.171875 64.722656 133.820312 65.71875 132.542969 C 67 130.90625 68.347656 129.414062 69.699219 127.851562 C 70.480469 127 71.332031 126.21875 72.183594 125.507812 C 73.039062 124.796875 73.890625 124.15625 74.742188 123.519531 C 77.585938 121.386719 80.496094 119.328125 84.050781 118.402344 C 85.683594 117.90625 87.390625 117.835938 89.023438 118.046875 C 89.949219 118.191406 90.941406 118.117188 91.867188 118.191406 C 92.433594 118.261719 92.933594 118.472656 93.429688 118.757812 C 94.496094 119.398438 95.488281 120.035156 96.484375 120.746094 C 97.480469 121.527344 98.332031 122.523438 98.828125 123.660156 C 99.113281 124.15625 99.46875 124.65625 99.824219 125.152344 C 100.890625 126.503906 101.246094 128.136719 101.882812 129.699219 C 101.957031 129.914062 102.097656 130.125 102.3125 130.480469 C 102.738281 129.273438 103.234375 128.066406 103.804688 126.929688 C 104.585938 125.648438 104.441406 123.945312 105.578125 122.808594 C 106.078125 122.3125 106.148438 121.386719 106.433594 120.675781 C 106.644531 120.109375 106.929688 119.539062 107.285156 119.042969 C 107.570312 118.542969 107.285156 117.761719 108.136719 117.550781 C 108.5625 116.484375 108.917969 115.347656 109.414062 114.28125 C 109.914062 113.144531 110.410156 112.078125 111.050781 111.011719 C 111.617188 110.160156 111.761719 109.09375 112.683594 108.597656 C 112.753906 108.597656 112.753906 108.527344 112.753906 108.457031 C 112.828125 106.609375 114.175781 105.328125 114.816406 103.695312 C 115.457031 102.34375 116.164062 100.996094 116.949219 99.644531 C 117.65625 98.222656 118.511719 96.804688 119.503906 95.523438 C 120.003906 94.957031 120.359375 94.246094 120.640625 93.535156 C 121.636719 91.402344 122.914062 89.34375 124.335938 87.496094 C 124.976562 86.570312 125.617188 85.578125 126.324219 84.722656 C 127.320312 83.515625 127.816406 82.023438 129.097656 80.957031 C 129.738281 80.25 130.234375 79.539062 130.660156 78.683594 C 131.582031 77.191406 132.722656 75.84375 133.785156 74.492188 C 134.851562 73.144531 136.203125 71.722656 137.410156 70.371094 C 138.972656 68.523438 140.394531 66.394531 142.382812 64.902344 C 142.738281 64.6875 143.09375 64.476562 143.519531 64.261719 C 143.589844 63.410156 144.445312 62.769531 145.15625 62.128906 C 146.148438 61.277344 146.929688 60.355469 147.996094 59.570312 C 148.777344 59.003906 149.347656 58.152344 150.339844 57.796875 C 150.980469 57.511719 151.476562 57.085938 151.832031 56.589844 C 152.757812 55.378906 154.179688 54.742188 155.386719 53.886719 C 157.089844 52.679688 158.9375 51.542969 160.714844 50.476562 C 163.558594 48.773438 166.542969 47.351562 169.738281 46.355469 C 172.582031 45.503906 175.492188 44.863281 178.40625 44.4375 C 178.550781 44.367188 178.691406 44.367188 178.832031 44.367188 C 182.386719 44.582031 186.007812 44.582031 189.417969 45.929688 C 191.695312 46.710938 193.753906 47.992188 195.460938 49.695312 C 197.023438 51.332031 198.300781 53.105469 199.296875 55.097656 C 199.4375 55.523438 199.792969 55.804688 199.933594 56.234375 C 200.21875 56.730469 200.71875 57.15625 200.644531 57.867188 C 200.574219 58.152344 200.859375 58.433594 201 58.71875 C 201.925781 60.78125 202.707031 62.839844 203.273438 65.042969 C 204.269531 68.523438 204.980469 72.078125 205.40625 75.699219 C 206.046875 79.964844 206.402344 84.226562 206.472656 88.5625 C 206.542969 90.621094 206.683594 92.609375 206.757812 94.671875 C 206.757812 95.878906 206.613281 97.015625 206.613281 98.222656 C 206.542969 99.789062 206.542969 101.351562 206.542969 102.984375 C 206.472656 106.109375 206.1875 109.238281 205.691406 112.363281 C 205.335938 114.992188 204.910156 117.621094 204.625 120.25 C 204.269531 123.589844 203.558594 126.859375 202.847656 130.199219 C 202.28125 132.898438 201.710938 135.667969 201.070312 138.367188 C 200.574219 140.359375 199.933594 142.277344 199.367188 144.265625 C 198.871094 145.96875 198.371094 147.675781 197.875 149.523438 C 198.441406 149.453125 199.011719 149.238281 199.507812 148.8125 C 200.289062 148.171875 201.070312 147.675781 201.925781 147.179688 C 203.558594 146.113281 205.121094 145.046875 206.757812 144.050781 C 209.171875 142.558594 211.730469 141.140625 214.003906 139.503906 C 215.992188 138.085938 218.265625 137.230469 220.328125 135.882812 C 221.320312 135.382812 222.316406 134.886719 223.3125 134.53125 C 225.65625 133.394531 228 132.117188 230.34375 131.050781 C 232.476562 130.054688 234.609375 129.132812 236.738281 128.277344 C 239.722656 127.140625 242.707031 126.003906 245.691406 125.011719 C 247.398438 124.441406 249.175781 124.015625 250.878906 123.519531 C 251.804688 123.234375 252.726562 122.878906 253.648438 122.59375 C 255.996094 121.957031 258.339844 121.386719 260.683594 120.820312 C 264.023438 120.035156 267.363281 119.328125 270.632812 118.542969 C 274.964844 117.480469 279.371094 117.054688 283.777344 116.414062 C 285.625 116.058594 287.472656 115.988281 289.316406 116.199219 C 290.808594 116.414062 292.300781 116.199219 293.792969 116.269531 C 295.429688 116.269531 296.992188 116.554688 298.484375 117.195312 C 299.335938 117.480469 300.1875 117.90625 300.96875 118.332031 C 301.539062 118.6875 301.824219 119.398438 302.390625 119.824219 C 304.097656 121.246094 304.808594 123.375 305.800781 125.222656 C 306.15625 126.003906 306.371094 126.859375 306.441406 127.78125 C 307.011719 130.625 307.152344 133.464844 306.9375 136.378906 C 306.582031 139.433594 306.226562 142.558594 305.660156 145.617188 C 305.445312 147.320312 304.949219 148.882812 304.167969 150.375 C 303.742188 151.300781 303.386719 152.292969 303.101562 153.289062 C 302.816406 154.070312 302.460938 154.851562 302.035156 155.5625 C 300.6875 158.191406 299.40625 160.890625 297.988281 163.449219 C 297.132812 165.011719 296.566406 166.648438 295.429688 168.066406 C 294.503906 169.203125 293.9375 170.695312 293.15625 171.976562 C 292.230469 173.46875 291.238281 174.960938 290.242188 176.378906 C 289.105469 178.15625 287.96875 179.933594 286.761719 181.78125 C 285.90625 183.128906 284.984375 184.480469 284.058594 185.832031 C 282.425781 188.316406 280.578125 190.589844 278.730469 192.9375 C 277.167969 194.855469 275.890625 196.984375 274.46875 199.046875 C 273.757812 200.039062 272.90625 201.035156 272.125 202.03125 C 270.488281 204.160156 268.925781 206.363281 267.222656 208.425781 C 265.730469 210.414062 264.09375 212.261719 262.53125 214.179688 C 262.035156 214.820312 261.394531 215.386719 260.828125 215.957031 L 260.96875 216.242188 C 262.035156 215.957031 263.101562 215.8125 264.164062 215.460938 C 265.230469 215.105469 266.011719 214.675781 267.007812 214.320312 C 268.570312 213.824219 270.207031 213.328125 271.839844 212.972656 C 273.261719 212.476562 274.679688 212.046875 276.101562 211.765625 C 276.957031 211.550781 277.878906 211.195312 278.660156 210.839844 C 281.003906 210.128906 283.277344 209.417969 285.625 208.710938 C 286.476562 208.425781 287.328125 208.140625 288.253906 207.855469 C 288.75 207.714844 289.246094 207.5 289.746094 207.359375 C 291.238281 206.933594 292.800781 206.433594 294.292969 206.007812 C 296.421875 205.441406 298.625 204.871094 300.828125 204.304688 C 301.679688 204.089844 302.605469 203.878906 303.527344 203.734375 C 306.65625 203.167969 309.710938 202.242188 312.90625 202.03125 C 313.902344 201.886719 314.898438 201.675781 315.820312 201.320312 C 316.816406 201.105469 317.808594 200.894531 318.804688 200.75 C 321.078125 200.46875 323.28125 199.96875 325.554688 199.613281 C 326.761719 199.402344 327.96875 199.257812 329.179688 199.046875 C 329.886719 198.902344 330.597656 198.691406 331.378906 198.546875 C 332.800781 198.335938 334.222656 198.265625 335.574219 198.050781 C 336.28125 197.980469 336.921875 197.765625 337.632812 197.625 C 338.203125 197.554688 338.769531 197.554688 339.339844 197.484375 C 340.972656 197.269531 342.535156 197.058594 344.167969 196.914062 C 346.726562 196.773438 349.285156 196.558594 351.773438 196.628906 C 353.832031 196.628906 355.894531 196.347656 358.023438 196.773438 C 359.871094 197.058594 361.433594 198.265625 362.144531 199.898438 C 363.140625 202.101562 361.578125 203.804688 359.375 204.304688 C 357.8125 204.589844 356.175781 204.660156 354.613281 204.375 C 353.40625 204.234375 352.269531 204.234375 351.0625 204.304688 C 349.144531 204.375 347.226562 204.589844 345.304688 204.730469 C 344.453125 204.800781 343.53125 205.015625 342.675781 205.085938 C 342.324219 205.085938 341.96875 205.015625 341.613281 205.085938 C 339.125 205.371094 336.636719 205.582031 334.082031 205.867188 C 331.808594 206.082031 329.605469 206.433594 327.332031 206.933594 C 325.199219 207.5 322.996094 207.5 320.9375 208.070312 C 318.804688 208.636719 316.601562 209.0625 314.46875 209.347656 C 310.847656 209.847656 307.292969 210.839844 303.671875 211.339844 C 302.25 211.621094 300.828125 212.046875 299.476562 212.546875 C 297.632812 213.042969 295.855469 213.539062 294.007812 214.039062 C 292.585938 214.464844 291.164062 214.75 289.746094 215.246094 C 287.257812 216.097656 284.699219 217.023438 282.140625 217.734375 C 280.792969 218.089844 279.582031 218.65625 278.234375 219.011719 C 277.027344 219.226562 275.816406 219.578125 274.679688 220.078125 C 274.328125 220.289062 273.757812 220.148438 273.261719 220.363281 C 272.40625 220.644531 271.554688 221.070312 270.703125 221.355469 C 269.070312 221.855469 267.433594 222.351562 265.730469 222.847656 C 264.875 222.992188 264.09375 223.347656 263.457031 223.914062 C 263.027344 224.410156 262.320312 224.128906 261.75 224.410156 C 260.828125 224.835938 259.761719 225.191406 258.765625 225.621094 C 257.273438 226.257812 255.78125 226.828125 254.21875 227.324219 C 253.648438 227.464844 253.082031 227.539062 252.511719 227.539062 C 251.875 227.964844 251.375 228.53125 250.808594 228.605469 C 250.097656 228.746094 249.457031 229.171875 248.960938 229.742188 C 246.6875 232.226562 244.484375 234.714844 242.210938 237.273438 C 241.5 238.054688 240.789062 238.765625 240.078125 239.546875 C 238.230469 241.464844 236.457031 243.453125 234.464844 245.160156 C 233.117188 246.367188 231.980469 247.644531 230.773438 248.925781 C 229.5625 250.203125 228.285156 251.410156 227.007812 252.691406 C 225.441406 254.183594 223.949219 255.675781 222.386719 257.167969 C 220.824219 258.660156 219.261719 260.148438 217.554688 261.5 C 215.496094 263.277344 213.363281 264.910156 211.304688 266.617188 C 210.167969 267.539062 209.101562 268.605469 208.035156 269.601562 C 207.820312 269.8125 207.75 270.3125 207.253906 269.957031 C 207.183594 269.957031 207.039062 270.027344 206.96875 270.097656 C 205.832031 271.304688 204.625 272.441406 203.273438 273.367188 C 200.929688 275.355469 198.300781 276.847656 195.8125 278.625 C 192.902344 280.683594 189.988281 282.671875 186.933594 284.59375 C 184.730469 286.011719 182.386719 287.292969 180.039062 288.429688 C 178.832031 288.925781 177.839844 289.707031 176.628906 290.277344 C 174.429688 291.414062 172.226562 292.480469 169.953125 293.542969 C 167.679688 294.609375 165.476562 295.675781 163.273438 296.601562 C 161.78125 297.238281 160.148438 297.664062 158.582031 298.164062 C 157.234375 298.589844 155.8125 299.015625 154.390625 299.300781 C 153.964844 299.371094 153.609375 299.511719 153.183594 299.65625 L 152.472656 299.085938 C 152.332031 299.085938 152.1875 299.085938 152.1875 299.15625 C 151.90625 299.65625 151.40625 299.867188 150.910156 299.867188 C 149.703125 299.867188 148.492188 300.152344 147.214844 300.152344 C 145.4375 300.082031 143.589844 299.9375 141.816406 299.65625 C 138.832031 299.15625 136.628906 296.601562 136.558594 293.617188 C 136.558594 292.125 136.699219 290.703125 137.125 289.28125 C 137.550781 287.71875 138.546875 286.582031 139.1875 285.230469 C 139.824219 283.882812 141.105469 282.816406 142.027344 281.679688 C 143.308594 280.1875 144.726562 278.835938 146.21875 277.558594 C 148.066406 275.925781 149.984375 274.359375 151.90625 272.867188 C 153.398438 271.730469 154.960938 270.664062 156.453125 269.601562 C 158.085938 268.390625 159.71875 267.042969 161.355469 265.90625 C 162.492188 265.125 163.769531 264.484375 164.976562 263.773438 C 165.476562 263.488281 166.042969 262.78125 166.542969 262.851562 C 167.464844 262.921875 167.605469 262.070312 168.246094 261.855469 C 168.886719 261.714844 169.523438 261.359375 170.09375 260.933594 C 171.941406 259.011719 174.214844 257.875 176.417969 256.597656 C 178.976562 255.035156 181.53125 253.472656 184.089844 251.910156 C 184.660156 251.554688 185.226562 251.339844 185.726562 251.054688 C 187.855469 249.917969 189.988281 248.851562 192.121094 247.714844 C 192.617188 247.433594 193.042969 246.792969 193.539062 246.722656 C 194.535156 246.652344 194.890625 245.726562 195.742188 245.441406 C 196.597656 245.160156 197.378906 244.804688 198.160156 244.378906 C 199.367188 243.738281 200.503906 243.027344 201.710938 242.386719 C 203.203125 241.605469 204.695312 240.683594 206.257812 239.972656 C 207.894531 239.261719 209.527344 238.480469 211.019531 237.484375 C 212.15625 236.84375 213.363281 236.277344 214.644531 235.78125 C 215.851562 235.210938 217.128906 234.714844 218.335938 234.074219 C 220.328125 233.152344 222.246094 232.015625 224.304688 231.304688 C 226.222656 230.664062 227.789062 229.386719 229.636719 228.675781 C 230.34375 228.390625 231.054688 228.105469 231.695312 227.820312 C 232.691406 227.394531 233.683594 226.898438 234.679688 226.472656 C 236.242188 225.832031 237.875 225.191406 239.441406 224.554688 C 241.144531 223.84375 242.921875 223.203125 244.625 222.492188 C 245.335938 222.066406 245.976562 221.570312 246.617188 221.070312 C 247.183594 220.789062 247.539062 220.289062 247.609375 219.652344 C 247.683594 219.367188 247.824219 219.082031 248.109375 218.941406 C 249.671875 218.230469 250.453125 216.738281 251.519531 215.53125 C 252.085938 214.890625 252.441406 214.039062 253.011719 213.328125 C 253.296875 212.972656 253.648438 212.6875 254.003906 212.476562 C 254.785156 212.121094 255.425781 211.480469 255.710938 210.628906 C 255.78125 210.34375 255.851562 209.988281 256.351562 210.058594 C 256.492188 210.058594 256.5625 209.988281 256.632812 209.847656 C 256.988281 208.355469 258.480469 207.714844 259.050781 206.363281 C 259.335938 205.652344 260.1875 205.226562 260.898438 204.660156 C 261.394531 204.160156 261.820312 203.59375 262.105469 203.023438 C 262.957031 201.886719 263.882812 200.824219 264.734375 199.757812 C 265.230469 199.1875 265.65625 198.546875 266.085938 197.980469 C 268.570312 194.640625 271.058594 191.371094 273.472656 188.03125 C 274.753906 186.257812 275.816406 184.339844 277.097656 182.5625 C 278.375 180.785156 279.796875 179.082031 281.074219 177.304688 C 281.644531 176.523438 282.140625 175.671875 282.640625 174.816406 C 283.136719 173.964844 283.492188 173.253906 283.988281 172.542969 C 284.488281 171.90625 284.84375 171.121094 285.054688 170.269531 C 285.054688 170.058594 285.195312 169.84375 285.339844 169.703125 C 286.332031 169.277344 286.546875 168.351562 287.117188 167.570312 C 287.46875 167.003906 287.898438 166.363281 288.324219 165.792969 C 289.316406 164.230469 290.171875 162.597656 290.808594 160.890625 C 290.882812 160.605469 291.09375 160.324219 291.308594 160.109375 C 292.730469 158.546875 293.4375 156.558594 294.363281 154.710938 C 295.285156 152.863281 296.140625 151.085938 296.921875 149.167969 C 297.277344 148.386719 297.488281 147.605469 297.703125 146.824219 C 297.984375 145.828125 298.414062 144.90625 298.625 143.839844 C 299.050781 141.777344 299.40625 139.648438 299.550781 137.585938 C 299.761719 135.953125 299.832031 134.390625 299.832031 132.753906 C 299.832031 130.625 299.335938 128.492188 298.339844 126.644531 C 297.84375 125.367188 296.636719 124.511719 295.285156 124.371094 C 293.511719 124.230469 291.804688 123.800781 290.027344 123.589844 C 289.246094 123.589844 288.464844 123.589844 287.683594 123.730469 C 285.125 124.015625 282.566406 124.511719 280.011719 124.585938 C 278.09375 124.65625 276.386719 125.367188 274.539062 125.578125 C 273.117188 125.722656 271.699219 126.003906 270.277344 126.289062 C 268.359375 126.714844 266.441406 127.214844 264.519531 127.640625 C 263.667969 127.851562 262.816406 127.921875 262.035156 128.136719 C 261.039062 128.421875 259.972656 128.707031 258.980469 128.988281 C 258.269531 129.203125 257.628906 129.414062 256.917969 129.558594 C 254.714844 130.054688 252.585938 130.695312 250.523438 131.476562 C 249.386719 131.902344 248.109375 132.042969 246.972656 132.542969 C 245.835938 133.039062 244.699219 132.96875 243.632812 133.679688 C 242.707031 134.175781 241.785156 134.53125 240.789062 134.816406 C 239.867188 135.171875 238.941406 135.457031 238.019531 135.808594 C 236.953125 136.238281 235.886719 136.664062 234.820312 137.089844 C 234.253906 137.300781 233.753906 137.585938 233.1875 137.871094 C 231.835938 138.511719 230.488281 139.222656 229.136719 139.859375 C 226.652344 141.066406 224.234375 142.347656 221.75 143.554688 C 220.539062 144.265625 219.261719 144.976562 217.910156 145.542969 C 216.492188 146.183594 215.140625 146.964844 213.933594 147.960938 C 213.007812 148.601562 212.015625 149.238281 211.019531 149.808594 C 210.523438 150.089844 210.09375 150.445312 209.597656 150.730469 C 208.886719 151.371094 208.105469 151.9375 207.253906 152.367188 C 206.542969 152.648438 206.328125 153.359375 205.621094 153.574219 C 204.980469 153.929688 204.339844 154.355469 203.773438 154.851562 C 202.847656 155.492188 201.855469 156.132812 200.929688 156.769531 C 200.289062 157.195312 199.652344 157.695312 199.011719 158.191406 C 197.875 158.972656 196.878906 159.753906 195.8125 160.605469 C 194.324219 162.027344 192.546875 163.164062 191.765625 165.15625 C 191.339844 166.148438 190.984375 167.144531 190.628906 168.066406 C 189.136719 171.621094 187.644531 175.101562 186.152344 178.65625 C 185.226562 180.855469 184.304688 183.058594 183.238281 185.191406 C 182.597656 186.542969 181.816406 187.75 181.25 189.027344 C 180.824219 189.878906 180.609375 190.875 180.253906 191.800781 C 179.898438 192.722656 179.402344 193.71875 178.902344 194.710938 C 177.765625 197.058594 176.558594 199.402344 175.421875 201.746094 C 174.925781 202.742188 174.570312 203.664062 174.074219 204.660156 C 172.152344 208.496094 170.234375 212.332031 168.246094 216.167969 C 166.398438 219.652344 164.410156 222.992188 162.5625 226.402344 C 162.207031 227.183594 161.710938 227.964844 161 228.53125 C 160.855469 228.605469 160.855469 228.886719 160.714844 229.03125 C 160.289062 229.8125 159.863281 230.664062 159.4375 231.445312 C 159.152344 231.941406 158.726562 232.441406 158.441406 232.9375 C 157.589844 234.429688 156.523438 235.921875 155.386719 237.199219 C 155.242188 237.34375 155.171875 237.484375 155.101562 237.628906 C 153.46875 239.972656 151.90625 242.386719 150.128906 244.660156 C 148.636719 246.652344 146.929688 248.496094 145.296875 250.34375 C 144.019531 251.835938 142.667969 253.328125 141.246094 254.679688 C 139.824219 256.101562 138.121094 257.167969 136.203125 257.875 C 134.78125 258.375 133.21875 258.160156 132.011719 257.238281 C 131.726562 257.023438 131.511719 256.738281 131.371094 256.382812 C 130.445312 254.679688 129.878906 252.832031 129.738281 250.914062 C 129.664062 248.851562 129.453125 246.792969 129.878906 244.730469 C 129.878906 244.304688 129.878906 243.878906 129.878906 243.453125 C 130.019531 242.101562 130.164062 240.683594 130.375 239.332031 C 130.375 239.261719 130.375 239.261719 130.375 239.191406 C 131.441406 237.839844 130.875 236.136719 131.300781 234.644531 C 131.9375 232.441406 132.4375 230.238281 133.429688 228.175781 C 133.574219 227.894531 133.503906 227.464844 133.644531 227.113281 C 134.140625 226.257812 134.566406 225.335938 134.996094 224.410156 C 135.277344 223.488281 135.777344 222.707031 136.132812 221.78125 C 136.628906 220.574219 137.125 219.367188 137.835938 218.230469 C 138.832031 216.523438 139.613281 214.75 140.535156 212.972656 C 140.960938 212.191406 141.460938 211.410156 141.957031 210.699219 C 142.667969 209.773438 143.234375 208.78125 143.734375 207.714844 C 144.300781 206.648438 144.941406 205.582031 145.722656 204.589844 C 147.003906 202.742188 148.28125 200.824219 149.558594 198.976562 C 150.269531 197.980469 151.050781 197.058594 151.761719 196.0625 C 152.261719 195.28125 152.828125 194.570312 153.398438 193.859375 C 154.746094 192.226562 156.097656 190.519531 157.445312 188.886719 C 158.65625 187.464844 160.074219 186.1875 161.070312 184.621094 C 162.066406 183.058594 163.484375 181.921875 164.550781 180.429688 C 165.332031 179.507812 166.1875 178.65625 167.109375 177.800781 C 167.605469 177.304688 168.035156 176.664062 168.53125 176.097656 C 169.808594 174.605469 171.160156 173.183594 172.652344 171.832031 C 173.363281 171.265625 173.929688 170.339844 174.710938 169.632812 C 176.0625 168.421875 177.269531 167.144531 178.621094 165.863281 C 180.113281 164.445312 181.675781 162.953125 183.167969 161.53125 C 184.089844 160.75 185.015625 159.96875 185.9375 159.1875 C 186.292969 158.902344 186.578125 158.546875 186.71875 158.191406 C 188.28125 153.929688 190.128906 149.738281 191.265625 145.332031 C 191.410156 144.761719 191.550781 144.195312 191.835938 143.695312 C 192.476562 143.058594 192.757812 142.914062 192.902344 142.773438 Z M 99.683594 158.617188 C 99.183594 159.542969 98.757812 160.535156 98.472656 161.601562 C 98.191406 162.808594 97.835938 164.019531 97.40625 165.226562 C 97.335938 165.4375 97.195312 165.582031 97.054688 165.792969 C 96.980469 166.007812 96.769531 166.21875 96.839844 166.363281 C 97.054688 166.789062 96.839844 167 96.625 167.285156 C 96.34375 167.640625 96.199219 168.066406 96.128906 168.492188 C 95.988281 169.984375 95.277344 171.335938 94.707031 172.6875 C 94.351562 173.539062 94.070312 174.390625 93.855469 175.242188 C 93.570312 176.378906 93.359375 177.515625 93.003906 178.65625 C 92.789062 179.363281 92.363281 180.003906 92.222656 180.714844 C 92.078125 181.425781 91.226562 182.066406 91.722656 182.917969 C 91.15625 184.90625 90.585938 186.824219 90.019531 188.816406 C 89.519531 190.589844 88.738281 192.296875 88.738281 194.214844 C 88.738281 194.285156 88.738281 194.355469 88.738281 194.5 C 87.746094 196.203125 87.886719 198.265625 87.246094 200.113281 C 86.75 201.886719 86.394531 203.59375 86.109375 205.371094 C 85.828125 206.648438 85.542969 207.855469 85.257812 209.0625 C 84.902344 210.839844 84.691406 212.6875 84.40625 214.464844 C 84.121094 215.742188 83.910156 217.023438 83.765625 218.371094 C 83.695312 219.652344 82.914062 220.859375 83.125 222.136719 C 83.125 222.136719 83.125 222.207031 83.054688 222.28125 C 82.558594 223.0625 82.773438 223.984375 82.488281 224.765625 C 82.203125 225.972656 82.0625 227.253906 81.917969 228.460938 C 81.917969 228.957031 81.847656 229.457031 81.707031 229.882812 C 81.207031 230.734375 81.351562 231.585938 81.28125 232.441406 C 81.207031 233.648438 80.925781 234.855469 80.710938 236.0625 C 80.570312 237.128906 80.355469 238.125 80.144531 239.117188 C 79.929688 240.113281 79.859375 241.320312 79.644531 242.457031 C 79.359375 244.519531 78.933594 246.578125 78.722656 248.710938 C 78.507812 250.84375 78.296875 252.902344 77.867188 254.964844 C 77.65625 256.101562 77.585938 257.308594 77.441406 258.445312 C 77.300781 260.292969 77.230469 262.210938 76.945312 264.058594 C 76.730469 265.480469 77.085938 266.898438 76.449219 268.25 C 76.660156 270.382812 76.234375 272.511719 76.234375 274.644531 C 76.234375 275.921875 76.304688 277.203125 76.378906 278.835938 C 76.804688 278.550781 77.160156 278.269531 77.515625 277.914062 C 78.367188 276.707031 79.148438 275.425781 80 274.148438 C 80.925781 272.65625 81.28125 270.878906 82.273438 269.457031 C 83.199219 267.964844 83.910156 266.472656 84.546875 264.839844 C 85.683594 262.210938 86.679688 259.511719 87.816406 256.882812 C 88.101562 256.101562 88.457031 255.320312 88.738281 254.539062 C 89.378906 252.476562 89.949219 250.417969 90.515625 248.355469 C 90.871094 247.21875 91.226562 246.082031 91.582031 244.945312 C 92.433594 241.675781 93.289062 238.480469 94.140625 235.210938 C 94.28125 234.570312 94.566406 233.933594 94.707031 233.292969 C 95.0625 231.515625 95.207031 229.742188 95.632812 227.964844 C 96.128906 225.621094 96.269531 223.273438 96.839844 220.929688 C 97.335938 218.726562 97.550781 216.453125 97.835938 214.25 C 98.472656 209.847656 99.042969 205.371094 99.609375 200.894531 C 99.753906 199.542969 99.683594 198.121094 99.824219 196.773438 C 100.035156 194.429688 100.390625 192.011719 100.535156 189.667969 C 100.675781 187.324219 100.605469 184.765625 100.675781 182.277344 C 100.820312 177.375 100.746094 172.542969 100.605469 167.640625 C 100.535156 166.433594 100.320312 165.296875 100.320312 164.089844 C 100.390625 162.453125 100.179688 160.535156 99.683594 158.617188 Z M 233.683594 235.070312 C 232.902344 235.210938 232.191406 235.425781 231.480469 235.707031 C 230.417969 236.207031 229.351562 236.773438 228.355469 237.273438 C 227.574219 237.769531 226.792969 238.195312 225.941406 238.550781 C 223.523438 239.332031 221.535156 240.753906 219.261719 241.746094 C 218.550781 242.101562 217.839844 242.457031 217.128906 242.742188 C 214.925781 243.523438 212.726562 244.519531 210.664062 245.726562 C 209.667969 246.296875 208.675781 246.792969 207.679688 247.289062 C 206.542969 247.859375 205.40625 248.355469 204.269531 248.996094 C 203.132812 249.632812 201.996094 250.34375 200.859375 250.914062 C 199.722656 251.480469 198.796875 252.191406 197.660156 252.691406 C 196.027344 253.402344 194.605469 254.679688 192.972656 255.390625 C 190.839844 256.3125 188.851562 257.519531 186.789062 258.660156 C 185.15625 259.582031 183.664062 260.648438 182.03125 261.570312 C 180.894531 262.28125 179.757812 262.851562 178.621094 263.488281 C 176.984375 264.414062 175.492188 265.621094 173.859375 266.6875 C 171.585938 268.179688 169.242188 269.671875 166.894531 271.09375 C 165.6875 271.875 164.410156 272.585938 163.203125 273.4375 C 161.285156 274.785156 159.4375 276.277344 157.519531 277.699219 C 156.382812 278.550781 155.386719 279.617188 154.105469 280.398438 C 153.253906 280.96875 152.757812 281.890625 151.976562 282.320312 C 150.414062 283.242188 149.277344 284.59375 147.996094 285.871094 C 146.574219 287.222656 145.4375 288.785156 144.65625 290.632812 C 144.230469 291.695312 144.515625 292.125 145.652344 292.125 C 146.292969 292.125 146.929688 292.125 147.640625 292.195312 C 149.488281 292.480469 151.265625 291.769531 153.042969 291.484375 C 154.675781 291.199219 156.238281 290.773438 157.660156 289.992188 C 157.871094 289.921875 158.085938 289.707031 158.226562 289.777344 C 159.011719 289.992188 159.578125 289.496094 160.21875 289.210938 C 160.785156 288.855469 161.355469 288.570312 161.992188 288.359375 C 164.054688 288.003906 165.757812 287.007812 167.535156 286.085938 C 169.597656 285.019531 171.65625 284.023438 173.789062 282.957031 C 174.570312 282.601562 175.28125 282.246094 175.992188 281.820312 C 176.914062 281.324219 177.625 280.398438 178.832031 280.542969 C 178.976562 280.542969 179.117188 280.472656 179.1875 280.328125 C 179.402344 279.617188 180.113281 279.617188 180.609375 279.40625 C 181.179688 279.191406 181.675781 278.90625 182.101562 278.550781 C 183.097656 277.769531 184.234375 277.132812 185.296875 276.492188 C 187.21875 275.285156 189.136719 274.21875 190.910156 272.867188 C 192.402344 271.730469 194.039062 270.808594 195.601562 269.8125 L 195.601562 269.246094 C 196.097656 269.101562 196.597656 268.890625 197.023438 268.675781 C 198.230469 267.894531 199.367188 267.042969 200.433594 266.117188 C 201.855469 264.769531 203.417969 263.703125 204.910156 262.496094 C 206.046875 261.5 207.46875 260.648438 208.390625 259.511719 C 209.171875 258.515625 210.097656 257.59375 211.160156 256.953125 C 213.222656 255.746094 214.855469 254.039062 216.632812 252.476562 C 218.765625 250.628906 220.894531 248.640625 222.8125 246.507812 C 223.59375 245.515625 224.519531 244.589844 225.585938 243.808594 C 226.296875 243.238281 227.007812 242.671875 227.644531 241.960938 C 228.925781 240.964844 229.988281 239.6875 230.773438 238.265625 C 230.914062 237.980469 231.199219 237.769531 231.480469 237.628906 C 232.40625 236.917969 233.1875 236.0625 233.683594 235.070312 Z M 137.695312 247.644531 C 138.191406 247.359375 138.617188 247.003906 139.042969 246.578125 C 139.898438 245.65625 140.679688 244.730469 141.460938 243.738281 C 143.09375 241.820312 144.726562 239.902344 146.363281 237.980469 C 147.855469 236.207031 148.707031 234.003906 150.414062 232.371094 C 150.484375 232.371094 150.484375 232.296875 150.484375 232.226562 C 151.976562 229.742188 153.894531 227.539062 154.890625 224.835938 C 154.960938 224.695312 155.03125 224.554688 155.101562 224.554688 C 155.671875 224.554688 155.671875 224.128906 155.882812 223.773438 C 156.378906 222.917969 156.949219 222.066406 157.519531 221.214844 C 158.226562 220.007812 158.867188 218.796875 159.578125 217.519531 C 160.003906 216.808594 160.289062 216.027344 160.714844 215.316406 C 161.566406 213.824219 162.421875 212.476562 163.203125 210.984375 C 164.195312 209.136719 165.050781 207.144531 165.972656 205.296875 C 166.894531 203.453125 167.960938 201.390625 168.957031 199.402344 C 169.097656 199.117188 169.171875 198.761719 169.3125 198.476562 C 169.453125 198.121094 169.597656 197.765625 169.808594 197.410156 C 170.09375 196.914062 170.519531 196.488281 170.734375 195.992188 C 171.941406 193.503906 173.078125 190.945312 174.214844 188.460938 C 174.5 187.890625 174.78125 187.25 175.066406 186.683594 C 175.707031 185.402344 176.347656 184.195312 176.84375 182.847656 C 177.199219 181.710938 177.695312 180.644531 178.40625 179.71875 C 178.550781 179.578125 178.691406 179.4375 178.761719 179.222656 C 179.046875 178.300781 179.402344 177.375 179.613281 176.453125 C 179.613281 176.167969 179.613281 175.882812 179.542969 175.597656 C 179.257812 175.742188 179.046875 175.882812 178.761719 176.097656 C 177.625 177.375 176.417969 178.726562 175.28125 180.003906 C 174.5 180.929688 173.574219 181.710938 172.792969 182.632812 C 171.089844 184.765625 169.242188 186.683594 167.464844 188.742188 C 165.261719 191.300781 163.058594 193.929688 160.929688 196.558594 C 159.507812 198.335938 158.085938 200.113281 156.664062 201.960938 C 155.882812 203.023438 155.101562 204.089844 154.390625 205.15625 C 153.539062 206.507812 152.757812 207.855469 151.90625 209.136719 C 151.121094 210.273438 150.269531 211.339844 149.558594 212.402344 C 148.777344 213.683594 148.066406 215.105469 147.285156 216.382812 C 146.078125 218.230469 145.082031 220.21875 144.160156 222.207031 C 143.589844 223.558594 142.808594 224.910156 142.171875 226.257812 C 141.746094 227.253906 141.390625 228.320312 140.960938 229.3125 C 140.464844 230.59375 139.96875 231.871094 139.398438 233.222656 C 138.761719 234.714844 138.832031 236.417969 138.050781 237.910156 C 137.835938 238.410156 137.695312 238.976562 137.765625 239.617188 C 137.765625 241.039062 137.695312 242.53125 137.480469 243.949219 C 137.550781 245.085938 137.695312 246.296875 137.695312 247.644531 Z M 137.695312 247.644531 " fill-opacity="1" fill-rule="nonzero"/></g></svg>