<svg xmlns="http://www.w3.org/2000/svg" xmlns:xlink="http://www.w3.org/1999/xlink" width="500" zoomAndPan="magnify" viewBox="0 0 375 374.999991" height="500" preserveAspectRatio="xMidYMid meet" version="1.0"><defs><clipPath id="56860afa52"><path d="M 46 89.449219 L 361 89.449219 L 361 225.949219 L 46 225.949219 Z M 46 89.449219 " clip-rule="nonzero"/></clipPath></defs><path fill="#ff0072" d="M 317.011719 127.574219 C 317.089844 128.125 317.167969 128.441406 317.167969 128.441406 C 319.21875 128.597656 321.109375 128.597656 323 128.835938 C 323.628906 128.914062 324.179688 129.621094 324.8125 129.9375 C 325.285156 130.09375 325.757812 130.253906 326.308594 130.410156 C 327.175781 130.488281 328.039062 130.804688 328.828125 131.121094 C 330.246094 132.066406 332.136719 132.617188 333.003906 134.269531 C 333.160156 134.507812 333.476562 134.664062 333.789062 134.664062 C 334.972656 134.113281 335.050781 134.980469 335.367188 135.6875 C 335.679688 136.398438 336.152344 137.34375 336.546875 138.367188 L 335.839844 139.3125 L 336.46875 139.628906 L 337.730469 140.257812 L 336.863281 141.753906 C 336.546875 142.382812 336.234375 142.9375 335.839844 143.488281 C 335.601562 143.800781 335.128906 144.039062 334.816406 144.433594 C 334.183594 144.90625 333.632812 145.378906 333.003906 145.851562 C 332.214844 146.402344 331.269531 146.875 330.480469 147.347656 C 330.324219 147.503906 330.089844 147.582031 329.851562 147.660156 C 326.542969 148.054688 323.550781 149.632812 320.320312 150.183594 C 317.089844 150.734375 313.78125 151.523438 310.550781 152.152344 C 307.324219 152.78125 303.9375 153.414062 300.628906 153.964844 C 297.320312 154.515625 294.089844 155.144531 290.78125 155.695312 C 287.472656 156.25 284.164062 156.800781 280.777344 157.351562 C 277.074219 157.980469 273.449219 158.613281 269.746094 159.242188 C 266.753906 159.792969 263.761719 160.421875 260.769531 160.894531 C 259.191406 161.132812 257.460938 161.132812 255.882812 161.367188 C 254.9375 161.527344 254.152344 162.078125 253.207031 162.234375 C 245.644531 163.496094 238.003906 164.757812 230.441406 166.09375 C 223.742188 167.199219 217.046875 168.378906 210.429688 169.484375 C 204.917969 170.425781 199.402344 171.292969 193.886719 172.238281 C 186.71875 173.5 179.472656 174.761719 172.304688 176.019531 C 167.5 176.808594 162.773438 177.675781 157.96875 178.460938 C 155.527344 178.855469 153.003906 179.015625 150.5625 179.328125 C 148.4375 179.644531 146.386719 180.195312 144.261719 180.511719 C 139.691406 181.296875 135.125 182.085938 130.554688 182.714844 C 122.285156 183.820312 114.011719 184.84375 105.660156 185.867188 C 99.597656 186.578125 93.609375 187.285156 87.542969 187.835938 C 77.539062 188.703125 67.535156 189.570312 57.609375 190.277344 C 55.957031 190.359375 54.300781 190.277344 52.726562 190.042969 C 51.859375 189.964844 50.992188 189.492188 50.046875 189.332031 C 49.417969 189.253906 48.789062 189.414062 48.15625 189.332031 C 46.660156 189.175781 45.085938 189.175781 43.746094 188.625 C 42.5625 187.996094 41.304688 187.601562 39.964844 187.441406 C 38.863281 187.363281 37.757812 187.757812 36.8125 186.890625 C 36.339844 186.496094 35.789062 186.183594 35.316406 185.710938 C 33.898438 184.292969 33.976562 182.875 35.632812 181.457031 C 34.449219 181.613281 33.191406 181.769531 31.929688 181.851562 C 31.535156 181.851562 31.0625 181.851562 30.90625 181.613281 C 29.644531 180.195312 28.859375 178.304688 28.859375 176.335938 C 28.9375 174.601562 30.039062 173.578125 30.984375 172.398438 C 31.222656 172.160156 31.378906 171.84375 31.535156 171.53125 C 29.332031 172.632812 28.621094 171.214844 27.914062 169.796875 C 26.96875 167.90625 26.496094 165.9375 27.914062 164.046875 C 30.355469 160.894531 33.664062 158.691406 37.445312 157.824219 C 46.898438 155.222656 56.585938 153.648438 66.433594 152.941406 C 75.335938 152.386719 84.394531 151.601562 93.375 150.96875 C 95.738281 150.8125 98.179688 150.890625 100.542969 150.8125 C 107.316406 150.417969 114.167969 150.105469 120.945312 149.550781 C 133.152344 148.527344 145.363281 147.269531 157.574219 146.085938 C 164.507812 145.378906 171.4375 144.511719 178.371094 143.800781 C 185.855469 142.9375 193.335938 142.070312 200.898438 141.28125 C 209.957031 140.335938 219.097656 139.628906 228.15625 138.601562 C 236.03125 137.738281 243.910156 136.476562 251.707031 135.53125 C 258.796875 134.664062 265.964844 134.035156 273.054688 133.167969 C 280.144531 132.300781 287 131.199219 294.011719 130.253906 C 299.210938 129.542969 304.328125 129.070312 309.527344 128.441406 C 310.394531 128.363281 311.261719 128.046875 312.128906 127.96875 C 313.78125 127.652344 315.359375 127.652344 317.011719 127.574219 Z M 317.011719 127.574219 " fill-opacity="1" fill-rule="nonzero"/><g clip-path="url(#56860afa52)"><path fill="#0e39ec" d="M 53.042969 122.296875 C 51.464844 122.296875 50.046875 122.296875 48.628906 122.296875 C 48.234375 122.296875 47.921875 122.140625 47.605469 121.902344 C 45.558594 118.042969 45.242188 115.757812 49.179688 112.527344 C 51.386719 110.71875 53.828125 110.246094 56.507812 110.164062 L 57.609375 110.164062 C 59.816406 110.164062 61.941406 110.007812 63.992188 108.667969 C 68.558594 105.597656 73.917969 104.492188 79.195312 103.628906 C 85.257812 102.683594 91.402344 102.289062 97.46875 101.738281 C 104.007812 101.105469 110.625 100.398438 117.164062 99.925781 C 125.984375 99.296875 134.886719 98.902344 143.710938 98.269531 C 153.164062 97.5625 162.695312 96.695312 172.148438 95.988281 C 183.175781 95.121094 194.203125 94.175781 205.230469 93.308594 C 212.792969 92.757812 220.355469 92.363281 227.917969 91.890625 C 235.796875 91.417969 243.671875 91.101562 251.550781 90.394531 C 261.554688 89.449219 271.636719 89.761719 281.644531 89.683594 C 285.03125 89.683594 288.496094 89.449219 291.882812 89.449219 C 293.222656 89.605469 294.5625 89.921875 295.902344 90.394531 L 295.507812 91.734375 C 295.664062 91.8125 295.820312 91.96875 295.902344 91.96875 C 296.375 92.046875 296.925781 92.046875 297.398438 91.96875 C 299.050781 91.652344 300.863281 92.046875 302.125 93.152344 C 302.359375 93.386719 302.519531 93.625 302.597656 94.015625 C 302.597656 95.042969 303.148438 95.433594 304.015625 95.355469 C 304.960938 95.121094 305.90625 95.515625 306.535156 96.222656 C 307.402344 97.089844 308.425781 97.796875 309.214844 98.664062 C 309.527344 99.058594 309.527344 99.769531 309.605469 100.242188 C 310.316406 100.632812 311.417969 100.949219 311.734375 101.660156 C 312.050781 102.367188 311.339844 103.234375 311.023438 104.257812 C 311.417969 104.257812 311.8125 104.257812 312.207031 104.257812 C 312.679688 104.335938 313.230469 104.492188 313.703125 104.652344 C 313.625 105.203125 313.386719 105.753906 313.074219 106.226562 C 311.023438 108.589844 308.898438 110.636719 305.433594 110.558594 C 303.070312 110.558594 300.707031 110.796875 298.34375 111.109375 C 297.871094 111.191406 297.320312 111.503906 296.847656 111.503906 C 295.980469 111.503906 295.191406 111.503906 294.324219 111.425781 C 292.90625 112.609375 292.433594 112.527344 291.726562 110.953125 L 291.726562 112.054688 C 290.308594 112.371094 288.8125 112.527344 287.3125 112.527344 C 285.582031 112.449219 283.925781 113.238281 282.273438 113.160156 C 281.484375 113.160156 280.777344 113.082031 280.066406 112.84375 C 278.964844 112.449219 278.492188 113.710938 277.46875 113.554688 L 277.308594 112.371094 C 276.363281 112.136719 275.183594 113.082031 274.394531 111.742188 C 274.238281 111.820312 274 111.820312 273.84375 111.898438 C 273.6875 111.425781 273.449219 110.953125 273.214844 110.558594 C 272.976562 110.324219 272.664062 110.246094 272.347656 110.324219 C 272.109375 110.796875 272.03125 111.191406 271.875 111.664062 L 269.039062 114.027344 C 268.410156 113.554688 267.542969 113.160156 266.910156 114.65625 C 266.832031 114.890625 266.359375 114.972656 266.046875 114.972656 C 260.296875 115.523438 254.542969 116.152344 248.792969 116.625 C 245.5625 116.941406 242.335938 117.019531 239.027344 117.253906 C 237.765625 117.335938 236.503906 117.648438 235.167969 117.808594 C 230.597656 118.199219 226.105469 118.4375 221.539062 118.832031 C 214.765625 119.382812 207.988281 120.011719 201.214844 120.644531 C 191.289062 121.589844 181.363281 122.535156 171.4375 123.558594 C 165.84375 124.109375 160.253906 124.816406 154.738281 125.367188 C 151.824219 125.683594 148.910156 125.839844 146.074219 126.15625 C 141.503906 126.707031 136.933594 127.257812 132.289062 127.8125 C 127.324219 128.363281 122.285156 128.914062 117.320312 129.464844 C 111.886719 130.015625 106.371094 130.566406 100.9375 130.960938 C 96.445312 131.355469 91.957031 131.511719 87.386719 131.828125 C 83.367188 132.144531 79.351562 132.539062 75.335938 132.851562 C 73.363281 132.929688 71.316406 132.929688 69.347656 132.851562 C 68.953125 132.851562 68.558594 132.300781 68.164062 132.066406 C 67.457031 131.671875 66.828125 131.355469 66.117188 131.039062 C 65.644531 130.882812 65.171875 130.726562 64.699219 130.566406 C 64.464844 130.488281 64.226562 130.410156 64.070312 130.488281 C 62.019531 131.121094 60.601562 130.175781 59.105469 128.992188 C 58.710938 128.757812 58.238281 128.597656 57.6875 128.675781 C 56.742188 128.597656 55.640625 128.992188 54.933594 128.675781 C 53.433594 127.890625 52.175781 126.867188 51.070312 125.683594 C 50.835938 125.367188 51.78125 123.871094 52.253906 123.007812 C 52.332031 122.691406 52.726562 122.535156 53.042969 122.296875 Z M 358.917969 173.734375 L 359.707031 174.839844 L 359.550781 174.996094 L 358.605469 174.523438 C 358.527344 174.601562 358.445312 174.601562 358.367188 174.679688 C 358.054688 175.152344 358.683594 176.257812 357.421875 175.863281 C 357.265625 176.652344 357.1875 177.4375 357.027344 178.226562 L 360.023438 178.460938 C 361.203125 179.644531 359.078125 179.878906 358.917969 180.824219 L 358.289062 180.511719 C 357.972656 181.535156 357.738281 182.480469 357.34375 183.503906 C 357.265625 183.742188 357.109375 183.976562 356.871094 184.132812 C 355.609375 184.6875 354.273438 185.160156 352.933594 185.472656 C 352.144531 185.550781 351.355469 185.472656 350.648438 185.238281 C 350.332031 185.160156 349.703125 184.921875 349.703125 185.078125 C 349.546875 185.550781 349.386719 186.023438 349.308594 186.496094 L 346.789062 187.285156 C 346.789062 187.363281 346.710938 187.523438 346.789062 187.601562 C 347.105469 188.074219 347.734375 188.78125 347.65625 188.941406 C 347.023438 189.726562 346.316406 190.4375 345.449219 190.988281 C 344.820312 191.382812 343.953125 191.304688 343.242188 191.617188 C 337.808594 193.902344 332.058594 194.453125 326.230469 194.925781 C 321.03125 195.398438 315.910156 196.265625 310.789062 197.210938 C 305.667969 198.15625 300.546875 199.496094 295.347656 200.441406 C 291.566406 201.148438 287.707031 201.386719 283.847656 201.9375 C 279.671875 202.566406 275.578125 203.355469 271.480469 203.984375 C 267.382812 204.617188 263.050781 205.089844 258.878906 205.640625 C 252.417969 206.507812 246.035156 207.292969 239.578125 208.160156 C 235.71875 208.710938 231.9375 209.34375 228.15625 209.894531 C 220.042969 210.996094 212.085938 212.179688 204.050781 213.28125 C 191.289062 215.09375 178.527344 216.902344 165.765625 218.558594 C 156.3125 219.820312 146.859375 221 137.40625 222.023438 C 128.980469 222.96875 120.628906 223.601562 112.199219 224.386719 C 106.054688 224.9375 99.992188 225.648438 93.847656 225.882812 C 88.253906 226.042969 82.660156 225.804688 77.144531 225.332031 C 75.097656 225.175781 73.128906 223.992188 71.160156 223.128906 C 69.898438 222.574219 69.109375 221.316406 69.191406 219.976562 C 69.109375 218.007812 69.191406 216.039062 69.503906 214.070312 C 69.664062 212.652344 71.238281 211.707031 72.65625 211.625 C 73.917969 211.546875 75.175781 211.3125 76.4375 211.074219 C 76.671875 210.996094 76.910156 210.445312 76.832031 210.128906 C 76.59375 209.578125 76.910156 208.949219 77.460938 208.710938 C 77.539062 208.710938 77.539062 208.632812 77.617188 208.632812 C 78.800781 208.238281 79.980469 207.6875 81.242188 207.371094 C 83.449219 206.742188 85.730469 206.191406 88.015625 205.796875 C 94.476562 204.851562 100.855469 203.984375 107.316406 203.199219 C 116.847656 202.015625 126.378906 200.914062 135.910156 199.96875 C 141.898438 199.335938 147.964844 199.023438 153.949219 198.472656 C 161.433594 197.761719 168.917969 196.972656 176.402344 196.109375 C 183.097656 195.398438 189.792969 194.609375 196.488281 193.746094 C 204.679688 192.640625 212.953125 191.460938 221.144531 190.277344 C 227.367188 189.414062 233.667969 188.546875 239.890625 187.601562 C 244.777344 186.890625 249.660156 186.023438 254.464844 185.394531 C 261.476562 184.449219 268.488281 183.582031 275.417969 182.636719 C 280.777344 181.929688 286.132812 181.21875 291.410156 180.273438 C 297.554688 179.171875 303.621094 177.832031 309.765625 176.730469 C 314.804688 175.863281 319.847656 175.152344 324.890625 174.367188 C 326.230469 174.128906 327.566406 173.816406 328.90625 173.578125 C 330.796875 173.261719 332.6875 173.027344 334.578125 172.710938 C 335.523438 172.554688 336.546875 172.082031 337.492188 172.003906 C 341.667969 171.53125 345.84375 171.214844 350.019531 170.820312 C 350.410156 170.820312 350.726562 170.898438 351.121094 170.980469 C 351.671875 171.136719 352.300781 171.292969 352.855469 171.292969 C 354.113281 170.980469 355.375 171.53125 355.925781 172.710938 C 356.398438 173.816406 357.738281 174.367188 358.839844 173.816406 C 358.839844 173.734375 358.917969 173.734375 358.917969 173.734375 Z M 358.917969 173.734375 " fill-opacity="1" fill-rule="nonzero"/></g></svg>