<svg xmlns="http://www.w3.org/2000/svg" xmlns:xlink="http://www.w3.org/1999/xlink" width="500" zoomAndPan="magnify" viewBox="0 0 375 374.999991" height="500" preserveAspectRatio="xMidYMid meet" version="1.0"><defs><clipPath id="05665254d1"><path d="M 149 264 L 294.628906 264 L 294.628906 326 L 149 326 Z M 149 264 " clip-rule="nonzero"/></clipPath></defs><path fill="#fcb101" d="M 261.863281 128.363281 C 269.40625 128.363281 273.378906 131.238281 273.378906 137.746094 C 273.378906 140.625 272.746094 143.503906 275.449219 145.515625 C 285.46875 152.253906 275.449219 160.832031 273.550781 162.5 C 259.503906 175.222656 244.304688 186.96875 224.730469 190.25 C 223.230469 190.359375 221.96875 191.429688 221.621094 192.898438 C 216.671875 204.929688 206.195312 210.167969 194.910156 213.5625 C 186.273438 216.039062 182.820312 224.214844 175.453125 228.53125 C 166.066406 234 155.074219 236.707031 146.667969 244.421875 C 140.449219 250.179688 133.828125 248.855469 131.355469 239.585938 C 129.800781 233.828125 130.03125 226.863281 123.292969 223.582031 C 127.09375 217.421875 129.511719 209.59375 134.808594 205.503906 C 154.382812 190.421875 175.105469 176.71875 194.851562 161.925781 C 198.421875 159.21875 201.992188 159.851562 205.386719 158.644531 C 219.722656 153.402344 228.417969 140.394531 242.347656 134.234375 C 248.679688 131.742188 255.210938 129.777344 261.863281 128.363281 Z M 261.863281 128.363281 " fill-opacity="1" fill-rule="nonzero"/><path fill="#fcb101" d="M 178.617188 67.625 C 172.765625 72.449219 168.3125 78.75 165.722656 85.875 C 158.050781 101.589844 148.976562 116.582031 138.609375 130.664062 C 133.828125 137.34375 132.390625 147.246094 126.519531 152.195312 C 117.191406 160.023438 119.78125 172.804688 111.722656 180.460938 C 107.921875 184.089844 104.125 188.003906 98.25 186.21875 C 84.835938 182.59375 79.945312 171.136719 84.894531 157.835938 C 86.796875 152.828125 84.492188 145.285156 94.105469 147.246094 C 94.917969 146.570312 95.417969 145.59375 95.488281 144.539062 C 93.359375 136.824219 99.804688 135.097656 103.546875 130.722656 C 107.289062 126.347656 113.796875 122.664062 114.082031 113.449219 C 114.429688 101.9375 128.9375 96.179688 130.492188 83.746094 C 140.738281 87.085938 136.59375 78.277344 138.378906 74.476562 C 138.894531 73.382812 139.183594 71.539062 139.933594 71.308594 C 148.566406 68.890625 148.28125 61.292969 150.351562 54.671875 C 153.980469 43.160156 166.414062 38.785156 172.285156 28.882812 C 173.496094 26.867188 175.796875 27.328125 177.699219 28.535156 C 182.226562 31.960938 184.730469 37.429688 184.375 43.101562 C 184.375 48.28125 179.941406 53.234375 187.195312 57.378906 C 189.269531 58.585938 187.195312 61.582031 184.492188 62.386719 C 181.785156 63.191406 178.734375 63.824219 178.734375 67.453125 Z M 178.617188 67.625 " fill-opacity="1" fill-rule="nonzero"/><g clip-path="url(#05665254d1)"><path fill="#fcb101" d="M 294.507812 282.015625 C 294.507812 295.140625 278.558594 308.785156 264.800781 306.308594 C 258.75 305.140625 252.496094 305.578125 246.664062 307.574219 C 224.847656 314.484375 201.703125 315.460938 179.480469 321.277344 C 173.726562 322.832031 165.894531 326.515625 158.066406 324.789062 C 150.238281 323.0625 148.050781 321.449219 149.832031 312.929688 C 152.539062 299.6875 162.382812 295.082031 171.996094 288.347656 C 189.269531 276.199219 210.398438 282.9375 228.417969 274.53125 C 239.929688 269.292969 252.941406 268.773438 265.144531 265.261719 C 280.113281 261.230469 294.449219 269.117188 294.507812 282.015625 Z M 294.507812 282.015625 " fill-opacity="1" fill-rule="nonzero"/></g><path fill="#fcb101" d="M 178.617188 67.683594 L 178.792969 67.972656 L 178.617188 67.566406 Z M 178.617188 67.683594 " fill-opacity="1" fill-rule="nonzero"/></svg>