<svg xmlns="http://www.w3.org/2000/svg" xmlns:xlink="http://www.w3.org/1999/xlink" width="500" zoomAndPan="magnify" viewBox="0 0 375 374.999991" height="500" preserveAspectRatio="xMidYMid meet" version="1.0"><defs><clipPath id="ce05b8e009"><path d="M 131.25 108.667969 L 243.75 108.667969 L 243.75 221.167969 L 131.25 221.167969 Z M 131.25 108.667969 " clip-rule="nonzero"/></clipPath><clipPath id="937e3ef42b"><path d="M 187.5 108.667969 C 156.433594 108.667969 131.25 133.851562 131.25 164.917969 C 131.25 195.984375 156.433594 221.167969 187.5 221.167969 C 218.566406 221.167969 243.75 195.984375 243.75 164.917969 C 243.75 133.851562 218.566406 108.667969 187.5 108.667969 Z M 187.5 108.667969 " clip-rule="nonzero"/></clipPath><clipPath id="b9f1f03ad2"><path d="M 18.75 108.667969 L 131.25 108.667969 L 131.25 221.167969 L 18.75 221.167969 Z M 18.75 108.667969 " clip-rule="nonzero"/></clipPath><clipPath id="631d26049e"><path d="M 75 108.667969 C 43.933594 108.667969 18.75 133.851562 18.75 164.917969 C 18.75 195.984375 43.933594 221.167969 75 221.167969 C 106.066406 221.167969 131.25 195.984375 131.25 164.917969 C 131.25 133.851562 106.066406 108.667969 75 108.667969 Z M 75 108.667969 " clip-rule="nonzero"/></clipPath><clipPath id="33cca5c2fe"><path d="M 243.75 108.667969 L 356.25 108.667969 L 356.25 221.167969 L 243.75 221.167969 Z M 243.75 108.667969 " clip-rule="nonzero"/></clipPath><clipPath id="48e0d8b637"><path d="M 300 108.667969 C 268.933594 108.667969 243.75 133.851562 243.75 164.917969 C 243.75 195.984375 268.933594 221.167969 300 221.167969 C 331.066406 221.167969 356.25 195.984375 356.25 164.917969 C 356.25 133.851562 331.066406 108.667969 300 108.667969 Z M 300 108.667969 " clip-rule="nonzero"/></clipPath><clipPath id="2b56d43325"><path d="M 21.789062 111.707031 L 128.289062 111.707031 L 128.289062 218.207031 L 21.789062 218.207031 Z M 21.789062 111.707031 " clip-rule="nonzero"/></clipPath><clipPath id="267def86ba"><path d="M 134.289062 111.707031 L 240.789062 111.707031 L 240.789062 218.207031 L 134.289062 218.207031 Z M 134.289062 111.707031 " clip-rule="nonzero"/></clipPath><clipPath id="3bc5f629f7"><path d="M 246.789062 111.707031 L 353.289062 111.707031 L 353.289062 218.207031 L 246.789062 218.207031 Z M 246.789062 111.707031 " clip-rule="nonzero"/></clipPath></defs><g clip-path="url(#ce05b8e009)"><g clip-path="url(#937e3ef42b)"><path fill="#ff0072" d="M 131.25 108.667969 L 243.75 108.667969 L 243.75 221.167969 L 131.25 221.167969 Z M 131.25 108.667969 " fill-opacity="1" fill-rule="nonzero"/></g></g><g clip-path="url(#b9f1f03ad2)"><g clip-path="url(#631d26049e)"><path fill="#ff0072" d="M 18.75 108.667969 L 131.25 108.667969 L 131.25 221.167969 L 18.75 221.167969 Z M 18.75 108.667969 " fill-opacity="1" fill-rule="nonzero"/></g></g><g clip-path="url(#33cca5c2fe)"><g clip-path="url(#48e0d8b637)"><path fill="#ff0072" d="M 243.75 108.667969 L 356.25 108.667969 L 356.25 221.167969 L 243.75 221.167969 Z M 243.75 108.667969 " fill-opacity="1" fill-rule="nonzero"/></g></g><g clip-path="url(#2b56d43325)"><path fill="#ffffff" d="M 75 218.125 C 45.667969 218.125 21.789062 194.25 21.789062 164.917969 C 21.789062 135.585938 45.667969 111.707031 75 111.707031 C 104.328125 111.707031 128.207031 135.585938 128.207031 164.917969 C 128.207031 194.25 104.328125 218.125 75 218.125 Z M 75 112.496094 C 46.085938 112.496094 22.574219 136.007812 22.574219 164.917969 C 22.574219 193.828125 46.085938 217.339844 75 217.339844 C 103.910156 217.339844 127.421875 193.828125 127.421875 164.917969 C 127.421875 136.007812 103.910156 112.496094 75 112.496094 Z M 75 112.496094 " fill-opacity="1" fill-rule="nonzero"/></g><g clip-path="url(#267def86ba)"><path fill="#ffffff" d="M 187.5 218.125 C 158.167969 218.125 134.289062 194.25 134.289062 164.917969 C 134.289062 135.585938 158.167969 111.707031 187.5 111.707031 C 216.828125 111.707031 240.707031 135.585938 240.707031 164.917969 C 240.707031 194.25 216.828125 218.125 187.5 218.125 Z M 187.5 112.496094 C 158.585938 112.496094 135.074219 136.007812 135.074219 164.917969 C 135.074219 193.828125 158.585938 217.339844 187.5 217.339844 C 216.410156 217.339844 239.921875 193.828125 239.921875 164.917969 C 239.921875 136.007812 216.410156 112.496094 187.5 112.496094 Z M 187.5 112.496094 " fill-opacity="1" fill-rule="nonzero"/></g><g clip-path="url(#3bc5f629f7)"><path fill="#ffffff" d="M 300 218.125 C 270.667969 218.125 246.789062 194.25 246.789062 164.917969 C 246.789062 135.585938 270.667969 111.707031 300 111.707031 C 329.328125 111.707031 353.207031 135.585938 353.207031 164.917969 C 353.207031 194.25 329.328125 218.125 300 218.125 Z M 300 112.496094 C 271.085938 112.496094 247.574219 136.007812 247.574219 164.917969 C 247.574219 193.828125 271.085938 217.339844 300 217.339844 C 328.910156 217.339844 352.421875 193.828125 352.421875 164.917969 C 352.421875 136.007812 328.910156 112.496094 300 112.496094 Z M 300 112.496094 " fill-opacity="1" fill-rule="nonzero"/></g></svg>