<svg xmlns="http://www.w3.org/2000/svg" xmlns:xlink="http://www.w3.org/1999/xlink" width="500" zoomAndPan="magnify" viewBox="0 0 375 374.999991" height="500" preserveAspectRatio="xMidYMid meet" version="1.0"><defs><clipPath id="46aef33a9c"><path d="M 46 75.066406 L 339.628906 75.066406 L 339.628906 266 L 46 266 Z M 46 75.066406 " clip-rule="nonzero"/></clipPath></defs><g clip-path="url(#46aef33a9c)"><path fill="#ff0072" d="M 216.097656 240.679688 C 218.144531 247.226562 218.050781 254.375 217.824219 261.160156 C 217.730469 263.945312 213.398438 263.945312 213.492188 261.160156 C 213.710938 254.644531 213.863281 247.785156 211.824219 241.515625 C 210.269531 236.730469 206.8125 232.742188 202.402344 230.332031 C 197.503906 227.65625 192.773438 229.234375 188.492188 232.285156 C 184.347656 235.238281 180.886719 238.777344 178.28125 243.164062 C 175.71875 247.476562 173.210938 252.992188 174.003906 258.148438 C 174.425781 260.878906 170.25 262.046875 169.828125 259.300781 C 168.746094 252.273438 171.753906 245.125 175.5625 239.347656 C 178.839844 234.378906 183.394531 230.074219 188.554688 227.082031 C 193.890625 223.992188 199.730469 223.730469 205.101562 226.886719 C 210.363281 229.972656 214.28125 234.863281 216.097656 240.679688 Z M 254.214844 233.796875 C 252.636719 226.933594 250.519531 220.308594 247.792969 213.8125 C 245.085938 207.359375 241.742188 201.378906 236.917969 196.257812 C 232.472656 191.535156 227.246094 187.113281 221.277344 184.46875 C 214.828125 181.617188 207.429688 180.796875 200.4375 181.261719 C 193.054688 181.753906 186.097656 183.988281 179.203125 186.539062 C 176.101562 187.683594 172.988281 188.949219 170.171875 190.699219 C 167.261719 192.511719 164.753906 194.859375 162.4375 197.371094 C 157.90625 202.285156 153.1875 207.292969 149.550781 212.925781 C 145.269531 219.558594 142.683594 227.386719 139.722656 234.667969 C 136.542969 242.476562 133.789062 250.648438 131.6875 258.816406 C 130.992188 261.515625 135.167969 262.667969 135.863281 259.96875 C 137.601562 253.214844 139.8125 246.449219 142.277344 239.925781 C 144.707031 233.488281 147.273438 226.960938 150.207031 220.734375 C 153.039062 214.734375 157.132812 209.804688 161.527344 204.894531 C 165.796875 200.125 169.75 195.46875 175.640625 192.660156 C 181.652344 189.792969 188.414062 187.535156 194.953125 186.296875 C 201.71875 185.015625 209.074219 185.097656 215.714844 187.015625 C 221.722656 188.75 226.742188 192.480469 231.242188 196.710938 C 236.089844 201.269531 239.75 206.5 242.539062 212.535156 C 245.667969 219.304688 248.003906 226.378906 249.730469 233.625 C 251.503906 241.070312 252.359375 248.585938 253.398438 256.152344 C 253.558594 257.320312 255.039062 257.933594 256.0625 257.664062 C 257.3125 257.335938 257.730469 256.15625 257.574219 255.003906 C 256.597656 247.890625 255.828125 240.804688 254.214844 233.796875 Z M 292.304688 206 C 291.460938 203.109375 290.957031 200.183594 290.476562 197.214844 C 290.023438 194.414062 289.511719 191.613281 288.453125 188.96875 C 287.40625 186.347656 286.011719 183.898438 284.515625 181.511719 C 281.386719 176.511719 278.550781 171.328125 275.355469 166.371094 C 272.117188 161.339844 268.253906 156.875 263.964844 152.714844 C 259.8125 148.695312 255.804688 144.296875 251.226562 140.757812 C 246.570312 137.15625 240.960938 135.472656 235.554688 133.335938 C 229.839844 131.074219 223.785156 129.863281 217.898438 128.148438 C 215.027344 127.3125 212.121094 126.535156 209.132812 126.269531 C 206.121094 126 203.121094 126.554688 200.152344 126.96875 C 193.996094 127.828125 187.867188 126.078125 181.746094 127.097656 C 178.746094 127.597656 175.851562 128.578125 172.988281 129.585938 C 170.167969 130.582031 167.324219 131.523438 164.558594 132.667969 C 158.984375 134.980469 153.613281 137.785156 148.566406 141.09375 C 143.679688 144.300781 138.539062 147.585938 134.136719 151.4375 C 129.734375 155.285156 126.253906 160.109375 122.527344 164.578125 C 118.734375 169.128906 115.285156 173.761719 112.441406 178.972656 C 106.609375 189.671875 102.835938 201.488281 99.828125 213.261719 C 98.234375 219.503906 97.023438 225.8125 95.867188 232.148438 C 94.722656 238.425781 93.636719 244.664062 93.199219 251.035156 C 92.996094 254.015625 92.863281 256.996094 92.6875 259.976562 C 92.523438 262.761719 96.855469 262.75 97.019531 259.976562 C 97.367188 254.09375 97.546875 248.1875 98.445312 242.351562 C 99.390625 236.195312 100.542969 230.039062 101.808594 223.9375 C 103.015625 218.109375 104.449219 212.324219 106.167969 206.621094 C 107.847656 201.046875 109.585938 195.386719 111.863281 190.019531 C 114.082031 184.785156 116.75 179.609375 119.9375 174.894531 C 123.097656 170.214844 126.949219 165.953125 130.546875 161.605469 C 134.246094 157.132812 138.214844 153.457031 143.011719 150.179688 C 147.652344 147.011719 152.164062 143.707031 157.109375 141.015625 C 162.394531 138.136719 167.871094 135.988281 173.527344 133.980469 C 176.183594 133.035156 178.855469 132.105469 181.621094 131.519531 C 184.5 130.90625 187.363281 131.082031 190.277344 131.339844 C 193.21875 131.601562 196.109375 131.789062 199.050781 131.441406 C 201.957031 131.101562 204.851562 130.484375 207.789062 130.527344 C 210.730469 130.574219 213.621094 131.417969 216.425781 132.230469 C 219.335938 133.074219 222.257812 133.839844 225.191406 134.601562 C 230.726562 136.042969 236.074219 138.058594 241.378906 140.183594 C 246.714844 142.316406 250.65625 145.757812 254.675781 149.769531 C 258.640625 153.726562 262.871094 157.421875 266.535156 161.667969 C 270.332031 166.074219 273.28125 171.109375 276.140625 176.148438 C 278.832031 180.890625 282.378906 185.3125 284.390625 190.410156 C 286.417969 195.535156 286.441406 201.21875 287.941406 206.492188 C 289.617188 212.382812 291.582031 217.988281 292.085938 224.136719 C 292.570312 230.011719 292.59375 235.984375 292.296875 241.871094 C 292.148438 244.828125 291.871094 247.777344 291.40625 250.703125 C 290.96875 253.429688 295.140625 254.601562 295.582031 251.851562 C 296.5625 245.710938 296.816406 239.53125 296.773438 233.320312 C 296.730469 227.140625 296.503906 220.839844 294.945312 214.832031 C 294.175781 211.855469 293.167969 208.949219 292.304688 206 Z M 338.230469 235.3125 C 338.078125 230.742188 338.386719 226.175781 338.070312 221.609375 C 337.457031 212.863281 336.382812 204.144531 335.136719 195.46875 C 334.492188 190.957031 333.007812 186.671875 331.433594 182.410156 C 329.9375 178.34375 328.460938 174.277344 326.714844 170.308594 C 323.070312 162.011719 319.246094 153.609375 314.171875 146.070312 C 309.296875 138.820312 303.875 132.113281 298.351562 125.363281 C 295.695312 122.113281 293.222656 118.703125 290.183594 115.789062 C 286.976562 112.714844 283.445312 109.992188 279.933594 107.28125 C 276.585938 104.691406 273.074219 102.417969 269.46875 100.210938 C 265.863281 98.003906 262.476562 95.523438 258.960938 93.1875 C 251.902344 88.496094 243.484375 86.695312 235.804688 83.292969 C 227.75 79.722656 219.09375 77.734375 210.320312 76.882812 C 205.894531 76.453125 201.4375 76.742188 197.007812 76.359375 C 192.464844 75.96875 187.992188 75.460938 183.425781 75.519531 C 178.839844 75.578125 174.269531 75.101562 169.703125 75.667969 C 165.597656 76.175781 161.453125 76.621094 157.390625 77.425781 C 153.339844 78.234375 149.894531 79.898438 146.3125 81.902344 C 142.664062 83.941406 139.101562 85.121094 135.035156 86.039062 C 131.390625 86.859375 127.722656 87.804688 124.6875 90.082031 C 121.730469 92.300781 119.519531 95.339844 116.589844 97.582031 C 113.308594 100.089844 109.3125 101.589844 105.832031 103.796875 C 102.3125 106.03125 99.050781 108.839844 95.855469 111.507812 C 92.683594 114.152344 89.886719 116.960938 87.449219 120.300781 C 84.96875 123.699219 82.496094 126.992188 79.757812 130.199219 C 77.050781 133.367188 74.703125 136.777344 72.089844 140.007812 C 69.699219 142.960938 66.9375 145.628906 64.914062 148.867188 C 60.300781 156.253906 56.78125 164.203125 54.476562 172.582031 C 53.296875 176.863281 51.980469 181.078125 51.050781 185.425781 C 50.082031 189.945312 49.074219 194.457031 48.140625 198.984375 C 46.34375 207.710938 45.855469 216.851562 46.222656 225.75 C 46.414062 230.359375 46.875 234.945312 46.992188 239.558594 C 47.105469 243.921875 47.121094 248.378906 48.125 252.648438 C 49.070312 256.664062 50.804688 260.4375 51.800781 264.4375 C 52.472656 267.140625 56.648438 265.996094 55.972656 263.289062 C 55.003906 259.386719 53.332031 255.707031 52.375 251.804688 C 51.335938 247.597656 51.425781 243.171875 51.304688 238.867188 C 51.179688 234.371094 50.710938 229.898438 50.539062 225.402344 C 50.375 221.035156 50.570312 216.617188 50.765625 212.25 C 51.164062 203.4375 53.445312 194.832031 55.296875 186.238281 C 56.210938 182.003906 57.503906 177.902344 58.648438 173.730469 C 59.816406 169.496094 61.109375 165.414062 63.046875 161.460938 C 64.84375 157.792969 66.71875 153.980469 68.964844 150.566406 C 71.011719 147.460938 73.78125 144.894531 76.035156 141.945312 C 80.914062 135.574219 86.144531 129.496094 90.832031 122.976562 C 93.210938 119.671875 96.042969 116.949219 99.171875 114.359375 C 102.339844 111.730469 105.546875 108.984375 109.089844 106.878906 C 112.4375 104.894531 116.109375 103.371094 119.207031 100.988281 C 121.996094 98.847656 124.132812 96 126.886719 93.816406 C 129.890625 91.4375 133.75 90.769531 137.394531 89.945312 C 141.175781 89.085938 144.585938 87.808594 147.976562 85.929688 C 151.4375 84.011719 154.625 82.382812 158.542969 81.601562 C 162.648438 80.785156 166.890625 80.226562 171.058594 79.84375 C 175.390625 79.445312 179.765625 79.898438 184.105469 79.832031 C 188.433594 79.769531 192.703125 80.316406 197.007812 80.691406 C 201.4375 81.070312 205.894531 80.777344 210.320312 81.210938 C 214.621094 81.636719 219.015625 82.515625 223.230469 83.464844 C 227.398438 84.398438 231.226562 85.976562 235.121094 87.695312 C 238.894531 89.363281 242.761719 90.679688 246.65625 92.03125 C 250.566406 93.394531 254.132812 95.113281 257.550781 97.449219 C 260.960938 99.78125 264.3125 102.128906 267.839844 104.289062 C 275.003906 108.679688 282.105469 113.714844 288.015625 119.730469 C 290.820312 122.578125 293.144531 125.84375 295.691406 128.910156 C 298.472656 132.265625 301.347656 135.535156 303.929688 139.054688 C 308.988281 145.945312 313.625 152.949219 317.445312 160.613281 C 321.378906 168.5 324.734375 176.582031 327.738281 184.863281 C 329.214844 188.941406 330.519531 193.039062 331.058594 197.355469 C 331.578125 201.5625 332.226562 205.761719 332.71875 209.972656 C 333.222656 214.273438 333.609375 218.652344 333.816406 222.980469 C 334.027344 227.320312 333.703125 231.667969 333.929688 236 C 334.160156 240.382812 335.160156 244.679688 334.882812 249.085938 C 334.707031 251.867188 339.039062 251.855469 339.214844 249.085938 C 339.503906 244.449219 338.386719 239.925781 338.230469 235.3125 Z M 338.230469 235.3125 " fill-opacity="1" fill-rule="nonzero"/></g></svg>