<svg xmlns="http://www.w3.org/2000/svg" xmlns:xlink="http://www.w3.org/1999/xlink" width="500" zoomAndPan="magnify" viewBox="0 0 375 374.999991" height="500" preserveAspectRatio="xMidYMid meet" version="1.0"><defs><clipPath id="18fed3b436"><path d="M 47 65 L 289 65 L 289 358 L 47 358 Z M 47 65 " clip-rule="nonzero"/></clipPath><clipPath id="650b54f59f"><path d="M 218.832031 18.671875 L 337.402344 287.703125 L 161.707031 365.136719 L 43.140625 96.105469 Z M 218.832031 18.671875 " clip-rule="nonzero"/></clipPath><clipPath id="6db730b176"><path d="M 218.832031 18.671875 L 337.402344 287.703125 L 161.707031 365.136719 L 43.140625 96.105469 Z M 218.832031 18.671875 " clip-rule="nonzero"/></clipPath></defs><g clip-path="url(#18fed3b436)"><g clip-path="url(#650b54f59f)"><g clip-path="url(#6db730b176)"><path fill="#181ddb" d="M 136.035156 241.453125 C 130.871094 245.96875 124.289062 248.765625 117.988281 251.292969 C 115.40625 252.328125 113.65625 248.367188 116.242188 247.332031 C 122.292969 244.902344 128.632812 242.277344 133.546875 237.882812 C 137.300781 234.527344 139.554688 229.757812 139.980469 224.746094 C 140.453125 219.1875 137.101562 215.492188 132.585938 212.804688 C 128.210938 210.203125 123.574219 208.464844 118.511719 207.851562 C 113.53125 207.246094 107.46875 207.175781 103.070312 209.980469 C 100.742188 211.464844 97.992188 208.117188 100.335938 206.625 C 106.332031 202.800781 114.082031 202.667969 120.90625 203.824219 C 126.773438 204.820312 132.554688 207.25 137.371094 210.765625 C 142.351562 214.402344 144.941406 219.640625 144.222656 225.828125 C 143.519531 231.890625 140.625 237.449219 136.035156 241.453125 Z M 157.707031 273.558594 C 163.351562 269.34375 168.558594 264.734375 173.402344 259.621094 C 178.214844 254.542969 182.339844 249.070312 185.082031 242.589844 C 187.609375 236.617188 189.550781 230.050781 189.558594 223.523438 C 189.570312 216.472656 187.335938 209.375 184.089844 203.160156 C 180.664062 196.601562 175.8125 191.136719 170.699219 185.859375 C 168.398438 183.480469 165.988281 181.144531 163.246094 179.269531 C 160.417969 177.335938 157.257812 175.992188 154.027344 174.886719 C 147.699219 172.722656 141.214844 170.421875 134.59375 169.367188 C 126.796875 168.125 118.59375 168.914062 110.734375 169.140625 C 102.304688 169.378906 93.71875 170.15625 85.398438 171.527344 C 82.644531 171.980469 83.273438 176.265625 86.027344 175.8125 C 92.90625 174.679688 99.992188 173.976562 106.953125 173.597656 C 113.824219 173.226562 120.832031 172.941406 127.710938 173.117188 C 134.347656 173.285156 140.507812 175.046875 146.773438 177.085938 C 152.859375 179.066406 158.714844 180.8125 163.660156 185.066406 C 168.707031 189.410156 173.503906 194.6875 177.273438 200.175781 C 181.171875 205.847656 184.0625 212.609375 184.984375 219.464844 C 185.820312 225.660156 184.433594 231.757812 182.375 237.578125 C 180.160156 243.855469 176.851562 249.3125 172.453125 254.300781 C 167.519531 259.890625 161.988281 264.882812 156.054688 269.386719 C 149.957031 274.011719 143.421875 277.824219 136.917969 281.828125 C 135.914062 282.445312 135.949219 284.046875 136.609375 284.875 C 137.414062 285.886719 138.664062 285.792969 139.65625 285.183594 C 145.769531 281.421875 151.941406 277.859375 157.707031 273.558594 Z M 198.503906 297.203125 C 200.804688 295.265625 203.28125 293.625 205.804688 291.988281 C 208.183594 290.445312 210.539062 288.84375 212.535156 286.808594 C 214.511719 284.792969 216.1875 282.53125 217.769531 280.199219 C 221.082031 275.320312 224.683594 270.632812 227.929688 265.710938 C 231.226562 260.71875 233.757812 255.382812 235.832031 249.777344 C 237.839844 244.359375 240.246094 238.917969 241.636719 233.304688 C 243.054688 227.585938 242.332031 221.777344 242.109375 215.96875 C 241.875 209.828125 240.542969 203.796875 239.734375 197.71875 C 239.339844 194.753906 238.882812 191.78125 237.917969 188.9375 C 236.949219 186.078125 235.234375 183.554688 233.65625 181.003906 C 230.386719 175.714844 229.519531 169.402344 226.117188 164.214844 C 224.449219 161.671875 222.382812 159.414062 220.308594 157.203125 C 218.257812 155.023438 216.25 152.800781 214.085938 150.734375 C 209.726562 146.5625 204.992188 142.777344 199.925781 139.496094 C 195.023438 136.316406 189.945312 132.941406 184.644531 130.460938 C 179.347656 127.988281 173.53125 126.746094 167.9375 125.140625 C 162.242188 123.503906 156.613281 122.214844 150.699219 121.714844 C 138.554688 120.691406 126.222656 122.003906 114.234375 124.003906 C 107.878906 125.0625 101.617188 126.496094 95.351562 127.996094 C 89.148438 129.480469 83 131 76.992188 133.167969 C 74.183594 134.183594 71.402344 135.265625 68.605469 136.308594 C 65.992188 137.28125 67.746094 141.238281 70.351562 140.269531 C 75.878906 138.214844 81.355469 136 87.054688 134.46875 C 93.070312 132.851562 99.171875 131.421875 105.261719 130.117188 C 111.082031 128.871094 116.957031 127.851562 122.867188 127.125 C 128.644531 126.414062 134.527344 125.722656 140.355469 125.640625 C 146.039062 125.558594 151.851562 125.914062 157.453125 126.929688 C 163.007812 127.933594 168.460938 129.742188 173.890625 131.277344 C 179.476562 132.859375 184.441406 135.007812 189.375 138.078125 C 194.144531 141.046875 198.988281 143.84375 203.445312 147.28125 C 208.210938 150.957031 212.386719 155.101562 216.503906 159.46875 C 218.4375 161.519531 220.367188 163.589844 222.019531 165.878906 C 223.742188 168.269531 224.734375 170.960938 225.671875 173.730469 C 226.621094 176.527344 227.617188 179.25 229.121094 181.800781 C 230.605469 184.324219 232.335938 186.722656 233.480469 189.429688 C 234.625 192.136719 235.015625 195.121094 235.40625 198.015625 C 235.808594 201.019531 236.285156 204.003906 236.769531 206.996094 C 237.6875 212.644531 237.996094 218.347656 238.191406 224.058594 C 238.390625 229.800781 236.832031 234.796875 234.78125 240.09375 C 232.761719 245.316406 231.085938 250.675781 228.675781 255.746094 C 226.179688 260.996094 222.761719 265.722656 219.300781 270.371094 C 216.046875 274.746094 213.429688 279.777344 209.578125 283.675781 C 205.703125 287.59375 200.515625 289.90625 196.292969 293.410156 C 191.578125 297.316406 187.242188 301.375 181.816406 304.316406 C 176.636719 307.128906 171.183594 309.558594 165.675781 311.660156 C 162.910156 312.71875 160.101562 313.65625 157.234375 314.40625 C 154.5625 315.109375 155.171875 319.398438 157.863281 318.691406 C 163.878906 317.113281 169.640625 314.851562 175.304688 312.308594 C 180.941406 309.777344 186.617188 307.03125 191.488281 303.183594 C 193.898438 301.277344 196.152344 299.183594 198.503906 297.203125 Z M 190.203125 351.050781 C 194.320312 349.066406 198.625 347.507812 202.675781 345.375 C 210.433594 341.289062 217.976562 336.789062 225.414062 332.152344 C 229.285156 329.738281 232.601562 326.652344 235.871094 323.496094 C 238.984375 320.484375 242.113281 317.492188 245.039062 314.296875 C 251.164062 307.613281 257.3125 300.726562 262.164062 293.042969 C 266.832031 285.660156 270.78125 277.992188 274.730469 270.21875 C 276.632812 266.472656 278.757812 262.835938 280.199219 258.878906 C 281.71875 254.707031 282.78125 250.375 283.851562 246.070312 C 284.867188 241.964844 285.53125 237.832031 286.097656 233.640625 C 286.664062 229.453125 287.566406 225.355469 288.289062 221.191406 C 289.734375 212.84375 287.988281 204.414062 288.003906 196.015625 C 288.023438 187.203125 286.351562 178.480469 283.589844 170.109375 C 282.199219 165.886719 280.136719 161.921875 278.699219 157.714844 C 277.226562 153.402344 275.886719 149.101562 273.992188 144.945312 C 272.089844 140.777344 270.683594 136.402344 268.320312 132.449219 C 266.199219 128.898438 264.125 125.285156 261.746094 121.894531 C 259.375 118.511719 256.460938 116.03125 253.183594 113.558594 C 249.847656 111.042969 247.328125 108.261719 244.851562 104.910156 C 242.628906 101.90625 240.285156 98.929688 236.980469 97.070312 C 233.753906 95.257812 230.082031 94.464844 226.847656 92.6875 C 223.230469 90.699219 220.246094 87.644531 216.824219 85.351562 C 213.359375 83.03125 209.472656 81.179688 205.746094 79.328125 C 202.042969 77.496094 198.347656 76.066406 194.308594 75.183594 C 190.195312 74.285156 186.183594 73.347656 182.148438 72.136719 C 178.15625 70.9375 174.089844 70.164062 170.078125 69.078125 C 166.410156 68.082031 162.855469 66.628906 159.078125 66.082031 C 150.457031 64.839844 141.765625 64.828125 133.167969 66.09375 C 128.773438 66.742188 124.386719 67.238281 120.035156 68.140625 C 115.507812 69.078125 110.972656 69.976562 106.453125 70.945312 C 97.742188 72.820312 89.179688 76.0625 81.1875 79.984375 C 77.046875 82.019531 73.035156 84.289062 68.863281 86.261719 C 64.914062 88.121094 60.839844 89.933594 57.339844 92.574219 C 54.046875 95.058594 51.292969 98.167969 48.03125 100.691406 C 45.832031 102.394531 48.5625 105.757812 50.769531 104.046875 C 53.949219 101.589844 56.640625 98.574219 59.824219 96.121094 C 63.257812 93.476562 67.34375 91.773438 71.234375 89.925781 C 75.296875 87.996094 79.203125 85.765625 83.246094 83.796875 C 87.175781 81.882812 91.296875 80.277344 95.371094 78.699219 C 103.597656 75.507812 112.390625 74.125 121.003906 72.355469 C 125.246094 71.484375 129.523438 71.007812 133.800781 70.378906 C 138.144531 69.738281 142.402344 69.273438 146.800781 69.453125 C 150.882812 69.617188 155.128906 69.792969 159.15625 70.476562 C 162.828125 71.097656 166.289062 72.59375 169.898438 73.46875 C 177.699219 75.363281 185.367188 77.695312 193.222656 79.359375 C 197.207031 80.203125 200.839844 81.695312 204.472656 83.511719 C 208.152344 85.351562 211.960938 87.179688 215.316406 89.574219 C 218.480469 91.835938 221.359375 94.578125 224.785156 96.453125 C 227.871094 98.144531 231.339844 98.953125 234.445312 100.589844 C 237.835938 102.378906 240.003906 105.644531 242.230469 108.644531 C 244.539062 111.757812 247.082031 114.363281 250.167969 116.707031 C 253.320312 119.101562 256.097656 121.363281 258.390625 124.632812 C 260.792969 128.058594 263.015625 131.714844 265.046875 135.375 C 267.160156 139.179688 268.507812 143.363281 270.320312 147.3125 C 272.125 151.246094 273.34375 155.371094 274.738281 159.460938 C 276.175781 163.667969 278.242188 167.628906 279.628906 171.855469 C 280.976562 175.960938 281.941406 180.339844 282.777344 184.578125 C 283.601562 188.769531 283.699219 192.90625 283.695312 197.164062 C 283.695312 201.292969 284.050781 205.359375 284.378906 209.46875 C 284.714844 213.59375 284.578125 217.550781 283.816406 221.625 C 283.058594 225.683594 282.261719 229.699219 281.707031 233.796875 C 280.578125 242.121094 278.835938 250.652344 275.71875 258.488281 C 274.238281 262.199219 272.191406 265.644531 270.410156 269.210938 C 268.460938 273.113281 266.628906 277.058594 264.453125 280.839844 C 260.1875 288.25 255.644531 295.316406 250.175781 301.902344 C 244.542969 308.683594 238.503906 315.011719 232.132812 321.101562 C 229 324.097656 225.777344 326.945312 222.039062 329.179688 C 218.402344 331.351562 214.820312 333.640625 211.167969 335.789062 C 207.433594 337.984375 203.582031 340.105469 199.707031 342.039062 C 195.820312 343.976562 191.710938 345.4375 187.835938 347.394531 C 183.921875 349.371094 180.390625 352.019531 176.25 353.539062 C 173.632812 354.503906 175.386719 358.460938 177.996094 357.503906 C 182.355469 355.902344 186.042969 353.050781 190.203125 351.050781 Z M 190.203125 351.050781 " fill-opacity="1" fill-rule="nonzero"/></g></g></g></svg>