<svg xmlns="http://www.w3.org/2000/svg" xmlns:xlink="http://www.w3.org/1999/xlink" width="500" zoomAndPan="magnify" viewBox="0 0 375 374.999991" height="500" preserveAspectRatio="xMidYMid meet" version="1.0"><defs><clipPath id="dc3be1cfe7"><path d="M 187.5 166.355469 L 337.5 166.355469 L 337.5 241.355469 L 187.5 241.355469 Z M 187.5 166.355469 " clip-rule="nonzero"/></clipPath><clipPath id="a2758f27d7"><path d="M 37.5 166.355469 L 187.5 166.355469 L 187.5 241.355469 L 37.5 241.355469 Z M 37.5 166.355469 " clip-rule="nonzero"/></clipPath></defs><g clip-path="url(#dc3be1cfe7)"><path fill="#0e39ec" d="M 337.4375 166.355469 L 337.4375 166.710938 C 337.4375 176.828125 335.457031 186.640625 331.546875 195.878906 C 327.773438 204.800781 322.371094 212.816406 315.488281 219.699219 C 308.605469 226.578125 300.59375 231.984375 291.667969 235.757812 C 282.429688 239.664062 272.617188 241.644531 262.5 241.644531 C 252.386719 241.644531 242.570312 239.664062 233.332031 235.757812 C 224.410156 231.984375 216.394531 226.578125 209.515625 219.699219 C 202.632812 212.816406 197.230469 204.800781 193.453125 195.878906 C 189.546875 186.640625 187.566406 176.828125 187.566406 166.710938 L 187.566406 166.355469 Z M 337.4375 166.355469 " fill-opacity="1" fill-rule="nonzero"/></g><g clip-path="url(#a2758f27d7)"><path fill="#ff0072" d="M 187.4375 166.355469 C 187.4375 207.785156 153.863281 241.355469 112.4375 241.355469 C 71.007812 241.355469 37.5625 207.785156 37.5625 166.355469 Z M 187.4375 166.355469 " fill-opacity="1" fill-rule="nonzero"/></g></svg>