<svg xmlns="http://www.w3.org/2000/svg" xmlns:xlink="http://www.w3.org/1999/xlink" width="500" zoomAndPan="magnify" viewBox="0 0 375 374.999991" height="500" preserveAspectRatio="xMidYMid meet" version="1.0"><defs><clipPath id="0481a8167a"><path d="M 136.941406 112.5 L 238.191406 112.5 L 238.191406 262.5 L 136.941406 262.5 Z M 136.941406 112.5 " clip-rule="nonzero"/></clipPath><clipPath id="3393612584"><path d="M 68 200 L 215 200 L 215 334 L 68 334 Z M 68 200 " clip-rule="nonzero"/></clipPath><clipPath id="a935987afa"><path d="M 37.5 246.140625 L 132.074219 173.503906 L 223.441406 292.464844 L 128.871094 365.101562 Z M 37.5 246.140625 " clip-rule="nonzero"/></clipPath><clipPath id="aca61cd7a3"><path d="M 37.5 246.140625 L 132.074219 173.503906 L 223.441406 292.464844 L 128.871094 365.101562 Z M 37.5 246.140625 " clip-rule="nonzero"/></clipPath></defs><g clip-path="url(#0481a8167a)"><path fill="#181ddb" d="M 196.839844 163.105469 L 238.050781 163.105469 C 238.050781 135.183594 215.410156 112.550781 187.496094 112.550781 C 159.585938 112.550781 136.941406 135.183594 136.941406 163.105469 L 178.144531 163.105469 C 154.695312 167.484375 136.941406 188.050781 136.941406 212.773438 L 178.144531 212.773438 C 154.695312 217.160156 136.941406 237.722656 136.941406 262.449219 L 238.050781 262.449219 C 238.050781 237.726562 220.296875 217.160156 196.847656 212.773438 L 238.050781 212.773438 C 238.050781 188.050781 220.289062 167.484375 196.839844 163.105469 Z M 196.839844 163.105469 " fill-opacity="1" fill-rule="nonzero"/></g><g clip-path="url(#3393612584)"><g clip-path="url(#a935987afa)"><g clip-path="url(#aca61cd7a3)"><path fill="#ff0072" d="M 214.164062 280.617188 C 210.800781 291.886719 204.816406 302.199219 196.703125 310.714844 C 188.589844 319.230469 178.578125 325.703125 167.484375 329.609375 C 156.390625 333.511719 144.527344 334.734375 132.871094 333.175781 C 121.214844 331.617188 110.089844 327.320312 100.414062 320.640625 C 90.734375 313.957031 82.773438 305.082031 77.183594 294.734375 C 71.589844 284.386719 68.527344 272.863281 68.242188 261.105469 C 67.960938 249.347656 70.460938 237.691406 75.546875 227.085938 C 80.632812 216.480469 88.152344 207.230469 97.5 200.089844 L 112.460938 219.667969 C 106.203125 224.449219 101.167969 230.640625 97.765625 237.738281 C 94.363281 244.839844 92.6875 252.640625 92.878906 260.511719 C 93.066406 268.382812 95.117188 276.09375 98.859375 283.019531 C 102.601562 289.945312 107.929688 295.886719 114.410156 300.359375 C 120.890625 304.832031 128.335938 307.707031 136.136719 308.75 C 143.941406 309.792969 151.878906 308.976562 159.304688 306.363281 C 166.730469 303.75 173.433594 299.417969 178.863281 293.71875 C 184.292969 288.019531 188.300781 281.113281 190.550781 273.570312 Z M 214.164062 280.617188 " fill-opacity="1" fill-rule="nonzero"/></g></g></g></svg>