<svg xmlns="http://www.w3.org/2000/svg" xmlns:xlink="http://www.w3.org/1999/xlink" width="500" zoomAndPan="magnify" viewBox="0 0 375 374.999991" height="500" preserveAspectRatio="xMidYMid meet" version="1.0"><defs><clipPath id="73df7938f8"><path d="M 94.296875 88.796875 L 313.296875 88.796875 L 313.296875 307.796875 L 94.296875 307.796875 Z M 94.296875 88.796875 " clip-rule="nonzero"/></clipPath></defs><g clip-path="url(#73df7938f8)"><path fill="#f46647" d="M 203.6875 236.074219 C 182.773438 236.074219 165.792969 219.054688 165.792969 198.183594 L 165.792969 160.292969 L 203.6875 160.292969 C 224.601562 160.292969 241.578125 177.3125 241.578125 198.183594 C 241.578125 219.054688 224.601562 236.074219 203.6875 236.074219 Z M 171.65625 166.15625 L 171.65625 198.183594 C 171.65625 215.859375 186.007812 230.210938 203.6875 230.210938 C 221.363281 230.210938 235.714844 215.859375 235.714844 198.183594 C 235.714844 180.507812 221.363281 166.15625 203.6875 166.15625 Z M 203.6875 250.382812 C 174.894531 250.382812 151.488281 226.976562 151.488281 198.183594 L 151.488281 145.984375 L 203.6875 145.984375 C 232.476562 145.984375 255.886719 169.394531 255.886719 198.183594 C 255.886719 226.976562 232.476562 250.382812 203.6875 250.382812 Z M 157.347656 151.847656 L 157.347656 198.183594 C 157.347656 223.738281 178.132812 244.519531 203.6875 244.519531 C 229.238281 244.519531 250.023438 223.738281 250.023438 198.183594 C 250.023438 172.628906 229.238281 151.847656 203.6875 151.847656 Z M 203.6875 264.691406 C 167.019531 264.691406 137.179688 234.851562 137.179688 198.183594 L 137.179688 131.675781 L 203.6875 131.675781 C 240.355469 131.675781 270.195312 161.515625 270.195312 198.183594 C 270.195312 234.851562 240.355469 264.691406 203.6875 264.691406 Z M 143.085938 137.582031 L 143.085938 198.183594 C 143.085938 231.613281 170.300781 258.785156 203.6875 258.785156 C 237.117188 258.785156 264.289062 231.570312 264.289062 198.183594 C 264.289062 164.796875 237.117188 137.582031 203.6875 137.582031 Z M 203.6875 278.957031 C 159.144531 278.957031 122.871094 242.726562 122.871094 198.183594 L 122.871094 117.410156 L 203.6875 117.410156 C 248.230469 117.410156 284.460938 153.640625 284.460938 198.183594 C 284.460938 242.726562 248.230469 278.957031 203.6875 278.957031 Z M 128.777344 123.273438 L 128.777344 198.183594 C 128.777344 239.488281 162.382812 273.09375 203.6875 273.09375 C 244.992188 273.09375 278.597656 239.488281 278.597656 198.183594 C 278.597656 156.878906 244.992188 123.273438 203.6875 123.273438 Z M 203.6875 293.265625 C 178.308594 293.265625 154.417969 283.375 136.433594 265.390625 C 118.496094 247.453125 108.5625 223.5625 108.5625 198.140625 L 108.5625 103.101562 L 203.6875 103.101562 C 229.066406 103.101562 252.957031 112.992188 270.9375 130.976562 C 288.878906 148.914062 298.8125 172.804688 298.8125 198.226562 C 298.8125 223.648438 288.921875 247.496094 270.9375 265.480469 C 252.957031 283.375 229.109375 293.265625 203.6875 293.265625 Z M 114.46875 108.964844 L 114.46875 198.183594 C 114.46875 247.363281 154.503906 287.402344 203.6875 287.402344 C 252.867188 287.402344 292.902344 247.363281 292.902344 198.183594 C 292.902344 149.003906 252.867188 108.964844 203.6875 108.964844 Z M 203.6875 307.574219 C 174.457031 307.574219 146.980469 296.195312 126.328125 275.542969 C 105.675781 254.890625 94.296875 227.414062 94.296875 198.183594 L 94.296875 88.796875 L 203.6875 88.796875 C 232.914062 88.796875 260.394531 100.171875 281.046875 120.824219 C 301.699219 141.476562 313.074219 168.953125 313.074219 198.183594 C 313.074219 227.414062 301.699219 254.890625 281.046875 275.542969 C 260.394531 296.195312 232.914062 307.574219 203.6875 307.574219 Z M 100.160156 94.660156 L 100.160156 198.183594 C 100.160156 225.835938 110.925781 251.828125 130.484375 271.386719 C 150.042969 290.945312 176.03125 301.710938 203.6875 301.710938 C 231.339844 301.710938 257.332031 290.945312 276.890625 271.386719 C 296.449219 251.828125 307.210938 225.835938 307.210938 198.183594 C 307.210938 170.53125 296.449219 144.539062 276.890625 124.980469 C 257.332031 105.421875 231.339844 94.660156 203.6875 94.660156 Z M 100.160156 94.660156 " fill-opacity="1" fill-rule="nonzero"/></g></svg>