<svg xmlns="http://www.w3.org/2000/svg" xmlns:xlink="http://www.w3.org/1999/xlink" width="500" zoomAndPan="magnify" viewBox="0 0 375 374.999991" height="500" preserveAspectRatio="xMidYMid meet" version="1.0"><defs><clipPath id="019f0a4b3c"><path d="M 48.542969 92.046875 L 293.792969 92.046875 L 293.792969 337.296875 L 48.542969 337.296875 Z M 48.542969 92.046875 " clip-rule="nonzero"/></clipPath><clipPath id="620a56f63a"><path d="M 81 34.257812 L 326.25 34.257812 L 326.25 279.507812 L 81 279.507812 Z M 81 34.257812 " clip-rule="nonzero"/></clipPath></defs><g clip-path="url(#019f0a4b3c)"><path fill="#8d25fc" d="M 171.269531 92.046875 C 103.460938 92.046875 48.542969 146.964844 48.542969 214.769531 C 48.542969 282.574219 103.460938 337.496094 171.269531 337.496094 C 239.074219 337.496094 293.992188 282.574219 293.992188 214.769531 C 293.992188 146.964844 239.074219 92.046875 171.269531 92.046875 Z M 171.269531 312.949219 C 117.148438 312.949219 73.089844 268.890625 73.089844 214.769531 C 73.089844 160.648438 117.148438 116.589844 171.269531 116.589844 C 225.390625 116.589844 269.449219 160.648438 269.449219 214.769531 C 269.449219 268.890625 225.390625 312.949219 171.269531 312.949219 Z M 171.269531 312.949219 " fill-opacity="1" fill-rule="nonzero"/></g><g clip-path="url(#620a56f63a)"><path fill="#ff0072" d="M 203.726562 34.257812 C 135.921875 34.257812 81 89.175781 81 156.980469 C 81 224.785156 135.921875 279.707031 203.726562 279.707031 C 271.53125 279.707031 326.449219 224.785156 326.449219 156.980469 C 326.449219 89.175781 271.53125 34.257812 203.726562 34.257812 Z M 203.726562 255.160156 C 149.605469 255.160156 105.546875 211.101562 105.546875 156.980469 C 105.546875 102.859375 149.605469 58.800781 203.726562 58.800781 C 257.847656 58.800781 301.90625 102.859375 301.90625 156.980469 C 301.90625 211.101562 257.847656 255.160156 203.726562 255.160156 Z M 203.726562 255.160156 " fill-opacity="1" fill-rule="nonzero"/></g></svg>