<svg xmlns="http://www.w3.org/2000/svg" xmlns:xlink="http://www.w3.org/1999/xlink" width="500" zoomAndPan="magnify" viewBox="0 0 375 374.999991" height="500" preserveAspectRatio="xMidYMid meet" version="1.0"><defs><clipPath id="315241e5e0"><path d="M 43.375 47.832031 L 331.375 47.832031 L 331.375 326.832031 L 43.375 326.832031 Z M 43.375 47.832031 " clip-rule="nonzero"/></clipPath></defs><g clip-path="url(#315241e5e0)"><path fill="#181ddb" d="M 331.484375 204.832031 L 228.5625 204.832031 L 298.136719 274.402344 L 275.15625 297.382812 L 204.257812 226.484375 L 204.257812 327.160156 L 171.777344 327.160156 L 171.777344 227.695312 L 97.941406 301.53125 L 73.464844 277.054688 L 145.6875 204.832031 L 43.515625 204.832031 L 43.515625 170.160156 L 147.992188 170.160156 L 77.667969 99.839844 L 100.648438 76.859375 L 171.777344 148.042969 L 171.777344 47.832031 L 204.257812 47.832031 L 204.257812 146.199219 L 277.058594 73.402344 L 301.535156 97.9375 L 229.3125 170.160156 L 331.484375 170.160156 Z M 331.484375 204.832031 " fill-opacity="1" fill-rule="nonzero"/></g></svg>