<svg xmlns="http://www.w3.org/2000/svg" xmlns:xlink="http://www.w3.org/1999/xlink" width="500" zoomAndPan="magnify" viewBox="0 0 375 374.999991" height="500" preserveAspectRatio="xMidYMid meet" version="1.0"><path fill="#ff0072" d="M 109.046875 115.246094 C 92.949219 112.894531 75.054688 120.015625 67.421875 134.382812 C 59.789062 148.753906 65.519531 169.507812 80.582031 175.671875 C 87.917969 178.671875 96.136719 178.136719 103.953125 179.382812 C 111.773438 180.628906 120.214844 184.675781 122.28125 192.320312 C 124.574219 200.8125 117.738281 209.226562 110.066406 213.535156 C 102.398438 217.84375 93.457031 219.8125 86.335938 224.992188 C 76.511719 232.148438 71.53125 245.398438 74.222656 257.25 C 76.910156 269.117188 87.082031 278.929688 99.035156 281.171875 C 110.988281 283.410156 124.039062 277.957031 130.835938 267.871094 C 135.804688 260.5 137.433594 251.375 141.792969 243.644531 C 146.152344 235.898438 155.351562 229.335938 163.546875 232.773438 C 167.542969 234.453125 170.890625 238.339844 175.210938 238.039062 C 182.582031 237.527344 184.5 225.925781 191.695312 224.28125 C 196.09375 223.273438 200.488281 226.757812 202.191406 230.929688 C 203.898438 235.101562 203.664062 239.769531 203.613281 244.277344 C 203.476562 257.078125 205.28125 270.238281 211.519531 281.417969 C 217.757812 292.601562 229 301.527344 241.761719 302.488281 C 254.523438 303.457031 268.070312 294.902344 270.511719 282.339844 C 272.578125 271.746094 266.839844 261.011719 259.269531 253.316406 C 251.699219 245.621094 242.273438 240.007812 234.242188 232.785156 C 226.210938 225.5625 219.324219 215.875 219.414062 205.082031 C 219.460938 199.390625 222.066406 193.191406 227.355469 191.113281 C 233.519531 188.683594 240.167969 192.644531 245.734375 196.230469 C 255.371094 202.453125 265.632812 208.167969 276.898438 210.296875 C 288.167969 212.429688 300.707031 210.484375 309.273438 202.867188 C 317.839844 195.234375 320.988281 181.273438 314.515625 171.800781 C 307.46875 161.503906 292.910156 159.972656 280.496094 161.214844 C 268.070312 162.460938 255 165.375 243.519531 160.46875 C 237.542969 157.917969 231.988281 151.703125 233.96875 145.515625 C 237.242188 135.257812 256.144531 136.9375 258.308594 126.390625 C 259.503906 120.550781 253.839844 115.210938 247.976562 114.089844 C 242.113281 112.96875 236.148438 114.675781 230.234375 115.507812 C 224.332031 116.34375 217.609375 116.03125 213.386719 111.824219 C 207.410156 105.871094 209.539062 96.046875 209.960938 87.628906 C 210.335938 80.335938 208.917969 72.652344 204.410156 66.898438 C 199.902344 61.148438 191.820312 57.859375 184.960938 60.386719 C 175.546875 63.835938 172.433594 75.777344 173.21875 85.761719 C 174.003906 95.761719 177.265625 105.835938 175.0625 115.621094 C 172.648438 126.316406 159.226562 140.285156 147.234375 136.027344 C 140.957031 133.800781 136.128906 127.210938 130.574219 123.625 C 124.039062 119.394531 116.742188 116.367188 109.046875 115.246094 Z M 109.046875 115.246094 " fill-opacity="1" fill-rule="nonzero"/><path fill="#ff0072" d="M 126.789062 102.734375 C 124.609375 103.292969 122.644531 105.296875 122.90625 107.527344 C 123.054688 108.773438 123.851562 109.867188 124.847656 110.640625 C 125.84375 111.414062 127.011719 111.910156 128.171875 112.394531 C 132.691406 114.289062 137.210938 116.179688 141.71875 118.085938 C 142.414062 118.371094 143.125 118.671875 143.886719 118.671875 C 144.644531 118.671875 145.441406 118.296875 145.714844 117.589844 C 146.101562 116.578125 145.28125 115.535156 144.519531 114.761719 C 141.355469 111.550781 138.207031 108.3125 135.019531 105.113281 C 132.777344 102.847656 130.027344 101.925781 126.789062 102.734375 Z M 126.789062 102.734375 " fill-opacity="1" fill-rule="nonzero"/><path fill="#ff0072" d="M 163.132812 76.335938 C 160.582031 75.003906 156.984375 75.242188 155.328125 77.609375 C 154.40625 78.925781 154.230469 80.65625 154.53125 82.238281 C 154.816406 83.820312 155.515625 85.289062 156.210938 86.746094 C 158.914062 92.410156 161.601562 98.078125 164.304688 103.742188 C 164.714844 104.613281 165.152344 105.511719 165.875 106.15625 C 166.59375 106.804688 167.691406 107.128906 168.550781 106.691406 C 169.78125 106.058594 169.882812 104.363281 169.820312 102.984375 C 169.546875 97.207031 169.285156 91.429688 168.984375 85.652344 C 168.773438 81.566406 166.933594 78.328125 163.132812 76.335938 Z M 163.132812 76.335938 " fill-opacity="1" fill-rule="nonzero"/><path fill="#ff0072" d="M 155.300781 123.242188 C 155.300781 123.730469 155.207031 124.199219 155.023438 124.652344 C 154.835938 125.101562 154.570312 125.5 154.222656 125.847656 C 153.878906 126.191406 153.480469 126.457031 153.027344 126.644531 C 152.574219 126.832031 152.105469 126.925781 151.617188 126.925781 C 151.128906 126.925781 150.65625 126.832031 150.207031 126.644531 C 149.753906 126.457031 149.355469 126.191406 149.011719 125.847656 C 148.664062 125.5 148.398438 125.101562 148.210938 124.652344 C 148.023438 124.199219 147.929688 123.730469 147.929688 123.242188 C 147.929688 122.753906 148.023438 122.28125 148.210938 121.832031 C 148.398438 121.378906 148.664062 120.980469 149.011719 120.632812 C 149.355469 120.289062 149.753906 120.023438 150.207031 119.835938 C 150.65625 119.648438 151.128906 119.554688 151.617188 119.554688 C 152.105469 119.554688 152.574219 119.648438 153.027344 119.835938 C 153.480469 120.023438 153.878906 120.289062 154.222656 120.632812 C 154.570312 120.980469 154.835938 121.378906 155.023438 121.832031 C 155.207031 122.28125 155.300781 122.753906 155.300781 123.242188 Z M 155.300781 123.242188 " fill-opacity="1" fill-rule="nonzero"/><path fill="#ff0072" d="M 98.511719 197.785156 C 97.316406 198.792969 96.320312 200.125 96 201.65625 C 95.675781 203.1875 96.121094 204.933594 97.355469 205.902344 C 98.089844 206.488281 99.035156 206.761719 99.980469 206.851562 C 101.988281 207.035156 104.078125 206.402344 105.523438 204.996094 C 106.96875 203.585938 107.652344 201.421875 107.128906 199.480469 C 106.667969 197.785156 105.011719 196.105469 103.246094 195.753906 C 101.5 195.394531 99.796875 196.703125 98.511719 197.785156 Z M 98.511719 197.785156 " fill-opacity="1" fill-rule="nonzero"/><path fill="#ff0072" d="M 68.667969 213.324219 C 62.070312 217.257812 57.039062 223.746094 54.882812 231.128906 C 54.363281 232.933594 54 234.828125 54.300781 236.683594 C 54.597656 238.539062 55.65625 240.34375 57.351562 241.152344 C 60.039062 242.449219 63.351562 240.792969 65.132812 238.386719 C 66.898438 235.984375 67.621094 232.984375 68.753906 230.21875 C 71.617188 223.234375 77.445312 217.519531 84.492188 214.78125 C 85.976562 214.207031 90.582031 213.027344 90.820312 211.058594 C 91.117188 208.667969 85.851562 208.992188 84.457031 209.003906 C 78.914062 209.015625 73.398438 210.496094 68.667969 213.324219 Z M 68.667969 213.324219 " fill-opacity="1" fill-rule="nonzero"/><path fill="#ff0072" d="M 158.488281 244.425781 C 156.433594 245.148438 154.703125 246.554688 153.125 248.050781 C 145.726562 255.035156 140.871094 264.660156 139.664062 274.769531 C 139.441406 276.601562 139.351562 278.492188 139.875 280.261719 C 140.398438 282.027344 141.667969 283.660156 143.4375 284.207031 C 145.890625 284.96875 148.566406 283.386719 149.960938 281.230469 C 151.355469 279.078125 151.777344 276.464844 152.300781 273.949219 C 153.570312 267.699219 155.550781 261.597656 158.167969 255.78125 C 159.5 252.832031 161.253906 250.09375 162.625 247.179688 C 164.253906 243.71875 161.664062 243.292969 158.488281 244.425781 Z M 158.488281 244.425781 " fill-opacity="1" fill-rule="nonzero"/><path fill="#ff0072" d="M 181.214844 283.773438 C 181.960938 286.300781 182.945312 288.863281 184.863281 290.671875 C 186.777344 292.476562 189.828125 293.308594 192.09375 291.976562 C 193.964844 290.882812 194.871094 288.601562 194.933594 286.4375 C 194.996094 284.269531 194.363281 282.152344 193.8125 280.050781 C 191.023438 269.339844 190.425781 258.0625 192.070312 247.105469 C 192.394531 244.925781 193.851562 237.253906 190.253906 236.820312 C 187.5 236.484375 184.886719 243.628906 183.964844 245.660156 C 180.578125 253.191406 178.886719 261.484375 179.058594 269.753906 C 179.160156 274.484375 179.867188 279.214844 181.214844 283.773438 Z M 181.214844 283.773438 " fill-opacity="1" fill-rule="nonzero"/><path fill="#ff0072" d="M 230.90625 214.632812 C 232 216.660156 233.71875 218.542969 235.972656 219.027344 C 239.148438 219.710938 242.433594 217.222656 243.332031 214.097656 C 244.8125 208.964844 240.320312 200.113281 234.367188 200.050781 C 227.230469 199.976562 228.703125 210.535156 230.90625 214.632812 Z M 230.90625 214.632812 " fill-opacity="1" fill-rule="nonzero"/><path fill="#ff0072" d="M 281.058594 144.359375 C 282.476562 144.421875 283.921875 144.53125 285.21875 145.117188 C 286.5 145.714844 287.609375 146.898438 287.71875 148.304688 C 287.832031 149.835938 286.734375 151.253906 285.390625 151.992188 C 284.035156 152.726562 282.464844 152.898438 280.933594 153.046875 C 272.640625 153.84375 264.285156 154.042969 255.96875 153.632812 C 253.914062 153.535156 248.148438 153.386719 247.066406 151.070312 C 246.007812 148.839844 254.339844 147.332031 256.453125 146.8125 C 264.460938 144.832031 272.789062 143.996094 281.058594 144.359375 Z M 281.058594 144.359375 " fill-opacity="1" fill-rule="nonzero"/><path fill="#ff0072" d="M 215.953125 95.414062 C 216.027344 98.738281 216.773438 102.125 218.652344 104.863281 C 220.535156 107.601562 223.660156 109.605469 226.984375 109.605469 C 230.308594 109.605469 233.644531 107.328125 234.367188 104.078125 C 234.765625 102.296875 234.28125 100.242188 232.847656 99.109375 C 231.167969 97.777344 228.714844 98.015625 226.785156 97.070312 C 223.160156 95.277344 222.910156 90.792969 220.496094 87.992188 C 216.101562 82.925781 215.890625 92.75 215.953125 95.414062 Z M 215.953125 95.414062 " fill-opacity="1" fill-rule="nonzero"/><path fill="#ffffff" d="M 80.433594 132.042969 C 77.496094 134.796875 75.441406 138.320312 74.371094 142.089844 C 73.847656 143.984375 73.5625 145.925781 73.546875 147.882812 C 73.546875 148.851562 73.597656 149.824219 73.734375 150.796875 C 73.871094 151.753906 74.070312 152.710938 74.34375 153.632812 C 74.621094 154.566406 74.96875 155.476562 75.378906 156.347656 C 75.789062 157.230469 76.261719 158.078125 76.796875 158.886719 C 77.871094 160.519531 79.164062 162 80.632812 163.296875 C 83.585938 165.886719 87.21875 167.726562 91.179688 168.4375 C 89.175781 168.351562 87.171875 167.878906 85.277344 167.128906 C 84.332031 166.757812 83.410156 166.296875 82.527344 165.785156 C 81.640625 165.277344 80.808594 164.679688 80 164.042969 C 78.390625 162.773438 76.972656 161.242188 75.800781 159.546875 C 75.21875 158.703125 74.695312 157.804688 74.246094 156.871094 C 73.796875 155.9375 73.425781 154.964844 73.125 153.984375 C 72.839844 152.988281 72.628906 151.976562 72.492188 150.945312 C 72.367188 149.921875 72.316406 148.890625 72.339844 147.855469 C 72.402344 145.789062 72.765625 143.746094 73.410156 141.804688 C 73.734375 140.835938 74.121094 139.875 74.582031 138.964844 C 75.042969 138.058594 75.566406 137.171875 76.152344 136.339844 C 77.382812 134.695312 78.804688 133.214844 80.433594 132.042969 Z M 80.433594 132.042969 " fill-opacity="1" fill-rule="nonzero"/><path fill="#ffffff" d="M 184.835938 68.457031 C 183.878906 71.007812 183.054688 73.574219 182.421875 76.175781 C 181.785156 78.777344 181.324219 81.429688 181.050781 84.082031 C 180.777344 86.746094 180.703125 89.421875 180.800781 92.101562 C 180.902344 94.789062 181.1875 97.46875 181.613281 100.15625 C 180.691406 97.589844 180.117188 94.902344 179.820312 92.175781 C 179.53125 89.449219 179.53125 86.683594 179.804688 83.957031 C 180.082031 81.230469 180.640625 78.515625 181.476562 75.902344 C 182.320312 73.300781 183.417969 70.785156 184.835938 68.457031 Z M 184.835938 68.457031 " fill-opacity="1" fill-rule="nonzero"/><path fill="#ffffff" d="M 241.988281 120.652344 C 239.507812 121.136719 237.03125 121.511719 234.542969 121.832031 C 233.296875 121.996094 232.050781 122.144531 230.804688 122.28125 C 230.183594 122.355469 229.5625 122.417969 228.9375 122.480469 C 228.316406 122.542969 227.679688 122.59375 227.046875 122.644531 C 226.410156 122.679688 225.777344 122.71875 225.140625 122.742188 C 224.503906 122.753906 223.859375 122.753906 223.222656 122.730469 C 221.941406 122.679688 220.65625 122.53125 219.402344 122.230469 C 218.144531 121.933594 216.921875 121.484375 215.789062 120.875 C 215.230469 120.5625 214.679688 120.214844 214.183594 119.816406 L 213.996094 119.667969 L 213.824219 119.503906 C 213.699219 119.40625 213.585938 119.292969 213.472656 119.183594 C 213.363281 119.070312 213.25 118.957031 213.136719 118.84375 C 213.027344 118.734375 212.925781 118.609375 212.828125 118.496094 C 214.820312 120.054688 217.183594 120.898438 219.601562 121.285156 C 222.015625 121.671875 224.480469 121.585938 226.957031 121.410156 C 227.582031 121.375 228.203125 121.3125 228.824219 121.261719 L 230.707031 121.113281 C 231.964844 121.011719 233.207031 120.9375 234.464844 120.863281 C 236.945312 120.726562 239.460938 120.625 241.988281 120.652344 Z M 241.988281 120.652344 " fill-opacity="1" fill-rule="nonzero"/><path fill="#ffffff" d="M 298.253906 173.246094 L 297.605469 172.90625 C 297.394531 172.785156 297.171875 172.707031 296.945312 172.597656 L 296.609375 172.449219 C 296.496094 172.398438 296.386719 172.359375 296.273438 172.308594 C 296.050781 172.222656 295.824219 172.136719 295.601562 172.0625 C 294.691406 171.75 293.757812 171.527344 292.8125 171.363281 C 291.867188 171.191406 290.917969 171.089844 289.960938 171.015625 C 289.003906 170.941406 288.042969 170.902344 287.085938 170.890625 C 285.15625 170.878906 283.226562 170.914062 281.269531 170.941406 L 278.355469 170.953125 L 275.441406 170.953125 C 271.558594 170.941406 267.671875 170.890625 263.789062 170.792969 C 259.902344 170.691406 256.019531 170.542969 252.132812 170.28125 C 256.019531 170.03125 259.902344 169.90625 263.789062 169.820312 C 267.671875 169.734375 271.558594 169.707031 275.441406 169.707031 L 278.355469 169.71875 L 281.269531 169.757812 C 282.242188 169.769531 283.210938 169.78125 284.183594 169.808594 C 285.15625 169.832031 286.136719 169.859375 287.109375 169.917969 C 289.0625 170.03125 291.03125 170.269531 292.9375 170.765625 C 293.171875 170.816406 293.410156 170.902344 293.644531 170.964844 L 293.996094 171.078125 C 294.105469 171.113281 294.230469 171.164062 294.34375 171.203125 C 294.582031 171.289062 294.804688 171.363281 295.039062 171.453125 L 295.714844 171.738281 C 295.9375 171.835938 296.148438 171.949219 296.375 172.0625 C 296.484375 172.125 296.597656 172.171875 296.695312 172.234375 L 297.007812 172.421875 C 297.46875 172.683594 297.867188 172.96875 298.253906 173.246094 Z M 298.253906 173.246094 " fill-opacity="1" fill-rule="nonzero"/><path fill="#ffffff" d="M 245.683594 169.183594 C 244.5625 169.023438 243.492188 168.699219 242.460938 168.289062 C 241.425781 167.878906 240.417969 167.367188 239.472656 166.78125 C 238.527344 166.195312 237.617188 165.535156 236.78125 164.800781 C 235.949219 164.054688 235.164062 163.257812 234.515625 162.324219 C 235.511719 162.859375 236.433594 163.445312 237.355469 164.019531 L 240.121094 165.722656 L 242.894531 167.417969 C 243.816406 167.988281 244.75 168.539062 245.683594 169.183594 Z M 245.683594 169.183594 " fill-opacity="1" fill-rule="nonzero"/><path fill="#ffffff" d="M 236.65625 256.355469 C 239.382812 257.539062 242.050781 258.820312 244.601562 260.363281 C 247.152344 261.910156 249.582031 263.726562 251.648438 265.929688 C 253.714844 268.144531 255.359375 270.773438 256.332031 273.648438 C 256.804688 275.09375 257.101562 276.589844 257.164062 278.09375 C 257.226562 279.601562 257.066406 281.121094 256.605469 282.527344 C 256.792969 281.058594 256.777344 279.578125 256.554688 278.144531 C 256.34375 276.710938 255.945312 275.316406 255.410156 273.972656 C 254.324219 271.296875 252.707031 268.867188 250.738281 266.765625 C 248.761719 264.648438 246.46875 262.828125 244.066406 261.160156 C 241.664062 259.519531 239.136719 257.984375 236.65625 256.355469 Z M 236.65625 256.355469 " fill-opacity="1" fill-rule="nonzero"/><path fill="#ffffff" d="M 186.851562 218.640625 C 185.535156 219.351562 184.464844 220.296875 183.46875 221.332031 C 182.472656 222.363281 181.535156 223.484375 180.492188 224.566406 C 179.445312 225.652344 178.25 226.648438 176.867188 227.34375 C 176.171875 227.691406 175.4375 227.953125 174.664062 228.066406 C 173.90625 228.191406 173.109375 228.152344 172.398438 227.941406 C 173.890625 227.855469 175.210938 227.28125 176.382812 226.496094 C 177.550781 225.714844 178.597656 224.742188 179.59375 223.707031 C 180.601562 222.664062 181.625 221.566406 182.808594 220.621094 C 183.390625 220.148438 184.027344 219.710938 184.710938 219.363281 C 185.382812 219.015625 186.105469 218.753906 186.851562 218.640625 Z M 186.851562 218.640625 " fill-opacity="1" fill-rule="nonzero"/><path fill="#ffffff" d="M 84.554688 258.808594 C 85.027344 261.234375 86.324219 263.453125 88.191406 264.972656 C 89.113281 265.742188 90.160156 266.367188 91.253906 266.875 C 92.351562 267.375 93.496094 267.785156 94.664062 268.085938 C 95.835938 268.421875 97.03125 268.621094 98.226562 268.792969 C 98.824219 268.855469 99.421875 268.941406 100.03125 268.957031 C 100.332031 268.96875 100.628906 268.992188 100.941406 269.003906 L 101.851562 269.003906 C 102.148438 269.019531 102.449219 268.992188 102.757812 268.980469 C 103.058594 268.96875 103.355469 268.957031 103.667969 268.941406 L 104.5625 268.855469 C 104.714844 268.84375 104.863281 268.832031 105.011719 268.804688 L 105.460938 268.742188 L 106.355469 268.621094 L 107.242188 268.445312 L 107.691406 268.359375 L 108.125 268.246094 L 109.007812 268.035156 L 109.882812 267.773438 L 110.316406 267.648438 L 110.738281 267.5 L 111.585938 267.199219 C 111.859375 267.089844 112.148438 266.964844 112.421875 266.851562 L 112.84375 266.675781 C 112.980469 266.613281 113.117188 266.550781 113.253906 266.492188 L 114.078125 266.105469 C 114.351562 265.96875 114.613281 265.816406 114.875 265.667969 C 115.136719 265.519531 115.410156 265.382812 115.660156 265.21875 L 116.429688 264.746094 C 116.691406 264.585938 116.929688 264.410156 117.175781 264.238281 C 117.6875 263.902344 118.148438 263.515625 118.632812 263.152344 C 119.566406 262.382812 120.464844 261.570312 121.296875 260.6875 C 124.648438 257.175781 127.050781 252.757812 128.257812 247.964844 C 127.574219 252.867188 125.359375 257.585938 122.019531 261.347656 L 121.710938 261.695312 L 121.546875 261.871094 L 121.386719 262.046875 L 120.726562 262.71875 C 120.613281 262.828125 120.5 262.941406 120.390625 263.042969 L 120.042969 263.363281 L 119.691406 263.6875 C 119.582031 263.800781 119.457031 263.902344 119.332031 264 C 118.847656 264.398438 118.359375 264.808594 117.851562 265.171875 C 117.589844 265.355469 117.339844 265.542969 117.078125 265.71875 L 116.28125 266.230469 C 116.144531 266.316406 116.019531 266.402344 115.882812 266.476562 L 115.472656 266.714844 C 115.199219 266.863281 114.921875 267.027344 114.648438 267.175781 L 113.804688 267.597656 C 113.667969 267.671875 113.515625 267.734375 113.378906 267.808594 L 112.945312 267.996094 C 112.65625 268.121094 112.359375 268.246094 112.074219 268.371094 L 111.175781 268.695312 L 110.726562 268.855469 L 110.28125 268.992188 L 109.371094 269.265625 L 108.449219 269.492188 L 107.988281 269.601562 L 107.527344 269.691406 L 106.59375 269.863281 C 106.28125 269.914062 105.972656 269.953125 105.660156 269.988281 L 105.1875 270.050781 C 105.023438 270.078125 104.875 270.078125 104.714844 270.089844 L 103.765625 270.164062 C 103.457031 270.175781 103.132812 270.1875 102.820312 270.199219 C 102.511719 270.214844 102.1875 270.226562 101.875 270.199219 L 100.929688 270.175781 C 100.617188 270.164062 100.292969 270.125 99.980469 270.101562 C 99.347656 270.0625 98.726562 269.964844 98.101562 269.878906 C 97.941406 269.863281 97.792969 269.828125 97.640625 269.800781 L 96.71875 269.628906 C 96.644531 269.617188 96.570312 269.601562 96.484375 269.578125 L 96.257812 269.515625 L 95.339844 269.28125 L 95.113281 269.21875 L 94.890625 269.140625 L 93.992188 268.867188 C 93.84375 268.820312 93.695312 268.769531 93.546875 268.71875 C 93.246094 268.621094 92.960938 268.507812 92.660156 268.382812 C 92.074219 268.144531 91.503906 267.886719 90.941406 267.597656 C 89.824219 267.011719 88.765625 266.292969 87.84375 265.417969 C 85.925781 263.6875 84.753906 261.273438 84.554688 258.808594 Z M 84.554688 258.808594 " fill-opacity="1" fill-rule="nonzero"/></svg>