<svg xmlns="http://www.w3.org/2000/svg" xmlns:xlink="http://www.w3.org/1999/xlink" width="500" zoomAndPan="magnify" viewBox="0 0 375 374.999991" height="500" preserveAspectRatio="xMidYMid meet" version="1.0"><defs><clipPath id="28dbbfe88d"><path d="M 134.34375 24.113281 L 227.34375 24.113281 L 227.34375 351 L 134.34375 351 Z M 134.34375 24.113281 " clip-rule="nonzero"/></clipPath></defs><g clip-path="url(#28dbbfe88d)"><path fill="#ff0072" d="M 206.804688 187.496094 C 219.328125 195.84375 227.613281 210.128906 227.613281 226.304688 C 227.613281 242.480469 219.328125 256.765625 206.804688 265.113281 C 219.328125 273.460938 227.613281 287.746094 227.613281 303.921875 C 227.613281 329.683594 206.742188 350.554688 180.976562 350.554688 C 155.214844 350.554688 134.34375 329.683594 134.34375 303.921875 C 134.34375 287.746094 142.625 273.460938 155.148438 265.113281 C 142.625 256.765625 134.34375 242.480469 134.34375 226.304688 C 134.34375 210.128906 142.625 195.84375 155.148438 187.496094 C 142.625 179.148438 134.34375 164.863281 134.34375 148.6875 C 134.34375 132.511719 142.625 118.230469 155.148438 109.882812 C 142.625 101.53125 134.34375 87.25 134.34375 71.074219 C 134.34375 45.308594 155.214844 24.4375 180.976562 24.4375 C 206.742188 24.4375 227.613281 45.308594 227.613281 71.074219 C 227.613281 87.25 219.328125 101.53125 206.804688 109.882812 C 219.328125 118.230469 227.613281 132.511719 227.613281 148.6875 C 227.613281 164.863281 219.328125 179.148438 206.804688 187.496094 Z M 206.804688 187.496094 " fill-opacity="1" fill-rule="nonzero"/></g></svg>