<svg xmlns="http://www.w3.org/2000/svg" xmlns:xlink="http://www.w3.org/1999/xlink" width="500" zoomAndPan="magnify" viewBox="0 0 375 374.999991" height="500" preserveAspectRatio="xMidYMid meet" version="1.0"><defs><clipPath id="366feff465"><path d="M 63.050781 58.265625 L 312 58.265625 L 312 306.515625 L 63.050781 306.515625 Z M 63.050781 58.265625 " clip-rule="nonzero"/></clipPath></defs><g clip-path="url(#366feff465)"><path fill="#fcb101" d="M 187.511719 58.265625 C 256.164062 58.265625 311.816406 113.917969 311.816406 182.570312 C 311.816406 251.21875 256.164062 306.871094 187.511719 306.871094 C 118.863281 306.871094 63.210938 251.21875 63.210938 182.570312 C 63.210938 178.761719 63.390625 175 63.726562 171.285156 C 68.90625 223.144531 112.671875 263.636719 165.894531 263.636719 C 222.605469 263.636719 268.578125 217.664062 268.578125 160.953125 C 268.578125 107.730469 228.085938 63.960938 176.226562 58.785156 C 179.945312 58.449219 183.707031 58.265625 187.511719 58.265625 " fill-opacity="1" fill-rule="evenodd"/></g></svg>