<svg xmlns="http://www.w3.org/2000/svg" xmlns:xlink="http://www.w3.org/1999/xlink" width="500" zoomAndPan="magnify" viewBox="0 0 375 374.999991" height="500" preserveAspectRatio="xMidYMid meet" version="1.0"><defs><clipPath id="a332498c89"><path d="M 19 40.632812 L 333 40.632812 L 333 319.632812 L 19 319.632812 Z M 19 40.632812 " clip-rule="nonzero"/></clipPath><clipPath id="697c9c3654"><path d="M 115 128.246094 L 351 128.246094 L 351 337.496094 L 115 337.496094 Z M 115 128.246094 " clip-rule="nonzero"/></clipPath></defs><g clip-path="url(#a332498c89)"><path fill="#181ddb" d="M 332.992188 40.34375 L 332.992188 116.957031 C 175.636719 116.957031 95.835938 185.144531 95.835938 319.632812 L 19.222656 319.632812 C 19.222656 142.121094 133.613281 40.34375 332.992188 40.34375 Z M 332.992188 40.34375 " fill-opacity="1" fill-rule="nonzero"/></g><g clip-path="url(#697c9c3654)"><path fill="#ff0072" d="M 350.390625 128.347656 L 350.390625 185.71875 C 232.554688 185.71875 172.796875 236.78125 172.796875 337.496094 L 115.425781 337.496094 C 115.425781 204.566406 201.085938 128.347656 350.390625 128.347656 Z M 350.390625 128.347656 " fill-opacity="1" fill-rule="nonzero"/></g></svg>