<svg xmlns="http://www.w3.org/2000/svg" xmlns:xlink="http://www.w3.org/1999/xlink" width="500" zoomAndPan="magnify" viewBox="0 0 375 374.999991" height="500" preserveAspectRatio="xMidYMid meet" version="1.0"><defs><clipPath id="e24d993d89"><path d="M 62 35 L 375 35 L 375 375 L 62 375 Z M 62 35 " clip-rule="nonzero"/></clipPath><clipPath id="8e3006b2bc"><path d="M -34.15625 293.769531 L 283.125 -53.316406 L 384.980469 39.792969 L 67.699219 386.878906 Z M -34.15625 293.769531 " clip-rule="nonzero"/></clipPath><clipPath id="9e00fd424b"><path d="M -34.15625 293.769531 L 283.125 -53.316406 L 384.980469 39.792969 L 67.699219 386.878906 Z M -34.15625 293.769531 " clip-rule="nonzero"/></clipPath></defs><g clip-path="url(#e24d993d89)"><g clip-path="url(#8e3006b2bc)"><g clip-path="url(#9e00fd424b)"><path fill="#181ddb" d="M 379.742188 42.515625 C 374.429688 42.765625 369.128906 43.144531 363.832031 43.65625 C 358.539062 44.164062 353.261719 44.800781 348 45.570312 C 342.738281 46.335938 337.496094 47.234375 332.28125 48.257812 C 327.0625 49.28125 321.871094 50.433594 316.707031 51.710938 C 311.546875 52.988281 306.417969 54.394531 301.324219 55.921875 C 296.234375 57.453125 291.179688 59.105469 286.167969 60.882812 C 281.15625 62.660156 276.191406 64.558594 271.269531 66.578125 C 266.351562 68.597656 261.484375 70.734375 256.667969 72.996094 C 251.855469 75.253906 247.097656 77.628906 242.402344 80.117188 C 237.703125 82.609375 233.066406 85.214844 228.496094 87.933594 C 223.925781 90.648438 219.425781 93.480469 214.992188 96.417969 C 210.558594 99.355469 206.203125 102.402344 201.917969 105.554688 C 197.636719 108.703125 193.433594 111.960938 189.308594 115.316406 C 185.183594 118.675781 181.144531 122.132812 177.191406 125.6875 C 173.238281 129.242188 169.371094 132.894531 165.597656 136.636719 C 161.820312 140.382812 158.136719 144.21875 154.550781 148.140625 C 150.960938 152.066406 147.472656 156.078125 144.082031 160.171875 C 140.6875 164.269531 137.398438 168.445312 134.210938 172.703125 C 131.027344 176.960938 127.945312 181.292969 124.96875 185.699219 C 121.996094 190.109375 119.128906 194.585938 116.375 199.132812 C 113.617188 203.683594 110.976562 208.296875 108.445312 212.972656 C 105.914062 217.652344 103.5 222.386719 101.203125 227.183594 C 98.90625 231.980469 96.726562 236.828125 94.664062 241.730469 C 92.605469 246.632812 90.667969 251.582031 88.847656 256.582031 C 87.03125 261.578125 85.335938 266.617188 83.765625 271.695312 C 82.191406 276.777344 80.746094 281.894531 79.425781 287.042969 C 78.105469 292.195312 76.910156 297.375 75.84375 302.585938 C 74.777344 307.796875 73.835938 313.027344 73.027344 318.285156 C 72.214844 323.539062 71.535156 328.8125 70.980469 334.101562 C 70.429688 339.390625 70.003906 344.691406 69.710938 350 C 69.417969 355.308594 69.253906 360.625 69.222656 365.941406 C 69.1875 371.257812 69.285156 376.574219 69.511719 381.886719 L 62.429688 382.058594 C 62.195312 376.628906 62.089844 371.195312 62.121094 365.761719 C 62.152344 360.324219 62.320312 354.894531 62.617188 349.464844 C 62.914062 344.039062 63.34375 338.621094 63.90625 333.214844 C 64.46875 327.808594 65.164062 322.421875 65.992188 317.050781 C 66.816406 311.675781 67.773438 306.328125 68.863281 301.003906 C 69.953125 295.679688 71.171875 290.382812 72.519531 285.117188 C 73.867188 279.851562 75.34375 274.621094 76.949219 269.429688 C 78.554688 264.238281 80.285156 259.085938 82.140625 253.976562 C 84 248.871094 85.980469 243.808594 88.085938 238.796875 C 90.1875 233.789062 92.414062 228.832031 94.761719 223.929688 C 97.109375 219.027344 99.578125 214.183594 102.164062 209.402344 C 104.746094 204.621094 107.449219 199.90625 110.261719 195.257812 C 113.078125 190.609375 116.007812 186.03125 119.046875 181.527344 C 122.089844 177.019531 125.238281 172.59375 128.496094 168.242188 C 131.75 163.890625 135.113281 159.621094 138.578125 155.433594 C 142.046875 151.25 145.613281 147.148438 149.28125 143.136719 C 152.949219 139.125 156.710938 135.207031 160.570312 131.378906 C 164.429688 127.550781 168.378906 123.820312 172.421875 120.1875 C 176.464844 116.554688 180.59375 113.019531 184.808594 109.589844 C 189.023438 106.15625 193.320312 102.832031 197.699219 99.609375 C 202.074219 96.390625 206.53125 93.277344 211.0625 90.273438 C 215.589844 87.273438 220.191406 84.382812 224.867188 81.605469 C 229.539062 78.828125 234.273438 76.167969 239.078125 73.621094 C 243.878906 71.078125 248.742188 68.652344 253.664062 66.34375 C 258.585938 64.035156 263.558594 61.851562 268.589844 59.789062 C 273.617188 57.726562 278.691406 55.785156 283.816406 53.972656 C 288.941406 52.15625 294.105469 50.46875 299.3125 48.910156 C 304.519531 47.347656 309.757812 45.914062 315.035156 44.609375 C 320.3125 43.304688 325.617188 42.132812 330.949219 41.085938 C 336.285156 40.042969 341.640625 39.128906 347.019531 38.347656 C 352.398438 37.5625 357.792969 36.914062 363.203125 36.398438 C 368.613281 35.878906 374.035156 35.492188 379.464844 35.242188 Z M 379.742188 42.515625 " fill-opacity="1" fill-rule="nonzero"/></g></g></g></svg>