<svg xmlns="http://www.w3.org/2000/svg" xmlns:xlink="http://www.w3.org/1999/xlink" width="500" zoomAndPan="magnify" viewBox="0 0 375 374.999991" height="500" preserveAspectRatio="xMidYMid meet" version="1.0"><defs><clipPath id="54a0a85650"><path d="M 18 16 L 329 16 L 329 371 L 18 371 Z M 18 16 " clip-rule="nonzero"/></clipPath><clipPath id="d9b4ceb6de"><path d="M 117.601562 -69.71875 L 426.921875 284.480469 L 322.976562 375.253906 L 13.660156 21.050781 Z M 117.601562 -69.71875 " clip-rule="nonzero"/></clipPath><clipPath id="46374d7faa"><path d="M 117.601562 -69.71875 L 426.921875 284.480469 L 322.976562 375.253906 L 13.660156 21.050781 Z M 117.601562 -69.71875 " clip-rule="nonzero"/></clipPath></defs><g clip-path="url(#54a0a85650)"><g clip-path="url(#d9b4ceb6de)"><g clip-path="url(#46374d7faa)"><path fill="#ff0072" d="M 320.859375 369.738281 C 321.207031 364.433594 321.421875 359.121094 321.511719 353.804688 C 321.597656 348.488281 321.554688 343.171875 321.382812 337.855469 C 321.210938 332.539062 320.90625 327.234375 320.476562 321.933594 C 320.042969 316.632812 319.480469 311.347656 318.789062 306.074219 C 318.097656 300.800781 317.277344 295.546875 316.328125 290.316406 C 315.378906 285.082031 314.304688 279.875 313.101562 274.695312 C 311.898438 269.515625 310.566406 264.371094 309.113281 259.253906 C 307.65625 254.140625 306.078125 249.0625 304.371094 244.027344 C 302.667969 238.988281 300.84375 233.996094 298.894531 229.046875 C 296.945312 224.101562 294.875 219.203125 292.6875 214.355469 C 290.5 209.507812 288.195312 204.71875 285.769531 199.984375 C 283.347656 195.25 280.8125 190.578125 278.160156 185.96875 C 275.507812 181.359375 272.746094 176.820312 269.871094 172.34375 C 266.996094 167.871094 264.015625 163.46875 260.925781 159.140625 C 257.835938 154.8125 254.640625 150.5625 251.34375 146.390625 C 248.046875 142.21875 244.648438 138.128906 241.148438 134.125 C 237.652344 130.117188 234.058594 126.203125 230.367188 122.371094 C 226.679688 118.542969 222.898438 114.804688 219.023438 111.160156 C 215.152344 107.515625 211.191406 103.96875 207.144531 100.519531 C 203.097656 97.066406 198.972656 93.71875 194.761719 90.46875 C 190.550781 87.222656 186.261719 84.078125 181.898438 81.039062 C 177.535156 78 173.097656 75.070312 168.589844 72.25 C 164.082031 69.429688 159.507812 66.71875 154.867188 64.125 C 150.226562 61.527344 145.523438 59.042969 140.761719 56.675781 C 136 54.308594 131.183594 52.0625 126.3125 49.929688 C 121.441406 47.796875 116.519531 45.789062 111.546875 43.898438 C 106.578125 42.007812 101.5625 40.238281 96.507812 38.59375 C 91.449219 36.949219 86.355469 35.429688 81.222656 34.035156 C 76.089844 32.640625 70.929688 31.371094 65.734375 30.230469 C 60.539062 29.085938 55.324219 28.074219 50.078125 27.183594 C 44.835938 26.296875 39.574219 25.539062 34.292969 24.910156 C 29.011719 24.28125 23.71875 23.78125 18.414062 23.414062 L 19.039062 16.355469 C 24.460938 16.730469 29.871094 17.238281 35.269531 17.878906 C 40.667969 18.519531 46.042969 19.289062 51.40625 20.195312 C 56.765625 21.097656 62.097656 22.132812 67.40625 23.296875 C 72.714844 24.464844 77.992188 25.757812 83.238281 27.183594 C 88.484375 28.605469 93.691406 30.160156 98.859375 31.835938 C 104.03125 33.515625 109.15625 35.320312 114.238281 37.25 C 119.316406 39.183594 124.347656 41.234375 129.328125 43.414062 C 134.308594 45.589844 139.234375 47.886719 144.101562 50.304688 C 148.96875 52.722656 153.773438 55.257812 158.519531 57.910156 C 163.261719 60.566406 167.9375 63.332031 172.546875 66.214844 C 177.152344 69.097656 181.6875 72.09375 186.148438 75.195312 C 190.609375 78.300781 194.992188 81.515625 199.296875 84.832031 C 203.601562 88.152344 207.820312 91.574219 211.957031 95.101562 C 216.09375 98.628906 220.140625 102.253906 224.097656 105.980469 C 228.058594 109.703125 231.921875 113.523438 235.695312 117.4375 C 239.464844 121.351562 243.140625 125.355469 246.714844 129.449219 C 250.289062 133.542969 253.761719 137.722656 257.132812 141.984375 C 260.503906 146.25 263.765625 150.59375 266.925781 155.019531 C 270.082031 159.441406 273.128906 163.941406 276.066406 168.515625 C 279.003906 173.085938 281.828125 177.730469 284.535156 182.441406 C 287.246094 187.152344 289.839844 191.929688 292.316406 196.765625 C 294.789062 201.605469 297.148438 206.503906 299.382812 211.457031 C 301.617188 216.410156 303.730469 221.417969 305.722656 226.476562 C 307.710938 231.53125 309.578125 236.636719 311.320312 241.785156 C 313.058594 246.933594 314.671875 252.121094 316.160156 257.351562 C 317.644531 262.578125 319.003906 267.839844 320.230469 273.136719 C 321.457031 278.429688 322.558594 283.75 323.523438 289.101562 C 324.492188 294.449219 325.328125 299.816406 326.03125 305.207031 C 326.738281 310.597656 327.308594 316 327.75 321.417969 C 328.191406 326.835938 328.496094 332.261719 328.671875 337.691406 C 328.84375 343.125 328.886719 348.558594 328.792969 353.992188 C 328.703125 359.425781 328.476562 364.855469 328.117188 370.28125 Z M 320.859375 369.738281 " fill-opacity="1" fill-rule="nonzero"/></g></g></g></svg>