<svg xmlns="http://www.w3.org/2000/svg" xmlns:xlink="http://www.w3.org/1999/xlink" width="500" zoomAndPan="magnify" viewBox="0 0 375 374.999991" height="500" preserveAspectRatio="xMidYMid meet" version="1.0"><defs><clipPath id="07557f5ade"><path d="M 77.980469 69.730469 L 297.019531 69.730469 L 297.019531 288.765625 L 77.980469 288.765625 Z M 77.980469 69.730469 " clip-rule="nonzero"/></clipPath><clipPath id="89d5471901"><path d="M 187.5 69.730469 C 127.015625 69.730469 77.980469 118.761719 77.980469 179.246094 C 77.980469 239.730469 127.015625 288.765625 187.5 288.765625 C 247.984375 288.765625 297.019531 239.730469 297.019531 179.246094 C 297.019531 118.761719 247.984375 69.730469 187.5 69.730469 Z M 187.5 69.730469 " clip-rule="nonzero"/></clipPath><clipPath id="d79cdbbf1a"><path d="M 83.898438 75.644531 L 290.898438 75.644531 L 290.898438 282.644531 L 83.898438 282.644531 Z M 83.898438 75.644531 " clip-rule="nonzero"/></clipPath></defs><g clip-path="url(#07557f5ade)"><g clip-path="url(#89d5471901)"><path fill="#181ddb" d="M 77.980469 69.730469 L 297.019531 69.730469 L 297.019531 288.765625 L 77.980469 288.765625 Z M 77.980469 69.730469 " fill-opacity="1" fill-rule="nonzero"/></g></g><g clip-path="url(#d79cdbbf1a)"><path fill="#ffffff" d="M 187.5 282.84375 C 130.390625 282.84375 83.898438 236.351562 83.898438 179.246094 C 83.898438 122.136719 130.390625 75.644531 187.5 75.644531 C 244.605469 75.644531 291.097656 122.136719 291.097656 179.246094 C 291.097656 236.351562 244.605469 282.84375 187.5 282.84375 Z M 187.5 77.175781 C 131.207031 77.175781 85.429688 122.953125 85.429688 179.246094 C 85.429688 235.535156 131.207031 281.3125 187.5 281.3125 C 243.789062 281.3125 289.566406 235.535156 289.566406 179.246094 C 289.566406 122.953125 243.789062 77.175781 187.5 77.175781 Z M 187.5 77.175781 " fill-opacity="1" fill-rule="nonzero"/></g></svg>